<?xml version="1.0" standalone="no"?>
<!DOCTYPE svg PUBLIC "-//W3C//DTD SVG 1.1//EN" "http://www.w3.org/Graphics/SVG/1.1/DTD/svg11.dtd" >
<svg>
<metadata>
Created by FontForge 20090914 at Tue May 18 09:29:10 2021
 By www-data
Copyright &#194;&#169; 2019 by Boyan Nurdiansyah. All rights reserved. Desktop use is strictly prohibited.
</metadata>
<defs>
<font id="Beriot-BoldCondensed" horiz-adv-x="909" >
  <font-face 
    font-family="Beriot Bold Condensed"
    font-weight="700"
    font-stretch="normal"
    units-per-em="2048"
    panose-1="0 0 8 0 0 0 0 0 0 0"
    ascent="1638"
    descent="-410"
    x-height="1126"
    cap-height="1638"
    bbox="-1059 -630.999 3234 2036"
    underline-thickness="0"
    underline-position="0"
    unicode-range="U+0020-U+1F10B"
  />
<missing-glyph horiz-adv-x="964" 
 />
    <glyph glyph-name="onequarter" unicode="&#x31;&#x2f;&#x34;" horiz-adv-x="538" 
d="M172 1442c0 30 -15.666 45 -46.999 45c-10.667 0 -24.334 -3.33301 -41.001 -10v161h135c104 0 156 -46.333 156 -139v-489h-203v432zM31.001 918h477v-195h-477v195zM465.001 627v-381h35v-135h-35v-111h-184v111h-242v98l242 418h184zM223.001 246h58v112z" />
    <glyph glyph-name="onehalf" unicode="&#x31;&#x2f;&#x32;" horiz-adv-x="538" 
d="M152 1442c0 30 -15.999 45 -47.999 45c-10.667 0 -24.334 -3.33301 -41.001 -10v161h136c104 0 155.667 -46.333 155 -139v-489h-202v432zM31.001 918h477v-195h-477v195zM238.001 633c139.333 0 208.665 -68.332 207.998 -204.999c0 -80.667 -32 -168.667 -96 -264h90
v-164h-387v92l4 2c122.667 53.333 184.334 153.666 185.001 300.999c0 57.333 -22.667 86 -68 86c-39.333 0 -77.666 -18.333 -114.999 -55v174c54 22 113.667 33 179 33z" />
    <glyph glyph-name="threequarters" unicode="&#x33;&#x2f;&#x34;" horiz-adv-x="538" 
d="M190 1491c-49.333 0 -84.668 -15 -106.001 -45v174c60 16.667 109 25 147 25c146 0 219.333 -50 220 -150v-6c0 -76.667 -45.333 -123.667 -136 -141c91.333 -18 137.333 -67.333 138 -148v-22c0 -108 -74.667 -162 -224 -162c-26 0 -72.333 7.33301 -139 22v174
c28.667 -28.667 62 -43 100 -43c40.667 0 61.334 14.333 62.001 43v15c0 30 -24.667 45 -74 45h-63v137h57c48 0 72 15.667 72 47c-0.666992 23.333 -18.667 35 -54 35zM30.998 918h477v-195h-477v195zM464.998 627v-381h35v-135h-35v-111h-184v111h-242v98l242 418h184z
M222.998 246h58v112z" />
    <glyph glyph-name="oneeighth" unicode="&#x31;&#x2f;&#x38;" horiz-adv-x="538" 
d="M84 1477l0.000976562 161h135c104 0 156 -46.333 156 -139v-489h-203v432c0 30 -15.667 45 -47 45c-10.667 0 -24.334 -3.33301 -41.001 -10zM508.001 723h-477v195h477v-195zM264.001 -6c-144.667 0 -217 50.332 -217 150.999v37c0 83.333 43.667 132 131 146
c-84.667 9.33301 -127 51.666 -127 126.999v26c0 92.667 72.333 139.334 217 140.001c56 0 106.833 -10.667 152.5 -32s68.5 -57.333 68.5 -108v-26c0 -68 -42.333 -110.333 -127 -127c87.333 -18 131.333 -66.667 132 -146v-37c0 -101.333 -72.667 -151.666 -218 -150.999
h-12zM270.501 392.999c17.667 0 26.5 12.333 26.5 37v4c0 22 -8.83301 33 -26.5 33s-26.5 -11 -26.5 -33v-4c0 -24.667 8.83301 -37 26.5 -37zM268.001 140.999c22 0 32.999 17.333 32.999 52v16c0 35.333 -9.66699 53 -29 53h-6c-19.333 0 -28.666 -17.667 -27.999 -53v-16
c-0.666992 -34.667 9.33301 -52 30 -52z" />
    <glyph glyph-name="threeeighths" unicode="&#x33;&#x2f;&#x38;" horiz-adv-x="538" 
d="M193 1491c-49.333 0 -85.001 -15 -107.001 -45v174c58.667 16.667 107.667 25 147 25c146 0 219.333 -50 220 -150v-6c0 -76.667 -45.333 -123.667 -136 -141c91.333 -18 137.333 -67.333 138 -148v-22c0 -108 -74.667 -162 -224 -162c-26 0 -72.333 7.33301 -139 22v174
c28.667 -28.667 62.334 -43 101.001 -43c40.667 0 61 14.333 61 43v15c0 30 -24.667 45 -74 45h-63v137h57c48 0 72 15.667 72 47c0 23.333 -17.667 35 -53 35zM30.999 918h477v-195h-477v195zM361.999 328c87.333 -18 131.333 -66.668 132 -146.001v-37
c0 -101.333 -72.667 -151.666 -218 -150.999h-12c-144.667 0 -217 50.333 -217 151v37c0 83.333 43.667 132 131 146c-84.667 9.33301 -127 51.666 -127 126.999v26c0 92.667 72.333 139.334 217 140.001c56 0 106.833 -10.667 152.5 -32s68.5 -57.333 68.5 -108v-26
c0 -68 -42.333 -110.333 -127 -127zM243.999 433.999v-4c0 -24.667 8.83301 -37 26.5 -37s26.5 12.333 26.5 37v4c0 22 -8.83301 33 -26.5 33s-26.5 -11 -26.5 -33zM300.999 192.999l-0.000976562 16c0 35.333 -9.66699 53 -29 53h-6c-19.333 0 -28.666 -17.667 -27.999 -53
v-16c0 -34 10 -51.333 30 -52c22 0.666992 33 18 33 52z" />
    <glyph glyph-name="fiveeighths" unicode="&#x35;&#x2f;&#x38;" horiz-adv-x="544" 
d="M428 1165c0 -102.667 -73.667 -153.667 -221 -153c-44 0 -85.667 4.66699 -125 14v168c38 -20.667 68 -31 90 -31c34 0 51 18 51 54v10c0 34 -23.667 51 -71 51h-70v360h346v-149h-168v-64c112 -13.333 168 -65 168 -155v-105zM37 918h477v-195h-477v195zM346 328
c87.333 -18 131 -66.668 131 -146.001v-37c0 -101.333 -72.333 -151.666 -217 -150.999h-12c-144.667 0 -217 50.333 -217 151v37c0 83.333 43.667 132 131 146c-84.667 9.33301 -127 51.666 -127 126.999v26c0 92.667 72.333 139.334 217 140.001
c56 0 106.833 -10.667 152.5 -32s68.5 -57.333 68.5 -108v-26c0 -68 -42.333 -110.333 -127 -127zM227 433.999v-4c0 -24.667 9 -37 27 -37s27 12.333 27 37v4c0 22 -9 33 -27 33s-27 -11 -27 -33zM285 192.999v16c0 35.333 -9.66699 53 -29 53h-6
c-19.333 0 -29 -17.667 -29 -53v-16c0 -34 10.333 -51.333 31 -52c22 0.666992 33 18 33 52z" />
    <glyph glyph-name="seveneighths" unicode="&#x37;&#x2f;&#x38;" horiz-adv-x="538" 
d="M131 1079c0 131.333 39.668 262.667 119.001 394h-211v165h461v-77c-92.667 -191.333 -139.334 -353.333 -140.001 -486v-63h-229v67zM31.001 918.001h477v-195h-477v195zM360.001 328.001c87.333 -18 131.333 -66.668 132 -146.001v-37
c0 -101.333 -72.667 -151.666 -218 -150.999h-12c-144.667 0 -217 50.333 -217 151v37c0 83.333 43.667 132 131 146c-84.667 9.33301 -127 51.666 -127 126.999v26c0 92.667 72.333 139.334 217 140.001c56 0 106.833 -10.667 152.5 -32s68.5 -57.333 68.5 -108v-26
c0 -68 -42.333 -110.333 -127 -127zM242.001 434v-4c0 -24.667 8.83301 -37 26.5 -37s26.5 12.333 26.5 37v4c0 22 -8.83301 33 -26.5 33s-26.5 -11 -26.5 -33zM299.001 193l-0.000976562 16c0 35.333 -9.66699 53 -29 53h-6c-19.333 0 -28.666 -17.667 -27.999 -53v-16
c0 -34 10 -51.333 30 -52c22 0.666992 33 18 33 52z" />
    <glyph glyph-name="uni33C7" unicode="Co&#x2e;" horiz-adv-x="1863" 
d="M123 391v854c0 276 140.667 414 422 414c117.333 0 215 -13 293 -39v-313c-61.333 57.333 -138 86 -230 86c-106.667 0 -159.667 -62.333 -159 -187v-774c0 -124 53 -186 159 -186c83.333 0 160 27.333 230 82v-312c-94 -26 -191.667 -39 -293 -39
c-281.333 0 -422 138 -422 414zM975 799v532c0 112 31.333 194.667 94 248s158.834 80 288.501 80s226 -26.667 289 -80s94.5 -136 94.5 -248v-532c0 -104 -31.5 -181.167 -94.5 -231.5s-159.333 -75.5 -289 -75.5s-225.834 25.167 -288.501 75.5s-94 127.5 -94 231.5z
M1292 817c0 -66.667 21.833 -100 65.5 -100s65.5 33.333 65.5 100v516c0 66.667 -21.833 100.167 -65.5 100.5s-65.5 -33.167 -65.5 -100.5v-516zM1337.5 -23c-123 0 -184.5 52.667 -184.5 158s61.5 158 184.5 158s184.5 -52.667 184.5 -158s-61.5 -158 -184.5 -158z" />
    <glyph glyph-name="f_f.liga" unicode="ff" horiz-adv-x="1400" 
d="M1247 1413c-62.667 0 -93.999 -38.333 -93.999 -115v-172h223v-245h-223v-891h-317l2 891h-385v-891h-318l2 891h-117v245h119v201c0 95.333 19.167 171 57.5 227s105.833 84 202.5 84h291v-280c-58.667 36.667 -106.334 55 -143.001 55c-62.667 0 -94 -38.333 -94 -115
v-172h387v201c0 95.333 19 171 57 227s105.667 84 203 84h291v-280c-59.333 36.667 -107.333 55 -144 55z" />
    <glyph glyph-name="f_f_i.liga" unicode="ffi" horiz-adv-x="1873" 
d="M1819 1126l0.000976562 -1126h-318v881h-348v-891h-317l2 891h-385v-891h-318l2 891h-117v245h119v201c0 95.333 19.167 171 57.5 227s105.833 84 202.5 84h291v-280c-58.667 36.667 -106.334 55 -143.001 55c-62.667 0 -94 -38.333 -94 -115v-172h387v201
c0 95.333 22.5 171 67.5 227s109.167 84 192.5 84h581v-350c-105.333 83.333 -244.333 125 -417 125c-74 0 -111 -38.333 -111 -115v-172h666z" />
    <glyph glyph-name="f_i.liga" unicode="fi" horiz-adv-x="1173" 
d="M1118 1126l-0.000976562 -1126h-317v881h-348v-891h-318l2 891h-117v245h119v201c0 95.333 22.5 171 67.5 227s109.167 84 192.5 84h582v-350c-105.333 83.333 -244.666 125 -417.999 125c-74 0 -110.667 -38.333 -110 -115v-172h665z" />
    <glyph glyph-name="f_l.liga" unicode="fl" horiz-adv-x="1300" 
d="M1171 225c30 0 62.999 14.334 98.999 43.001v-268h-248c-84.667 0 -147.5 24.167 -188.5 72.5s-61.5 123.166 -61.5 224.499v1087c-61.333 19.333 -135.666 29 -222.999 29c-64 0 -96 -38.333 -96 -115v-172h192v-245h-192v-891h-314v891h-119v245h119v211
c0 200.667 89 301 267 301h684v-1316c-0.666992 -64.667 26.333 -97 81 -97z" />
    <glyph glyph-name="f_t.liga" unicode="ft" horiz-adv-x="1376" 
d="M1139 881l0.000976562 -495.999v-8c-1.33301 -6.66699 -2 -12.834 -2 -18.501s0.333008 -12.834 1 -21.501s2 -16.834 4 -24.501s5 -15.167 9 -22.5s8.83301 -14.166 14.5 -20.499s13.167 -11.166 22.5 -14.499s20.333 -5 33 -5c30 0 68 17 114 51v-301h-276
c-158.667 0 -238 93.667 -238 281v600h-368v-891h-318l2 891h-117v245h119v201c0 95.333 19.167 171 57.5 227s105.833 84 202.5 84h291v-280c-58.667 36.667 -106.334 55 -143.001 55c-62.667 0 -94 -38.333 -94 -115v-172h368v308h318v-308h196v-245h-196z" />
    <glyph glyph-name="g_j.liga" unicode="gj" horiz-adv-x="1355" 
d="M1128 1262c-121.333 0 -182 57.333 -182 172s60.667 172 182 172c122.667 0 184 -57.333 184 -172s-61.333 -172 -184 -172zM469 90c252.667 0 378.999 -106.998 378.999 -320.998c0 -128.667 -41 -227.5 -123 -296.5s-196 -103.5 -342 -103.5
c-118.667 0 -226 22 -322 66v276c110.667 -61.333 208.334 -92 293.001 -92c56 0 100.167 10.333 132.5 31s48.5 48.667 48.5 84c0 57.333 -47.333 86 -142 86h-59c-195.333 0 -293 73.667 -293 221c0 104 55.333 194 166 270c-91.333 46.667 -137 137 -137 271v254
c0 106.667 29 185.5 87 236.5s147 76.5 267 76.5c34 0 64 -2 90 -6c126.667 109.333 236.667 157 330 143v-268c-42 42 -98 65 -168 69c70.667 -50.667 106 -134.334 106 -251.001v-254c0 -106.667 -29.333 -185.667 -88 -237s-148.667 -77 -270 -77
c-22 0 -38.333 0.666992 -49 2c-49.333 -36.667 -74 -73.334 -74 -110.001c0 -46.667 32.667 -70 98 -70h70zM921.999 -470.998l0.000976562 258c5.33301 -5.33301 12.666 -8 21.999 -8c20.667 0 31 24.667 31 74v1273h319v-1319c0 -186 -99 -278.667 -297 -278h-75z
M360 805.002v-197c0 -38 4.5 -64.167 13.5 -78.5s26.5 -21.5 52.5 -21.5c24.667 0 41.834 7.16699 51.501 21.5s14.5 40.5 14.5 78.5v197c0 39.333 -4.83301 66.5 -14.5 81.5s-26.834 22.5 -51.501 22.5c-26 0 -43.5 -7.5 -52.5 -22.5s-13.5 -42.167 -13.5 -81.5z" />
    <glyph glyph-name="t_t.liga" unicode="tt" horiz-adv-x="1392" 
d="M1155 881l0.000976562 -495.998v-8c-1.33301 -6.66699 -2 -12.834 -2 -18.501s0.333008 -12.834 1 -21.501s2 -16.834 4 -24.501s5.16699 -15.167 9.5 -22.5s9.16602 -14.166 14.499 -20.499s12.833 -11.166 22.5 -14.499s20.5 -5 32.5 -5c30 0 68.333 17 115 51v-301
h-277c-158.667 0 -237.667 93.667 -237 281v600h-379v-496v-8c-1.33301 -6.66699 -2 -12.834 -2 -18.501s0.333008 -12.834 1 -21.501s2 -16.834 4 -24.501s5 -15.167 9 -22.5s8.83301 -14.166 14.5 -20.499s13.167 -11.166 22.5 -14.499s20.333 -5 33 -5c30 0 68 17 114 51
v-301h-276c-158.667 0 -238 93.667 -238 281v600h-110v245h110v308h318v-308h379v308h317v-308h197v-245h-197z" />
    <glyph glyph-name="w_w_w.liga" unicode="www" horiz-adv-x="3239" 
d="M215 0l-209.001 1126h295l47 -370l20.5 -152.5l17.5 -132.5c3.33301 -26 6.33301 -58.833 9 -98.5s4 -79.167 4 -118.5h25c10.667 121.333 26.334 257.333 47.001 408l66 464h229l70 -464c23.333 -154 39.666 -290 48.999 -408h22c0 122.667 10.333 290 31 502l37 370
h323l39 -370c22 -214.667 33 -382 33 -502h25c12 139.333 27.667 275.333 47 408l65 464h230l69 -464c23.333 -155.333 39.666 -291.333 48.999 -408h23c0 122.667 10.333 290 31 502l37 370h323l39 -370c22 -214.667 33 -382 33 -502h24
c15.333 157.333 31.333 293.333 48 408l65 464h229l70 -464c23.333 -154 39.666 -290 49 -408h23c0 52 2 96 6 132s11.5 87.833 22.5 155.5s20.5 139.167 28.5 214.5l43 370h285l-209 -1126h-336l-47 336c-12 90 -20.833 167.833 -26.5 233.5s-9.16699 127.167 -10.5 184.5
s-2.66602 99.666 -4 126.999h-18c0 -1.33301 -2.83301 -61.166 -8.5 -179.499s-17.167 -239.5 -34.5 -363.5l-48 -338h-294l-93 823l-92 -823h-295l-47 336c-12 90 -20.833 167.833 -26.5 233.5s-9.16699 127.167 -10.5 184.5s-2.66602 99.666 -3.99902 126.999h-18
c0 -1.33301 -2.83301 -61.166 -8.5 -179.499s-17.167 -239.5 -34.5 -363.5l-47 -338h-295l-92 823l-93 -823h-294l-48 336c-12 90 -20.667 167.833 -26 233.5s-8.66602 127.167 -9.99902 184.5s-3 99.666 -5 126.999h-18c0 -1.33301 -2.66699 -61.166 -8 -179.499
s-17 -239.5 -35 -363.5l-47 -338h-336z" />
    <glyph glyph-name="hyphen_hyphen_greater.liga" unicode="&#x2d;&#x2d;&#x3e;" horiz-adv-x="1843" 
d="M1317 1114l434 -436l-434 -438l-332 2l322 319l-383 -12h-811v254h809l389 -15l-326 326h332z" />
    <glyph glyph-name="less_hyphen_hyphen.liga" unicode="&#x3c;&#x2d;&#x2d;" horiz-adv-x="1843" 
d="M922 803h809v-254h-811l-383 12l321 -319l-332 -2l-434 438l434 436h332l-326 -326z" />
    <glyph glyph-name=".notdef" horiz-adv-x="964" 
 />
    <glyph glyph-name="space" unicode=" " horiz-adv-x="645" 
 />
    <glyph glyph-name="exclam" unicode="!" horiz-adv-x="471" 
d="M139 532c-6.66699 92.667 -17.833 224.164 -33.5 394.497s-27 307 -34 410s-11.167 203.5 -12.5 301.5h357c-1.33301 -75.333 -4.83301 -160.666 -10.5 -255.999s-11.5 -179.166 -17.5 -251.499s-14.833 -171.666 -26.5 -297.999s-20.167 -226.5 -25.5 -300.5h-197z
M235.501 -0.00292969c-123 0 -184.5 52.5 -184.5 157.5s61.5 157.5 184.5 157.5s184.5 -52.5 184.5 -157.5s-61.5 -157.5 -184.5 -157.5z" />
    <glyph glyph-name="quotedbl" unicode="&#x22;" horiz-adv-x="698" 
d="M51 1638h281l-27 -520h-227zM367 1638h280l-26 -520h-228z" />
    <glyph glyph-name="numbersign" unicode="#" horiz-adv-x="1181" 
d="M1110 950h-201l-28 -467h176v-202h-191l-18 -281h-236l19 281h-135l-19 -281h-235l18 281h-188v202h200l29 467h-176v203h188l19 281h237l-18 -281h135l19 281h237l-18 -281h186v-203zM643 483l31 467h-135l-31 -467h135z" />
    <glyph glyph-name="dollar" unicode="$" horiz-adv-x="983" 
d="M629 948c158.667 -152.667 237.666 -320 236.999 -502v-51c0 -216 -88.667 -343 -266 -381l12 -202h-239l10 192c-78 8 -161.333 30.667 -250 68v290c116 -74 212.333 -110.667 289 -110c88.667 0 133 54 133 162c0 90 -65 199.667 -195 329
c-95.333 94 -159.666 178 -192.999 252s-50 147 -50 219v33c0 218.667 89.333 345.667 268 381l-12 199h239l-10 -195c69.333 -9.33301 148 -31 236 -65v-310c-138 86 -240 129 -306 129c-68 0 -102 -43.667 -102 -131c0 -76 66.333 -178.333 199 -307z" />
    <glyph glyph-name="percent" unicode="%" horiz-adv-x="1159" 
d="M31 1155v293c0 126.667 66 190 198 190c139.333 0 209 -63.333 209 -190v-293c0 -128.667 -70.333 -192.667 -211 -192c-130.667 -0.666992 -196 63.333 -196 192zM664 1638h268l-447 -1638h-268zM219 1204c0 -35.333 4.66602 -53 13.999 -53
c10.667 0 16.334 17.667 17.001 53v189c0 38 -5.66699 57 -17 57c-9.33301 0 -14 -19 -14 -57v-189zM720.999 193v291.999c0 126.667 67 190.334 201 191.001c138 0 206.667 -63.667 206 -191v-292c0 -128.667 -70 -193 -210 -193c-131.333 -0 -197 64.333 -197 193z
M908.999 241.999c0 -35.333 5 -53.333 15 -54c10.667 0 16 18 16 54v188c0 38 -5.33301 57 -16 57c-9.33301 0 -14.333 -19 -15 -57v-188z" />
    <glyph glyph-name="ampersand" unicode="&#x26;" horiz-adv-x="1091" 
d="M1194 0l-379 0.000976562l-45 78c-78 -52 -170.667 -78 -278 -78h-41c-142 0 -247.5 36.167 -316.5 108.5s-103.5 182.833 -103.5 331.5v68c0 172 83.333 304.333 250 397l-136 219c-20.667 32.667 -30.667 88 -30 166v15c0 112 28.667 194.5 86 247.5
s145.333 79.5 264 79.5h72c112 0 194.5 -28.333 247.5 -85s79.5 -144.334 79.5 -263.001v-14c0 -184 -73 -321.333 -219 -412l115 -178v74v67h303v-71c0 -151.333 -28.667 -288 -86 -410zM436 1266v-13.001c0 -15.333 13.667 -52.666 41 -111.999l55 -123c4 0 7.5 3 10.5 9
s5.16699 17.167 6.5 33.5s2 31.333 2 45s-0.333008 35.167 -1 64.5s-1 53 -1 71v2c0 95.333 -21.333 143 -64 143c-32.667 0.666992 -49 -39.333 -49 -120zM485 252c60 0 110.667 17.667 152 53l-260 449c-19.333 0 -29 -59.667 -29 -179v-16v-100
c0 -138 45.667 -207 137 -207z" />
    <glyph glyph-name="quotesingle" unicode="'" horiz-adv-x="382" 
d="M51 1638h281l-27 -520h-227z" />
    <glyph glyph-name="parenleft" unicode="(" horiz-adv-x="509" 
d="M487 1534c-60 0 -89.999 -105.666 -89.999 -316.999v-1319c0 -230.667 29.333 -346.334 88 -347.001v-110c-126.667 0 -220.334 35.5 -281.001 106.5s-91 180.167 -91 327.5v1364c0 146 30.667 254.167 92 324.5s155.333 105.5 282 105.5v-135z" />
    <glyph glyph-name="parenright" unicode=")" horiz-adv-x="509" 
d="M23 1534l0.000976562 135c126.667 0 220.667 -35.167 282 -105.5s92 -178.5 92 -324.5v-1364c0 -147.333 -30.333 -256.5 -91 -327.5s-154.334 -106.5 -281.001 -106.5v110c58.667 0 88 115.667 88 347v1319c0 211.333 -30 317 -90 317z" />
    <glyph glyph-name="asterisk" unicode="*" horiz-adv-x="518" 
d="M500 1272l-174 18l184 -196l-74 -99l-145 217l14 -194l-86 -2l17 211l-144 -232l-82 99l195 196l-176 -24v118l166 -14l-187 186l84 99l139 -215l-14 194h90l-18 -213l145 228l76 -93l-184 -186l174 19v-117z" />
    <glyph glyph-name="plus" unicode="+" horiz-adv-x="856" 
d="M764 948v-256h-203v-231h-266v231h-203v256h203v234h266v-234h203z" />
    <glyph glyph-name="comma" unicode="," horiz-adv-x="497" 
d="M446 164v-5.99902c0 -19.333 -2 -37.333 -6 -54c-16.667 -86 -61 -170.667 -133 -254c-50.667 -60 -106 -105.667 -166 -137l-145 160c74 30 138.667 68.333 194 115c4 2.66699 10.333 8 19 16c-88.667 12 -133 63.333 -133 154c0 105.333 61.333 157.666 184 156.999
c118.667 0 180.667 -47.667 186 -143v-8z" />
    <glyph glyph-name="hyphen" unicode="-" horiz-adv-x="643" 
d="M571 805v-256h-499v256h499z" />
    <glyph glyph-name="period" unicode="." horiz-adv-x="471" 
d="M235.5 0c-123 0 -184.5 52.5 -184.5 157.5s61.5 157.5 184.5 157.5s184.5 -52.5 184.5 -157.5s-61.5 -157.5 -184.5 -157.5z" />
    <glyph glyph-name="slash" unicode="/" horiz-adv-x="806" 
d="M786 1741l-487 -1843h-279l486 1843h280z" />
    <glyph glyph-name="zero" unicode="0" horiz-adv-x="1032" 
d="M514 1659c131.333 0 228.333 -32.168 291 -96.501s94 -163.166 94 -296.499v-893c0 -134 -31.333 -233 -94 -297s-159.667 -96 -291 -96c-130 0 -226 32 -288 96s-93 163 -93 297v893c0 134 31 233 93 297s158 96 288 96zM516 1413c-24.667 0 -41 -10.5 -49 -31.5
s-12 -65.833 -12 -134.5v-356l123 305v51c0 68 -4.16699 112.667 -12.5 134s-24.833 32 -49.5 32zM516 224.999c24.667 0 41.167 10.667 49.5 32s12.5 64.666 12.5 129.999v356l-123 -305v-51c0 -65.333 4 -108.666 12 -129.999s24.333 -32 49 -32z" />
    <glyph glyph-name="one" unicode="1" horiz-adv-x="688" 
d="M510 260h168v-260h-658v260h168v1020c0 75.333 -23 113 -69 113c-26 0 -46.667 -7 -62 -21v266h205c157.333 0 240 -90 248 -270v-1108z" />
    <glyph glyph-name="two" unicode="2" horiz-adv-x="917" 
d="M795 1120c0 -272 -102.001 -558.667 -306.001 -860h291v-260h-719v154c276 368.667 414 690 414 964c0 187.333 -52.667 281 -158 281c-64 0 -141.667 -30 -233 -90v286c94 42 193 63.333 297 64c140.667 0 244.834 -44.167 312.501 -132.5s101.5 -223.833 101.5 -406.5z
" />
    <glyph glyph-name="three" unicode="3" horiz-adv-x="884" 
d="M483 868c178.667 -44 268.336 -169.33 269.003 -375.997v-117c0 -134 -36.167 -233.333 -108.5 -298s-183.833 -97 -334.5 -97c-40.667 0 -116.334 6.66699 -227.001 20v287c61.333 -40.667 127 -61.334 197 -62.001c101.333 0 151.666 71 150.999 213v103
c0 135.333 -56 202.666 -168 201.999h-133v246h119c112 0 168 66.333 168 199c0 150 -51.333 225 -154 225c-60 0 -120 -20.333 -180 -61v286c96.667 13.333 167 20.333 211 21c151.333 0 263.166 -32.5 335.499 -97.5s108.5 -165.5 108.5 -301.5v-15
c0 -204.667 -84.667 -330.334 -254 -377.001z" />
    <glyph glyph-name="four" unicode="4" horiz-adv-x="919" 
d="M848 608v-246h-49v-362h-312v362h-456v179l456 1097h312v-1030h49zM336 608h151v418z" />
    <glyph glyph-name="five" unicode="5" horiz-adv-x="956" 
d="M817 1348l-337.999 -0.000976562v-328c225.333 -23.333 338 -151.666 338 -384.999v-250c0 -122.667 -34.5 -217.5 -103.5 -284.5s-184.5 -100.5 -346.5 -100.5c-44 0 -125.333 6 -244 18v314c75.333 -39.333 156.666 -59.333 243.999 -60c86 0 129 59.667 129 179v112
c0 125.333 -34.333 188.333 -103 189h-233v886h657v-290z" />
    <glyph glyph-name="six" unicode="6" horiz-adv-x="980" 
d="M528 1004c140.667 0 244.5 -35.1689 311.5 -105.502s100.5 -178.833 100.5 -325.5v-149c0 -151.333 -34.833 -263.166 -104.5 -335.499s-177.5 -108.5 -323.5 -108.5s-254.167 41.5 -324.5 124.5s-105.5 212.167 -105.5 387.5c0 382 139.333 764 418 1146h379
c-177.333 -221.333 -304.333 -432.666 -381 -633.999h30zM621 441.998v113c0 135.333 -31 203 -93 203h-100c-16.667 -87.333 -25 -175.333 -25 -264c0 -168 35.667 -252 107 -252c74 -0.666992 111 66 111 200z" />
    <glyph glyph-name="seven" unicode="7" horiz-adv-x="854" 
d="M31 1638h813.002v-131c-122.667 -281.333 -206.334 -524.333 -251.001 -729s-68.334 -410 -71.001 -616l-2 -160h-317v176c0 382 93.333 782 280 1200h-452v260z" />
    <glyph glyph-name="eight" unicode="8" horiz-adv-x="1038" 
d="M520 -20c-144.667 0 -252.166 31.667 -322.499 95s-105.5 161.333 -105.5 294v88c0 243.333 90 388 270 434c-160 48 -239.667 166.667 -239 356v15c0 135.333 32.333 235.333 97 300s164.667 97 300 97c134 0 233.333 -32.5 298 -97.5s97 -164.833 97 -299.5v-15
c0 -190 -79.667 -308.667 -239 -356c180 -48 270 -192.667 270 -434v-88c0 -132.667 -34.833 -230.667 -104.5 -294s-176.834 -95 -321.501 -95zM520.001 1014c49.333 0 74 62.667 74 188c0 136.667 -24.667 205 -74 205c-50.667 0 -76 -68.333 -76 -205
c0 -125.333 25.333 -188 76 -188zM520.001 231c69.333 0 104.333 65.666 105 196.999v104c0 152.667 -33 229.334 -99 230.001h-14c-65.333 0 -98 -76.667 -98 -230v-104c0 -131.333 35.333 -197 106 -197z" />
    <glyph glyph-name="nine" unicode="9" horiz-adv-x="991" 
d="M510 1659c146 0 254.167 -42 324.5 -126s105.5 -212.667 105.5 -386c0 -382 -139.333 -764.333 -418 -1147h-379c176 217.333 303 429 381 635h-28c-134 0 -236.5 33.5 -307.5 100.5s-106.5 176.833 -106.5 329.5v149c0 143.333 33.5 253.333 100.5 330
s176.167 115 327.5 115zM494 881h102c16.667 87.333 25 175.333 25 264c0 169.333 -35.667 254 -107 254c-74 0 -111 -67.667 -111 -203v-113c0.666992 -134.667 31 -202 91 -202z" />
    <glyph glyph-name="colon" unicode=":" horiz-adv-x="471" 
d="M235.5 872c-123 0 -184.5 52.667 -184.5 158s61.5 158 184.5 158s184.5 -52.667 184.5 -158s-61.5 -158 -184.5 -158zM235.5 61c-123 0 -184.5 52.667 -184.5 158s61.5 158 184.5 158s184.5 -52.667 184.5 -158s-61.5 -158 -184.5 -158z" />
    <glyph glyph-name="semicolon" unicode=";" horiz-adv-x="497" 
d="M262 872c-122.667 0 -184 52.667 -184 158s61.333 158 184 158s184 -52.667 184 -158s-61.333 -158 -184 -158zM446 172l0.000976562 -8v-6c0 -20.667 -2 -38.667 -6 -54c-18 -88.667 -65 -176.667 -141 -264c-46.667 -53.333 -99.334 -95.666 -158.001 -126.999
l-145 160c74 30 138.667 68.333 194 115c4 2.66699 10.333 8 19 16c-88.667 12 -133 63.333 -133 154c0 105.333 61.333 157.666 184 156.999c118.667 0 180.667 -47.667 186 -143z" />
    <glyph glyph-name="less" unicode="&#x3c;" horiz-adv-x="684" 
d="M633 223l-592 325.998v348l592 315v-280l-193 -103c-125.333 -66.667 -202.333 -102 -231 -106v-10c13.333 -1.33301 27.5 -5.16602 42.5 -11.499s29.333 -13.166 43 -20.499l63.5 -34.5l82 -44.5l193 -98v-281z" />
    <glyph glyph-name="equal" unicode="=" horiz-adv-x="829" 
d="M717 1141v-236h-604v236h604zM717 735v-235h-604v235h604z" />
    <glyph glyph-name="greater" unicode="&#x3e;" horiz-adv-x="684" 
d="M41 223v281.002l192 98l82 44l63.5 35c13.667 7.33301 28 14.166 43 20.499s29.5 10.166 43.5 11.499v10c-28.667 4 -106 39.333 -232 106l-192 103v280l592 -315v-348z" />
    <glyph glyph-name="question" unicode="?" horiz-adv-x="817" 
d="M360 1663c124 0 215.832 -30.333 275.499 -91s89.5 -154 89.5 -280v-14c0 -174.667 -82 -340 -246 -496v-280h-291v315c147.333 126.667 221.333 268 222 424c0 113.333 -46 170 -138 170c-65.333 0 -128.666 -17.667 -189.999 -53v250c99.333 36.667 192 55 278 55z
M333.999 315c122.667 0 184 -52.5 184 -157.5s-61.333 -157.5 -184 -157.5s-184 52.5 -184 157.5s61.333 157.5 184 157.5z" />
    <glyph glyph-name="at" unicode="@" horiz-adv-x="1300" 
d="M649.5 1300c189.667 0 330.168 -31.667 421.501 -95s137 -161.333 137 -294v-374c0 -113.333 -24.5 -197.333 -73.5 -252s-125.5 -82 -229.5 -82l-225 84v-4c-52 -56 -99 -84 -141 -84c-96.667 0 -145.334 57.333 -146.001 172v354c0 113.333 48.667 170 146 170
c49.333 0 92.333 -22.667 129 -68v56h237v-488c79.333 20.667 119 61.667 119 123v377c0 88.667 -30.333 154.5 -91 197.5s-154.667 64.5 -282 64.5c-250 0 -375 -87.333 -375 -262v-662c0 -176 110 -264 330 -264c74 0 128.667 11 164 33v-176h-166
c-173.333 0 -302 31.667 -386 95s-126 161.333 -126 294v696c0 132.667 45.5 230.667 136.5 294s231.333 95 421 95zM643.001 383c6.66699 0 14.333 4.66699 23 14l2 301c-8 8 -16.333 12.333 -25 13c-22 0 -33 -28 -33 -84v-166c0 -52 11 -78 33 -78z" />
    <glyph glyph-name="A" unicode="A" horiz-adv-x="1058" 
d="M2 0l352 1638h351l352 -1638h-338l-49 340h-283l-49 -340h-336zM424 586h209l-64 428c-9.33301 54.667 -18 129.667 -26 225h-27c-2.66699 -28.667 -13 -103.667 -31 -225z" />
    <glyph glyph-name="B" unicode="B" horiz-adv-x="995" 
d="M102 0l0.000976562 1638h383c155.333 0 270.666 -30 345.999 -90s113 -152.667 113 -278v-76c0 -194 -82 -311.333 -246 -352c154 -46.667 231.333 -168.334 232 -365.001v-88c0 -132.667 -38.667 -230.667 -116 -294s-196.333 -95 -357 -95h-355zM424.001 969.001
h37.001c105.333 0 157.666 65.333 156.999 196v19c0 125.333 -52.333 188 -157 188h-37v-403zM424.002 266.001h8c114.667 0 172 63 172 189v71c0 131.333 -57.333 197 -172 197h-8v-457z" />
    <glyph glyph-name="C" unicode="C" horiz-adv-x="878" 
d="M102 391v854c0 276 140.667 414 422 414c117.333 0 215 -13 293 -39v-313c-61.333 57.333 -137.666 86 -228.999 86c-106.667 0 -160 -62.333 -160 -187v-774c0 -124 53.333 -186 160 -186c83.333 0 159.666 27.333 228.999 82v-312c-94 -26 -191.667 -39 -293 -39
c-281.333 0 -422 138 -422 414z" />
    <glyph glyph-name="D" unicode="D" horiz-adv-x="1054" 
d="M102 0v1638h433c142 0 247 -33.667 315 -101s102 -171.333 102 -312v-807c0 -142 -34.5 -247.167 -103.5 -315.5s-174.5 -102.5 -316.5 -102.5h-430zM428 266h109c60 0 90 58 90 174v725c0 116 -30 174 -90 174h-109v-1073z" />
    <glyph glyph-name="E" unicode="E" horiz-adv-x="903" 
d="M580 1372c-57.333 0 -97 -15.3311 -119 -45.998s-33 -86.334 -33 -167.001v-207h330v-266h-330v-246c0 -66.667 11 -112.334 33 -137.001s61.667 -37 119 -37h241v-266h-301c-142 0 -247.167 34.167 -315.5 102.5s-102.5 173.5 -102.5 315.5v807
c0 140.667 34.167 244.667 102.5 312s173.5 101 315.5 101h301v-266h-241z" />
    <glyph glyph-name="F" unicode="F" horiz-adv-x="829" 
d="M102 0v1253c0 131.333 34.167 228.333 102.5 291s173.5 94 315.5 94h303v-272h-264c-87.333 0 -131 -55.333 -131 -166v-211h342v-266h-342v-723h-326z" />
    <glyph glyph-name="G" unicode="G" horiz-adv-x="1036" 
d="M102 373v871.999c0 140.667 35.167 244.834 105.5 312.501s177.833 101.5 322.5 101.5c134 0 262.333 -32 385 -96v-310c-121.333 91.333 -240 137.333 -356 138c-46.667 0 -80.167 -13.333 -100.5 -40s-30.5 -70.667 -30.5 -132v-799
c0 -66.667 6.5 -112.334 19.5 -137.001s36.5 -37 70.5 -37c36.667 0 60.834 13.333 72.501 40s17.5 71.334 17.5 134.001l-2 280h-92v267h418l2 -594c0 -134 -34.167 -233 -102.5 -297s-173.5 -96 -315.5 -96c-140.667 0 -244.834 32 -312.501 96s-101.5 163 -101.5 297z
" />
    <glyph glyph-name="H" unicode="H" horiz-adv-x="1062" 
d="M102 0v1638h326v-686h209v686h324v-1638h-324v686h-209v-686h-326z" />
    <glyph glyph-name="I" unicode="I" horiz-adv-x="763" 
d="M61 0v266h158v1106h-158v266h641v-266h-157v-1106h157v-266h-641z" />
    <glyph glyph-name="J" unicode="J" horiz-adv-x="741" 
d="M31 299c52 -35.333 95.668 -53 131.001 -53c102.667 0 153.667 64 153 192v1200h324v-1218c0 -142 -39.333 -247.5 -118 -316.5s-198.334 -103.5 -359.001 -103.5h-131v299z" />
    <glyph glyph-name="K" unicode="K" horiz-adv-x="1007" 
d="M102 0v1638h326v-686l25 21c31.333 26 55.833 53.333 73.5 82s34.334 82.5 50.001 161.5s23.5 181.5 23.5 307.5v114h326v-153c0 -259.333 -68.333 -456.666 -205 -591.999c136.667 0 205 -88 205 -264v-629h-326v565c0 94 -24.667 141.333 -74 142
c-28.667 0 -61.334 -22 -98.001 -66v-641h-326z" />
    <glyph glyph-name="L" unicode="L" horiz-adv-x="811" 
d="M102 0v1638h326v-1372h352v-266h-678z" />
    <glyph glyph-name="M" unicode="M" horiz-adv-x="1308" 
d="M102 0l0.000976562 1638h453l35 -258c19.333 -142 37 -355 53 -639h23c9.33301 151.333 30.333 364.333 63 639l31 258h446v-1638h-319v571c0 244.667 10.333 492 31 742h-27c-15.333 -104 -27.333 -193.167 -36 -267.5s-14.834 -135 -18.501 -182
s-5.5 -71.167 -5.5 -72.5l-59 -584h-229l-72 581c-4 34 -11.167 107.5 -21.5 220.5s-20.833 214.5 -31.5 304.5h-27c22 -392 33 -639.333 33 -742v-571h-322z" />
    <glyph glyph-name="N" unicode="N" horiz-adv-x="1062" 
d="M102 0v1638h326l209 -333v333h324v-1638h-324v831l-209 334v-1165h-326z" />
    <glyph glyph-name="O" unicode="O" horiz-adv-x="1036" 
d="M516 -20c-140.667 0 -244.834 34 -312.501 102s-101.5 173 -101.5 315v848c0 140.667 33.833 244.834 101.5 312.501s171.834 101.5 312.501 101.5c142 0 247.167 -33.833 315.5 -101.5s102.5 -171.834 102.5 -312.501v-848c0 -142 -34.167 -247 -102.5 -315
s-173.5 -102 -315.5 -102zM518 246c32.667 0 55.834 11.5 69.501 34.5s20.5 62.5 20.5 118.5v840c0 56 -6.83301 95.667 -20.5 119s-36.834 35 -69.501 35s-55.834 -11.667 -69.501 -35s-20.5 -63 -20.5 -119v-840c0 -56 6.83301 -95.5 20.5 -118.5
s36.834 -34.5 69.501 -34.5z" />
    <glyph glyph-name="P" unicode="P" horiz-adv-x="991" 
d="M102 0v1638h408c154 0 267.667 -29 341 -87s110 -147 110 -267v-227c0 -120 -37 -209.167 -111 -267.5s-188 -87.5 -342 -87.5h-80v-702h-326zM428 969h55c101.333 0 152 58 152 174v51c0 118.667 -50.667 178 -152 178h-55v-403z" />
    <glyph glyph-name="Q" unicode="Q" horiz-adv-x="1036" 
d="M516 1659c142 0 247.166 -33.835 315.499 -101.502s102.5 -171.834 102.5 -312.501v-848c0 -130 -27.667 -228.667 -83 -296s-141 -106.333 -257 -117c9.33301 -95.333 44 -143.333 104 -144c42 0 86.333 13.667 133 41v-276h-120c-169.333 0 -256 125.667 -260 377
c-117.333 10.667 -204.833 49.834 -262.5 117.501s-86.5 166.834 -86.5 297.501v848c0 140.667 33.833 244.834 101.5 312.501s171.834 101.5 312.501 101.5zM607.999 419.998v799c0 116 -30 174 -90 174s-90 -58 -90 -174v-799c0 -116 30 -174 90 -174s90 58 90 174z" />
    <glyph glyph-name="R" unicode="R" horiz-adv-x="1028" 
d="M967 1167c0 -173.333 -84 -280.333 -252 -321c147.333 -4 221 -92 221 -264v-582h-326v594c0 76.667 -31.333 115 -94 115h-86v-709h-328v1638h426c148.667 0 259 -27.5 331 -82.5s108 -140.833 108 -257.5v-131zM487 1372h-57v-403h57c102.667 0 154 62.667 154 188v23
c0 128 -51.333 192 -154 192z" />
    <glyph glyph-name="S" unicode="S" horiz-adv-x="933" 
d="M395 -20c-118.667 0 -232 20.332 -340 60.999v287c106.667 -61.333 201 -92 283 -92c78 0 135.333 15 172 45s55 77.667 55 143c0 56 -14.667 104.5 -44 145.5s-87.666 94.167 -174.999 159.5c-194 143.333 -291 297 -291 461v31c0 140.667 42 248.834 126 324.501
s203.333 113.5 358 113.5c106.667 0 213 -17 319 -51v-308c-110.667 68 -204 102.333 -280 103c-139.333 0 -209 -60.667 -209 -182c0 -52 16.667 -99.167 50 -141.5s100.666 -100.5 201.999 -174.5c172 -125.333 258 -274 258 -446v-45
c0 -139.333 -42.167 -246.5 -126.5 -321.5s-203.5 -112.5 -357.5 -112.5z" />
    <glyph glyph-name="T" unicode="T" horiz-adv-x="856" 
d="M846 1638v-266h-254v-1372h-326v1372h-256v266h836z" />
    <glyph glyph-name="U" unicode="U" horiz-adv-x="1036" 
d="M516 -20c-140.667 0 -244.835 34 -312.502 102s-101.5 173 -101.5 315v1241h326v-1218c0 -62.667 6.83301 -107.334 20.5 -134.001s36.834 -40 69.501 -40s55.834 13.333 69.501 40s20.5 71.334 20.5 134.001v1218h326v-1241c0 -142 -34.167 -247 -102.5 -315
s-173.5 -102 -315.5 -102z" />
    <glyph glyph-name="V" unicode="V" horiz-adv-x="1067" 
d="M358 0l-352 1638h336l115 -794c39.333 -273.333 60.333 -421.666 63 -444.999h27c8 86 27.667 234.333 59 445l117 794h338l-352 -1638h-351z" />
    <glyph glyph-name="W" unicode="W" horiz-adv-x="1368" 
d="M102 332v1306h324v-1271c0 -79.333 17 -119 51 -119c31.333 0 47 38 47 114v1076h318v-1076c0 -76.667 15.667 -114.667 47 -114c34 0 51 39.667 51 119v1271h326v-1306c0 -120 -27.667 -208.667 -83 -266s-140.333 -86 -255 -86c-125.333 0 -207.333 53.667 -246 161
c-35.333 -108 -116 -161.667 -242 -161c-114.667 0 -199.667 28.667 -255 86s-83 146 -83 266z" />
    <glyph glyph-name="X" unicode="X" horiz-adv-x="1058" 
d="M2 0l364.998 813.002l-353 825h359l88 -241c23.333 -62.667 42.333 -144 57 -244h27c19.333 104 38.333 181 57 231l98 254h357l-363 -813l350 -825h-360l-66 209l-22 69c-9.33301 29.333 -16.5 51.166 -21.5 65.499s-10.167 31.666 -15.5 51.999
s-9.66602 39.333 -12.999 57s-5.66602 35.5 -6.99902 53.5h-27c-5.33301 -58.667 -31.333 -155 -78 -289l-76 -217h-356z" />
    <glyph glyph-name="Y" unicode="Y" horiz-adv-x="1052" 
d="M1042 1638l-350 -1087v-551h-332v557l-350 1081h334l82 -313c52 -203.333 80 -339 84 -407h33c12 104 41.333 240.333 88 409l84 311h327z" />
    <glyph glyph-name="Z" unicode="Z" horiz-adv-x="792" 
d="M6 0v227l432 1145h-405v266h753v-225l-428 -1145h428v-268h-780z" />
    <glyph glyph-name="bracketleft" unicode="[" horiz-adv-x="575" 
d="M567 1434h-188v-1747h188v-246h-434v2238h434v-245z" />
    <glyph glyph-name="backslash" unicode="\" horiz-adv-x="636" 
d="M356 -102l-356 1843h279l358 -1843h-281z" />
    <glyph glyph-name="bracketright" unicode="]" horiz-adv-x="575" 
d="M442 1679v-2238h-434v246h189v1747h-189v245h434z" />
    <glyph glyph-name="asciicircum" unicode="^" horiz-adv-x="659" 
d="M51 1112l162 526h238l157 -526h-186l-51 164c-18 57.333 -29.667 112 -35 164h-4c-1.33301 -26 -14.333 -80 -39 -162l-49 -166h-193z" />
    <glyph glyph-name="underscore" unicode="_" horiz-adv-x="663" 
d="M655 0v-236h-647v236h647z" />
    <glyph glyph-name="grave" unicode="`" horiz-adv-x="1228" 
d="M283 1182l-217 252h272l135 -252h-190z" />
    <glyph glyph-name="a" unicode="a" horiz-adv-x="874" 
d="M446 1149c237.333 0 356.334 -116 357.001 -348v-801h-318v113c-72.667 -88.667 -152.334 -133 -239.001 -133c-143.333 0 -215 112.333 -215 337c0 236 80.333 354.333 241 355c74 0 145 -26 213 -78v188c0 94 -41 141.333 -123 142c-68 0 -149 -34.333 -243 -103v279
c132 32.667 241 49 327 49zM416.001 217c26 0 49.001 13.667 69.001 41v178c-28.667 20.667 -50.334 31 -65.001 31c-48 0 -72 -43 -72 -129c0 -80.667 22.667 -121 68 -121z" />
    <glyph glyph-name="b" unicode="b" 
d="M627 1147c140.667 0 211 -82 211 -246v-676c0 -164 -70.333 -245.667 -211 -245c-83.333 0 -162.666 39.333 -237.999 118v-98h-317v1638h317v-610c75.333 79.333 154.666 119 237.999 119zM520 289l0.000976562 549c0 56 -21 84 -63 84c-18 0 -40.667 -11 -68 -33v-649
c31.333 -23.333 54.666 -35 69.999 -35c40.667 0 61 28 61 84z" />
    <glyph glyph-name="c" unicode="c" horiz-adv-x="677" 
d="M72 291l0.000976562 545.001c0 26 0.666992 48.167 2 66.5s8.16602 44.166 20.499 77.499s29.333 60.666 51 81.999s55.667 40.5 102 57.5s101.833 25.5 166.5 25.5c83.333 0 159.666 -13.667 228.999 -41v-248c-69.333 40.667 -126 61.334 -170 62.001
c-56 0 -84 -30.333 -84 -91v-520c0 -68 29.333 -102 88 -102c42 0 97.333 20.333 166 61v-248c-69.333 -27.333 -145.666 -41 -228.999 -41c-64 0 -119.333 8.66699 -166 26s-80.834 36.833 -102.501 58.5s-38.667 49.667 -51 84s-19.166 60.333 -20.499 78
s-2 40.167 -2 67.5z" />
    <glyph glyph-name="d" unicode="d" 
d="M520 1638l318 -0.000976562v-1638h-318v98c-75.333 -79.333 -154.333 -118.666 -237 -117.999c-140.667 0 -211 81.667 -211 245v676c0 164 70.333 246 211 246c83.333 0 162.333 -39.667 237 -119v610zM451 204.999c15.333 0 38.3311 11.667 68.998 35v649
c-27.333 22 -49.666 33 -66.999 33c-42 0 -63.333 -28 -64 -84v-549c0.666992 -56 21.334 -84 62.001 -84z" />
    <glyph glyph-name="e" unicode="e" 
d="M838 446h-449v-170c0 -48 36.333 -71.667 109 -71c79.333 0 185.666 30 318.999 90v-268c-100 -31.333 -211.333 -47 -334 -47c-78 0 -144.5 8.16699 -199.5 24.5s-95.833 35 -122.5 56s-47.167 48.333 -61.5 82s-22.5 59.667 -24.5 78s-3 41.833 -3 70.5v545
c0 18 0.333008 32.333 1 43s3.33398 28 8.00098 52s11.5 44.5 20.5 61.5s23.333 35.667 43 56s42.834 37.333 69.501 51s61.167 25 103.5 34s90.166 13.5 143.499 13.5c128.667 0 223.667 -25.667 285 -77s92 -129.333 92 -234v-390zM459 922
c-46.667 0 -70 -33.667 -70 -101v-180h131v180c0 67.333 -20.333 101 -61 101z" />
    <glyph glyph-name="f" unicode="f" horiz-adv-x="700" 
d="M547 1413c-62.667 0 -93.999 -38.333 -93.999 -115v-172h223v-245h-223v-891h-318l2 891h-117v245h119v201c0 95.333 19.167 171 57.5 227s105.833 84 202.5 84h291v-280c-58.667 36.667 -106.334 55 -143.001 55z" />
    <glyph glyph-name="g" unicode="g" horiz-adv-x="878" 
d="M469 90c252.667 0 378.999 -106.998 378.999 -320.998c0 -128.667 -41 -227.5 -123 -296.5s-196 -103.5 -342 -103.5c-118.667 0 -226 22 -322 66v276c110.667 -61.333 208.334 -92 293.001 -92c56 0 100.167 10.333 132.5 31s48.5 48.667 48.5 84
c0 57.333 -47.333 86 -142 86h-59c-195.333 0 -293 73.667 -293 221c0 104 55.333 194 166 270c-91.333 46.667 -137 137 -137 271v254c0 106.667 29 185.5 87 236.5s147 76.5 267 76.5c34 0 64 -2 90 -6c126.667 109.333 236.667 157 330 143v-268c-42 42 -98 65 -168 69
c70.667 -50.667 106 -134.334 106 -251.001v-254c0 -106.667 -29.333 -185.667 -88 -237s-148.667 -77 -270 -77c-22 0 -38.333 0.666992 -49 2c-49.333 -36.667 -74 -73.334 -74 -110.001c0 -46.667 32.667 -70 98 -70h70zM359.999 805.002v-197
c0 -38 4.5 -64.167 13.5 -78.5s26.5 -21.5 52.5 -21.5c24.667 0 41.834 7.16699 51.501 21.5s14.5 40.5 14.5 78.5v197c0 39.333 -4.83301 66.5 -14.5 81.5s-26.834 22.5 -51.501 22.5c-26 0 -43.5 -7.5 -52.5 -22.5s-13.5 -42.167 -13.5 -81.5z" />
    <glyph glyph-name="h" unicode="h" 
d="M72 0l0.000976562 1638h317v-610c75.333 79.333 154.666 119 237.999 119c140.667 0 211 -82 211 -246v-901h-318v838c0 56 -21 84 -63 84c-18 0 -40.667 -11 -68 -33v-889h-317z" />
    <glyph glyph-name="i" unicode="i" horiz-adv-x="440" 
d="M221 1276c-122.667 0 -184 52.5 -184 157.5s61.333 157.5 184 157.5c121.333 0 182 -52.5 182 -157.5s-60.667 -157.5 -182 -157.5zM379 0h-318v1126h318v-1126z" />
    <glyph glyph-name="j" unicode="j" horiz-adv-x="458" 
d="M231.5 1276c-123 0 -184.5 52.5 -184.5 157.5s61.5 157.5 184.5 157.5s184.5 -52.5 184.5 -157.5s-61.5 -157.5 -184.5 -157.5zM-133 -471v289c48 -26 89.667 -39 125 -39c57.333 0 86 32.667 86 98v1249h319v-1319c0 -186 -88.667 -278.667 -266 -278h-264z" />
    <glyph glyph-name="k" unicode="k" horiz-adv-x="874" 
d="M834 1059c0 -186 -64.333 -323.333 -193 -412c128.667 0 193 -75.667 193 -227v-420h-314v410c0 42 -13.667 63 -41 63c-20.667 0 -50.667 -11.667 -90 -35v-438h-317v1638h317v-919l8 4c45.333 19.333 76.5 48.333 93.5 87s25.5 116 25.5 232v84h318v-67z" />
    <glyph glyph-name="l" unicode="l" horiz-adv-x="600" 
d="M322 0c-84.667 0 -147.5 24.168 -188.5 72.501s-61.5 123.166 -61.5 224.499v1341h317v-1316c0 -64 27.333 -96.333 82 -97c30 0 62.667 14.333 98 43v-268h-247z" />
    <glyph glyph-name="m" unicode="m" horiz-adv-x="1339" 
d="M1081 1147c124 0 186.332 -76.333 186.999 -229v-918h-318v864c0 38 -13.667 57.333 -41 58c-15.333 0 -42 -16 -80 -48v-874h-317v864c0 38 -13.667 57.333 -41 58c-16.667 0 -44 -16.667 -82 -50v-872h-317v1126h317v-112c84.667 88.667 169.334 133 254.001 133
c98 0 157.333 -46.333 178 -139c87.333 92.667 174 139 260 139z" />
    <glyph glyph-name="n" unicode="n" 
d="M72 0l0.000976562 1126h317v-98c75.333 79.333 154.666 119 237.999 119c140.667 0 211 -82 211 -246v-901h-318v838c0 56 -21 84 -63 84c-18 0 -40.667 -11 -68 -33v-889h-317z" />
    <glyph glyph-name="o" unicode="o" 
d="M72 287v532c0 112 31.333 194.667 94 248s158.834 80 288.501 80s226 -26.667 289 -80s94.5 -136 94.5 -248v-532c0 -104 -31.5 -181.167 -94.5 -231.5s-159.333 -75.5 -289 -75.5s-225.834 25.167 -288.501 75.5s-94 127.5 -94 231.5zM389 305
c0 -66.667 21.833 -100 65.5 -100s65.5 33.333 65.5 100v516c0 66.667 -21.833 100.167 -65.5 100.5s-65.5 -33.167 -65.5 -100.5v-516z" />
    <glyph glyph-name="p" unicode="p" 
d="M627 1147c140.667 0 211 -82 211 -246v-676c0 -164 -70.333 -245.667 -211 -245c-83.333 0 -162.666 39.333 -237.999 118v-569h-317v1597h317v-98c75.333 79.333 154.666 119 237.999 119zM520 289l0.000976562 549c0 56 -21 84 -63 84c-18 0 -40.667 -11 -68 -33v-649
c31.333 -23.333 54.666 -35 69.999 -35c40.667 0 61 28 61 84z" />
    <glyph glyph-name="q" unicode="q" 
d="M520 1126l318 -0.000976562v-1597h-318v569c-75.333 -79.333 -154.333 -118.666 -237 -117.999c-140.667 0 -211 81.667 -211 245v676c0 164 70.333 246 211 246c83.333 0 162.333 -39.667 237 -119v98zM451 204.999c15.333 0 38.3311 11.667 68.998 35v649
c-27.333 22 -49.666 33 -66.999 33c-42 0 -63.333 -28 -64 -84v-549c0.666992 -56 21.334 -84 62.001 -84z" />
    <glyph glyph-name="r" unicode="r" horiz-adv-x="614" 
d="M557 1147c10.667 0 22.999 -3.33301 36.999 -10v-306c-35.333 30 -68.666 45.333 -99.999 46c-36.667 0 -71.667 -14.333 -105 -43v-834h-317v1126h317v-127c50.667 98.667 106.667 148 168 148z" />
    <glyph glyph-name="s" unicode="s" horiz-adv-x="716" 
d="M289 -20c-98 0 -177.334 15.6689 -238.001 47.002v256c72.667 -52 136.334 -78 191.001 -78c84.667 0 127 35.333 127 106c0 30 -8.33301 55.667 -25 77s-48 48.333 -94 81c-132.667 95.333 -199 202.666 -199 321.999v36c0 102.667 31.5 181.667 94.5 237
s153.167 83 270.5 83c76.667 0 153 -11.667 229 -35v-256c-65.333 44 -122 66 -170 66c-84.667 0 -127 -37 -127 -111c0 -32.667 9.66699 -61.334 29 -86.001s58.333 -58.667 117 -102c114.667 -84.667 172 -179.667 172 -285v-47c0 -100 -32.833 -176.833 -98.5 -230.5
s-158.5 -80.5 -278.5 -80.5z" />
    <glyph glyph-name="t" unicode="t" horiz-adv-x="696" 
d="M31 881v245.001h110v308h318v-308h196v-245h-196v-496v-8c-1.33301 -6.66699 -2 -12.834 -2 -18.501s0.333008 -12.834 1 -21.501s2 -16.834 4 -24.501s5 -15.167 9 -22.5s8.83301 -14.166 14.5 -20.499s13.167 -11.166 22.5 -14.499s20.333 -5 33 -5c30 0 68 17 114 51
v-301h-276c-158.667 0 -238 93.667 -238 281v600h-110z" />
    <glyph glyph-name="u" unicode="u" 
d="M838 1126v-1126h-318v98c-75.333 -79.333 -154.333 -118.666 -237 -117.999c-140.667 0 -211 81.667 -211 245v901h317v-837c0 -56 21.333 -84 64 -84c18 0 40.333 11 67 33v888h318z" />
    <glyph glyph-name="v" unicode="v" horiz-adv-x="856" 
d="M254 0l-249.999 1126h326l47 -333c16.667 -117.333 29.667 -297 39 -539h26c5.33301 187.333 19.666 367 42.999 539l45 333h322l-250 -1126h-348z" />
    <glyph glyph-name="w" unicode="w" horiz-adv-x="1298" 
d="M215 0l-209.001 1126h301l39 -370c27.333 -266 45 -433.333 53 -502h25l113 872h229l119 -872h22l51 502l37 370h297l-209 -1126h-335l-48 336c-12 90 -20.667 162.333 -26 217s-8.66602 106.167 -9.99902 154.5s-3 85.5 -5 111.5h-18
c-2.66699 -28.667 -4.66699 -64.5 -6 -107.5s-4.83301 -92.833 -10.5 -149.5s-14.5 -131.334 -26.5 -224.001l-47 -338h-336z" />
    <glyph glyph-name="x" unicode="x" horiz-adv-x="901" 
d="M0 0l284.999 559.002l-275 567h307l76 -165c20.667 -45.333 36.334 -101.333 47.001 -168h23c13.333 66.667 29.666 119.667 48.999 159l84 174h305l-285 -559l275 -567h-313l-56 143c-38 98 -59 166.333 -63 205h-23c-1.33301 -13.333 -3.33301 -25.833 -6 -37.5
s-6.66699 -24.334 -12 -38.001s-10.166 -25.334 -14.499 -35.001l-19.5 -43c-8.66699 -19 -15 -33.833 -19 -44.5l-66 -150h-299z" />
    <glyph glyph-name="y" unicode="y" horiz-adv-x="829" 
d="M184 -471c-53.333 0 -101.667 9.00098 -145 27.001v241c36.667 -28.667 77.667 -43 123 -43c30 0 54.167 12 72.5 36s33.833 64.667 46.5 122l18 88l-297 1126h336l45 -383c20.667 -172 31 -273 31 -303h22c0 34 1.66699 68.5 5 103.5s7.5 72.667 12.5 113
s8.16699 69.166 9.5 86.499l35 383h329l-288 -1226c-30 -125.333 -73.833 -218.5 -131.5 -279.5s-132.167 -91.5 -223.5 -91.5z" />
    <glyph glyph-name="z" unicode="z" horiz-adv-x="675" 
d="M14 0v207l322 674h-307v245h633v-204l-310 -676h289v-246h-627z" />
    <glyph glyph-name="braceleft" unicode="{" horiz-adv-x="616" 
d="M559 1444c-36.667 0 -61.5 -13.333 -74.5 -40s-16.167 -68 -9.5 -124l47 -362c24.667 -188.667 -55.666 -307.667 -240.999 -357c186 -46.667 267 -166 243 -358l-43 -363c-12 -108 14 -162 78 -162c20.667 0 36.334 2.33301 47.001 7v-242
c-9.33301 -1.33301 -25 -2 -47 -2c-136.667 0 -230.834 31 -282.501 93s-71.5 151.667 -59.5 269l47 451c5.33301 58.667 -9.33398 102.334 -44.001 131.001s-91 43 -169 43c-18 0 -35 -2 -51 -6v278c16.667 -4 33.667 -6 51 -6c84.667 0 144.167 14.667 178.5 44
s47.833 72.666 40.5 129.999l-51 451c-28.667 241.333 77.333 362 318 362c34 0 57 -0.666992 69 -2v-241c-9.33301 4 -25 6 -47 6z" />
    <glyph glyph-name="bar" unicode="|" horiz-adv-x="546" 
d="M393 1679v-2238h-239v2238h239z" />
    <glyph glyph-name="braceright" unicode="}" horiz-adv-x="616" 
d="M555 694c18 0 35.002 2.00098 51.002 6.00098v-278c-16.667 4 -33.667 6 -51 6c-78 0 -134.333 -14.333 -169 -43s-49.334 -72.334 -44.001 -131.001l47 -451c12 -118.667 -8.5 -208.667 -61.5 -270s-146.5 -92 -280.5 -92c-22 0 -37.667 0.666992 -47 2v242
c10.667 -4 26.334 -6.33301 47.001 -7c64 0 90 54 78 162l-41 363c-22 191.333 59.333 310.666 244 357.999c-188.667 48 -270 167 -244 357l47 362c13.333 109.333 -14.667 164 -84 164c-20.667 0 -36.334 -2 -47.001 -6v241c12 1.33301 35.333 2 70 2
c240 0 345.667 -120.667 317 -362l-51 -451c-6.66699 -57.333 6.66602 -100.666 39.999 -129.999s93 -44 179 -44z" />
    <glyph glyph-name="asciitilde" unicode="~" horiz-adv-x="825" 
d="M160 631l-88 136.999c46.667 161.333 119.667 242 219 242c38 0 81 -19.833 129 -59.5s87.667 -59.5 119 -59.5c62.667 0 104.334 39.667 125.001 119l90 -138c-48 -161.333 -122 -241.666 -222 -240.999c-36.667 0 -78.834 19.833 -126.501 59.5
s-87.167 59.5 -118.5 59.5c-62.667 0 -105 -39.667 -127 -119z" />
    <glyph glyph-name="exclamdown" unicode="&#xa1;" horiz-adv-x="471" 
d="M235.5 831c-123 0 -184.5 52.667 -184.5 158s61.5 158 184.5 158s184.5 -52.667 184.5 -158s-61.5 -158 -184.5 -158zM57 -492c1.33301 96.667 6.16797 200.831 14.501 312.498s20 246.334 35 404.001s25.833 282.834 32.5 375.501h195
c5.33301 -70.667 15.833 -187.334 31.5 -350.001s27.667 -301.667 36 -417s13.166 -223.666 14.499 -324.999h-359z" />
    <glyph glyph-name="cent" unicode="&#xa2;" horiz-adv-x="806" 
d="M684 305l10 -264c-46.667 -22 -106.667 -35 -180 -39l10 -186h-239l12 207c-122.667 42 -184 145.667 -184 311v500c0 165.333 61.333 269 184 311l-12 207h239l-10 -187c74 -4 134 -17 180 -39l-10 -264c-64 52 -121.333 78 -172 78c-54.667 0 -82 -41.667 -82 -125
v-463c0 -83.333 27.333 -125 82 -125c50.667 0 108 26 172 78z" />
    <glyph glyph-name="sterling" unicode="&#xa3;" horiz-adv-x="993" 
d="M68 0l0.00195312 293.001c35.333 -10.667 60.333 -16.334 75 -17.001c113.333 0 155.666 107.333 126.999 322l-26 199h-193v164h168l-6 36c-74 441.333 68 662 426 662c134 0 228.333 -17.667 283 -53l-86 -248c-48 34 -102 51 -162 51c-49.333 0 -86 -16 -110 -48
s-35.333 -72.333 -34 -121s5.66602 -101.667 12.999 -159l18 -120h201l-25 -164h-151l10 -68c28.667 -192.667 24 -343.667 -14 -453h327v-276h-841z" />
    <glyph glyph-name="currency" unicode="&#xa4;" horiz-adv-x="950" 
d="M838 430c0 -116 -32.334 -200 -97.001 -252l74 -178h-260l-18 104c-15.333 -1.33301 -38.666 -2 -69.999 -2c-23.333 0 -40.333 0.666992 -51 2l-21 -104h-258l72 174c-64 52 -96 137.333 -96 256v266c0 117.333 32 202 96 254l-72 176h258l21 -104c12 1.33301 31 2 57 2
c28.667 0 50 -0.666992 64 -2l18 104h260l-74 -178c64 -52 96.333 -136 97 -252v-266zM475.499 330c17.667 0 29.5 8.83301 35.5 26.5s9 53.834 9 108.501v190c0 57.333 -3 95.333 -9 114s-17.833 28 -35.5 28s-29.667 -9.33301 -36 -28s-9.5 -56.667 -9.5 -114v-190
c0 -54.667 3.16699 -90.834 9.5 -108.501s18.333 -26.5 36 -26.5z" />
    <glyph glyph-name="yen" unicode="&#xa5;" horiz-adv-x="935" 
d="M633 739l-20.999 -68.999h228l-21 -164h-207v-506h-286v506h-230v164h230v6l-19 63h-211v164h164l-209 735h336l59 -471c6.66699 -62.667 11.667 -116.334 15 -161.001h18c9.33301 86 15.666 140.333 18.999 163l61 469h326l-207 -735h162l-21 -164h-186z" />
    <glyph glyph-name="brokenbar" unicode="&#xa6;" horiz-adv-x="546" 
d="M154 750v929h239v-929h-239zM393 371v-930h-239v930h239z" />
    <glyph glyph-name="section" unicode="&#xa7;" horiz-adv-x="954" 
d="M686 1114c117.333 -108 176.001 -238.334 176.001 -391.001v-61c0 -198 -61.333 -325 -184 -381c19.333 -53.333 29 -106.666 29 -159.999v-23c0 -122.667 -27 -213.334 -81 -272.001s-137.667 -88 -251 -88c-105.333 0 -195 20.333 -269 61v291
c96.667 -68 170.667 -102 222 -102c39.333 0 59 33.333 59 100c0 48 -39 106 -117 174c-118.667 102.667 -178 233 -178 391v60c0 198 62.333 325.667 187 383c-20.667 50.667 -31 103.667 -31 159v23c0 122.667 27 213.334 81 272.001s137.667 88 251 88
c106.667 0 196 -21 268 -63v-289c-96.667 68 -170.334 102.333 -221.001 103c-39.333 0 -59.333 -33.667 -60 -101c0 -42 39.667 -100 119 -174zM549.001 462.999l18 -19.001c15.333 36.667 23 90.667 23 162c0 95.333 -59.333 198.333 -178 309
c-2.66699 1.33301 -6.5 4.83301 -11.5 10.5s-8.83301 9.16699 -11.5 10.5c-16.667 -32.667 -24.667 -88 -24 -166c0 -87.333 61.333 -189.666 184 -306.999z" />
    <glyph glyph-name="dieresis" unicode="&#xa8;" horiz-adv-x="1228" 
d="M188 1178c-82 0 -122.667 42.333 -122 127c0 88.667 40.667 133 122 133c84.667 0 127 -44.333 127 -133c0 -84.667 -42.333 -127 -127 -127zM483 1178c-82 0 -123 42.333 -123 127c0 88.667 41 133 123 133c83.333 0 125 -44.333 125 -133
c0 -84.667 -41.667 -127 -125 -127z" />
    <glyph glyph-name="copyright" unicode="&#xa9;" horiz-adv-x="1167" 
d="M82 594l0.000976562 328c0 188.667 40.333 328 121 418s204.667 135 372 135c173.333 0 301.666 -45.167 384.999 -135.5s125 -229.5 125 -417.5v-328c0 -181.333 -41.5 -315.5 -124.5 -402.5s-211.5 -130.5 -385.5 -130.5c-168 0 -292.167 43.5 -372.5 130.5
s-120.5 221.167 -120.5 402.5zM266.001 604c0 -128.667 25.667 -224 77 -286s129.666 -93 234.999 -93c109.333 0 190.5 31.167 243.5 93.5s79.5 157.5 79.5 285.5v309c0 135.333 -26.667 235.5 -80 300.5s-134.333 97.5 -243 97.5
c-105.333 0 -183.666 -32.5 -234.999 -97.5s-77 -165.167 -77 -300.5v-309zM379.001 664v208.001c0 96.667 23.167 168.667 69.5 216s117.5 71 213.5 71c24.667 0 62 -11.667 112 -35v-206c-44 28.667 -77.333 43 -100 43c-39.333 0 -59.333 -37.667 -60 -113v-166
c0 -70.667 20 -106.334 60 -107.001c24.667 0 58 13.667 100 41v-204c-50.667 -23.333 -88 -35 -112 -35c-95.333 0 -166.333 23.667 -213 71s-70 119.333 -70 216z" />
    <glyph glyph-name="guillemotleft" unicode="&#xab;" horiz-adv-x="1083" 
d="M272 129l-268 401v39l268 402h357l-273 -420l273 -422h-357zM715 129l-269 401v39l269 402h356l-270 -420l270 -422h-356z" />
    <glyph glyph-name="logicalnot" unicode="&#xac;" horiz-adv-x="892" 
d="M133 950l627 -2v-547h-219v291h-408v258z" />
    <glyph glyph-name="registered" unicode="&#xae;" horiz-adv-x="518" 
d="M256 1659c126.667 0 190 -65.666 190 -196.999v-100c0 -66.667 -27 -100 -81 -100h-9c-49.333 0 -73.666 21 -72.999 63v35c0 15.333 -4.33301 22.666 -13 21.999h-28v-98h-58v250h103c40.667 0 61 -19 61 -57v-19c0 -28.667 -11.667 -47 -35 -55
c18 -1.33301 27 -16.333 27 -45v-21c0 -19.333 6.66699 -28.666 20 -27.999h5c16.667 0 24.667 13.667 24 41v104c0 102.667 -44.333 154 -133 154c-84.667 0 -127 -51.333 -127 -154v-98c0 -96.667 42.333 -145.334 127 -146.001c53.333 0 88.666 3 105.999 9v-60h-106
c-122.667 0 -184 63 -184 189v114c0 131.333 61.333 197 184 197zM262 1493h-20v-70h20c18 0 27 11.667 27 35v2c0 22 -9 33 -27 33z" />
    <glyph glyph-name="macron" unicode="&#xaf;" horiz-adv-x="1228" 
d="M66 1225v166h493v-166h-493z" />
    <glyph glyph-name="degree" unicode="&#xb0;" horiz-adv-x="505" 
d="M250 1118c-62.667 0 -111.5 22.499 -146.5 67.499s-52.5 108.5 -52.5 190.5v37c0 84.667 17.5 150.167 52.5 196.5s83.833 69.5 146.5 69.5c65.333 0 115.833 -23.167 151.5 -69.5s53.5 -111.833 53.5 -196.5v-37c0 -83.333 -17.833 -147.166 -53.5 -191.499
s-86.167 -66.5 -151.5 -66.5zM252 1278c30 0 45 39 45 117v4c0 80.667 -15 121 -45 121s-45 -40.333 -45 -121v-4c0 -78 15 -117 45 -117z" />
    <glyph glyph-name="plusminus" unicode="&#xb1;" 
d="M563 1034h234v-235h-234v-211h-219v211h-231v235h231v201h219v-201zM131 225v260h643v-260h-643z" />
    <glyph glyph-name="uni00B2" unicode="&#xb2;" horiz-adv-x="454" 
d="M424 1645c0 -80.667 -32 -168.999 -96 -264.999h90v-163h-387v92l4 2c122.667 53.333 184 153.666 184 300.999c0 57.333 -22.333 86 -67 86c-39.333 0 -77.666 -18.667 -114.999 -56v175c53.333 22 112.666 32.667 177.999 32c139.333 0.666992 209 -67.333 209 -204z
" />
    <glyph glyph-name="uni00B3" unicode="&#xb3;" horiz-adv-x="430" 
d="M262 1552c91.333 -18 136.998 -67 136.998 -147v-23c0 -108 -74.333 -161.667 -223 -161c-26 0 -72.333 7.33301 -139 22v174c28.667 -28.667 62 -43 100 -43c40.667 0 61.334 14.333 62.001 43v15c0 30 -24.667 45 -74 45h-64v137h58c48 0 71.667 15.667 71 47
c0 23.333 -17.667 35 -53 35c-49.333 0 -84.666 -15 -105.999 -45v174c60 16.667 109 24.667 147 24c146 0 219 -49.667 219 -149v-6c0 -76.667 -45 -124 -135 -142z" />
    <glyph glyph-name="acute" unicode="&#xb4;" horiz-adv-x="1228" 
d="M256 1182h-190l135 252h272z" />
    <glyph glyph-name="paragraph" unicode="&#xb6;" horiz-adv-x="1044" 
d="M633 1638l8 -1863h-174l-4 897h-19c-113.333 0 -198 20.167 -254 60.5s-84 107.5 -84 201.5v442c0 90 26.667 156.167 80 198.5s141 63.5 263 63.5h184zM922 1638l10 -1863h-176l-8 1863h174z" />
    <glyph glyph-name="periodcentered" unicode="&#xb7;" horiz-adv-x="583" 
d="M293 399c-64 0 -113.5 18.833 -148.5 56.5s-52.5 90.667 -52.5 159s17.5 121.166 52.5 158.499s84.5 56 148.5 56c62.667 0 111.5 -18.667 146.5 -56s52.5 -90.166 52.5 -158.499s-17.5 -121.333 -52.5 -159s-83.833 -56.5 -146.5 -56.5z" />
    <glyph glyph-name="cedilla" unicode="&#xb8;" horiz-adv-x="1228" 
d="M66 -172c65.333 -19.333 116.333 -29 153 -29c30 0 51.167 3.5 63.5 10.5s18.5 19.833 18.5 38.5c0 12 -4.83301 22.167 -14.5 30.5s-21.167 12.5 -34.5 12.5c-18 0 -34.333 -4.66699 -49 -14l-78 68l94 137h150l-66 -96c122.667 0 184 -48 184 -144
c0 -125.333 -75.667 -188 -227 -188c-64 0 -128.667 8 -194 24v150z" />
    <glyph glyph-name="uni00B9" unicode="&#xb9;" horiz-adv-x="352" 
d="M31 1681l0.000976562 162.001h135c104 0 156 -46.333 156 -139v-490h-203v433c0 30 -15.667 45 -47 45c-10.667 -0.666992 -24.334 -4.33398 -41.001 -11.001z" />
    <glyph glyph-name="guillemotright" unicode="&#xbb;" horiz-adv-x="1083" 
d="M12 129l271 422l-271 420h357l268 -402v-39l-268 -401h-357zM455 129l272 422l-272 420h356l268 -402v-39l-268 -401h-356z" />
    <glyph glyph-name="questiondown" unicode="&#xbf;" horiz-adv-x="755" 
d="M422 831c-122.667 0 -184 52.667 -184 158s61.333 158 184 158s184 -52.667 184 -158s-61.333 -158 -184 -158zM483 -264c65.333 0 129 17.667 191 53v-250c-100 -36.667 -193 -55 -279 -55c-124 0 -215.667 30.333 -275 91s-89 154 -89 280v14
c0 174.667 81.667 340 245 496v280h291v-315c-147.333 -126.667 -221 -268 -221 -424c0 -113.333 45.667 -170 137 -170z" />
    <glyph glyph-name="Agrave" unicode="&#xc0;" horiz-adv-x="1058" 
d="M442 1765l-202 232h272l127 -232h-197zM2 0l352 1638h351l352 -1638h-338l-49 340h-283l-49 -340h-336zM424 586h209l-64 428c-9.33301 54.667 -18 129.667 -26 225h-27c-2.66699 -28.667 -13 -103.667 -31 -225z" />
    <glyph glyph-name="Aacute" unicode="&#xc1;" horiz-adv-x="1058" 
d="M625 1765h-197l127 232h272zM2 0l352 1638h351l352 -1638h-338l-49 340h-283l-49 -340h-336zM424 586h209l-64 428c-9.33301 54.667 -18 129.667 -26 225h-27c-2.66699 -28.667 -13 -103.667 -31 -225z" />
    <glyph glyph-name="Acircumflex" unicode="&#xc2;" horiz-adv-x="1058" 
d="M256 1765l174 232h203l174 -232h-203l-69 129h-9l-67 -129h-203zM2 0l352 1638h351l352 -1638h-338l-49 340h-283l-49 -340h-336zM424 586h209l-64 428c-9.33301 54.667 -18 129.667 -26 225h-27c-2.66699 -28.667 -13 -103.667 -31 -225z" />
    <glyph glyph-name="Atilde" unicode="&#xc3;" horiz-adv-x="1058" 
d="M274 1835c42 102.667 96.668 154 164.001 154c31.333 0 65.5 -11.333 102.5 -34s69.833 -34 98.5 -34c32.667 0 55.334 22.667 68.001 68l79 -82c-42 -105.333 -96.333 -158 -163 -158c-30 0 -63.833 11.667 -101.5 35s-70.834 35 -99.501 35
c-32.667 0 -55.334 -23.333 -68.001 -70zM2.00098 0l352 1638h351l352 -1638h-338l-49 340h-283l-49 -340h-336zM424.001 586h209l-64 428c-9.33301 54.667 -18 129.667 -26 225h-27c-2.66699 -28.667 -13 -103.667 -31 -225z" />
    <glyph glyph-name="Adieresis" unicode="&#xc4;" horiz-adv-x="1058" 
d="M342 1747c-95.333 0 -143 39.667 -143 119c0 82 47.667 123 143 123c96.667 0 145 -41 145 -123c0 -79.333 -48.333 -119 -145 -119zM718.5 1747c-97 0 -145.5 39.667 -145.5 119c0 82 48.5 123 145.5 123s145.5 -41 145.5 -123c0 -79.333 -48.5 -119 -145.5 -119zM2 0
l352 1638h351l352 -1638h-338l-49 340h-283l-49 -340h-336zM424 586h209l-64 428c-9.33301 54.667 -18 129.667 -26 225h-27c-2.66699 -28.667 -13 -103.667 -31 -225z" />
    <glyph glyph-name="Aring" unicode="&#xc5;" horiz-adv-x="1058" 
d="M530 1741c-88.667 0 -133 50.333 -133 151c0 95.333 44.333 143.333 133 144c90 0 135.333 -48 136 -144c-0.666992 -100.667 -46 -151 -136 -151zM530 1847c16.667 0 25 15 25 45c0 27.333 -8.33301 41 -25 41c-15.333 0 -22.666 -13.667 -21.999 -41
c-0.666992 -30 6.66602 -45 21.999 -45zM2 0l352 1638h351l352 -1638h-338l-49 340h-283l-49 -340h-336zM424 586h209l-64 428c-9.33301 54.667 -18 129.667 -26 225h-27c-2.66699 -28.667 -13 -103.667 -31 -225z" />
    <glyph glyph-name="AE" unicode="&#xc6;" horiz-adv-x="1482" 
d="M1122 1372c-87.333 0 -131.001 -55.333 -131.001 -166v-252h207v-270h-207v-248c0 -113.333 43.667 -170 131 -170h250v-266h-289c-134 0 -234.667 27.667 -302 83s-105 141 -113 257h-262c-19.333 -82 -44.666 -195.333 -75.999 -340h-328l442 1638h957l-29 -266h-250z
M628.999 1372c-6.66699 -60 -62.667 -322 -168 -786h205v663c0 45.333 4 86.333 12 123h-49z" />
    <glyph glyph-name="Ccedilla" unicode="&#xc7;" horiz-adv-x="878" 
d="M588 1393c-106.667 0 -160 -62.333 -160 -187v-774c0 -124 53.333 -186 160 -186c83.333 0 159.666 27.333 228.999 82v-312c-78 -22 -157.667 -34 -239 -36l-41 -62c122.667 0 184 -48.333 184 -145c0 -124 -75.667 -186.333 -227 -187
c-70.667 0 -135.667 8.33301 -195 25v149c58.667 -19.333 110 -28.666 154 -27.999c30 0 51.167 3 63.5 9s18.5 18.667 18.5 38c0 13.333 -4.5 24.166 -13.5 32.499s-21.167 12.5 -36.5 12.5c-18 0 -34.333 -4.66699 -49 -14l-78 67l74 107c-220 30 -330 165.667 -330 407
v854c0 276 140.667 414 422 414c117.333 0 215 -13 293 -39v-313c-61.333 57.333 -137.666 86 -228.999 86z" />
    <glyph glyph-name="Egrave" unicode="&#xc8;" horiz-adv-x="903" 
d="M408 1761l-203 232h272l127 -232h-196zM580 1372c-57.333 0 -97 -15.3311 -119 -45.998s-33 -86.334 -33 -167.001v-207h330v-266h-330v-246c0 -66.667 11 -112.334 33 -137.001s61.667 -37 119 -37h241v-266h-301c-142 0 -247.167 34.167 -315.5 102.5
s-102.5 173.5 -102.5 315.5v807c0 140.667 34.167 244.667 102.5 312s173.5 101 315.5 101h301v-266h-241z" />
    <glyph glyph-name="Eacute" unicode="&#xc9;" horiz-adv-x="903" 
d="M590 1761h-197l127 232h273zM580 1372c-57.333 0 -97 -15.3311 -119 -45.998s-33 -86.334 -33 -167.001v-207h330v-266h-330v-246c0 -66.667 11 -112.334 33 -137.001s61.667 -37 119 -37h241v-266h-301c-142 0 -247.167 34.167 -315.5 102.5s-102.5 173.5 -102.5 315.5
v807c0 140.667 34.167 244.667 102.5 312s173.5 101 315.5 101h301v-266h-241z" />
    <glyph glyph-name="Ecircumflex" unicode="&#xca;" horiz-adv-x="903" 
d="M221 1761l174 232h203l174 -232h-203l-69 129h-8l-68 -129h-203zM580 1372c-57.333 0 -97 -15.3311 -119 -45.998s-33 -86.334 -33 -167.001v-207h330v-266h-330v-246c0 -66.667 11 -112.334 33 -137.001s61.667 -37 119 -37h241v-266h-301
c-142 0 -247.167 34.167 -315.5 102.5s-102.5 173.5 -102.5 315.5v807c0 140.667 34.167 244.667 102.5 312s173.5 101 315.5 101h301v-266h-241z" />
    <glyph glyph-name="Edieresis" unicode="&#xcb;" horiz-adv-x="903" 
d="M307 1743c-95.333 0 -143 39.667 -143 119c0 82 47.667 123 143 123c96.667 0 145.334 -41 146.001 -123c-0.666992 -79.333 -49.334 -119 -146.001 -119zM684 1743c-96.667 0 -145 39.667 -145 119c0 82 48.333 123 145 123s145 -41 145 -123
c0 -79.333 -48.333 -119 -145 -119zM580 1372c-57.333 0 -97 -15.3311 -119 -45.998s-33 -86.334 -33 -167.001v-207h330v-266h-330v-246c0 -66.667 11 -112.334 33 -137.001s61.667 -37 119 -37h241v-266h-301c-142 0 -247.167 34.167 -315.5 102.5
s-102.5 173.5 -102.5 315.5v807c0 140.667 34.167 244.667 102.5 312s173.5 101 315.5 101h301v-266h-241z" />
    <glyph glyph-name="Igrave" unicode="&#xcc;" horiz-adv-x="763" 
d="M293 1761l-203 232h272l127 -232h-196zM61 0v266h158v1106h-158v266h641v-266h-157v-1106h157v-266h-641z" />
    <glyph glyph-name="Iacute" unicode="&#xcd;" horiz-adv-x="763" 
d="M475 1761h-196l127 232h272zM61 0v266h158v1106h-158v266h641v-266h-157v-1106h157v-266h-641z" />
    <glyph glyph-name="Icircumflex" unicode="&#xce;" horiz-adv-x="763" 
d="M106 1761l175 232h202l174 -232h-202l-70 129h-8l-68 -129h-203zM61 0v266h158v1106h-158v266h641v-266h-157v-1106h157v-266h-641z" />
    <glyph glyph-name="Idieresis" unicode="&#xcf;" horiz-adv-x="763" 
d="M193 1743c-95.333 0 -143.333 39.667 -144 119c0 82 48 123 144 123c96.667 0 145 -41 145 -123c0 -79.333 -48.333 -119 -145 -119zM569.5 1743c-97 0 -145.5 39.667 -145.5 119c0 82 48.5 123 145.5 123s145.5 -41 145.5 -123c0 -79.333 -48.5 -119 -145.5 -119zM61 0
v266h158v1106h-158v266h641v-266h-157v-1106h157v-266h-641z" />
    <glyph glyph-name="Eth" unicode="&#xd0;" horiz-adv-x="1054" 
d="M535 1638c142 0 247 -33.667 315 -101s102 -171.333 102 -312v-807c0 -142 -34.5 -247.167 -103.5 -315.5s-174.5 -102.5 -316.5 -102.5h-430v727h-102v184h102v727h433zM627 440v725c0 116 -30 174 -90 174h-109v-428h88v-184h-88v-461h109c60 0 90 58 90 174z" />
    <glyph glyph-name="Ntilde" unicode="&#xd1;" horiz-adv-x="1062" 
d="M276 1831c42 102.667 96.668 154 164.001 154c31.333 0 65.5 -11.333 102.5 -34s69.833 -34 98.5 -34c32.667 0 55.334 22.667 68.001 68l79 -82c-42 -105.333 -96.333 -158 -163 -158c-30 0 -63.833 11.667 -101.5 35s-70.834 35 -99.501 35
c-32.667 0 -55.334 -23.333 -68.001 -70zM102.001 0v1638h326l209 -333v333h324v-1638h-324v831l-209 334v-1165h-326z" />
    <glyph glyph-name="Ograve" unicode="&#xd2;" horiz-adv-x="1036" 
d="M430 1761l-203 232h273l127 -232h-197zM516 -20c-140.667 0 -244.834 34 -312.501 102s-101.5 173 -101.5 315v848c0 140.667 33.833 244.834 101.5 312.501s171.834 101.5 312.501 101.5c142 0 247.167 -33.833 315.5 -101.5s102.5 -171.834 102.5 -312.501v-848
c0 -142 -34.167 -247 -102.5 -315s-173.5 -102 -315.5 -102zM518 246c32.667 0 55.834 11.5 69.501 34.5s20.5 62.5 20.5 118.5v840c0 56 -6.83301 95.667 -20.5 119s-36.834 35 -69.501 35s-55.834 -11.667 -69.501 -35s-20.5 -63 -20.5 -119v-840
c0 -56 6.83301 -95.5 20.5 -118.5s36.834 -34.5 69.501 -34.5z" />
    <glyph glyph-name="Oacute" unicode="&#xd3;" horiz-adv-x="1036" 
d="M612 1761h-196l127 232h272zM516 -20c-140.667 0 -244.834 34 -312.501 102s-101.5 173 -101.5 315v848c0 140.667 33.833 244.834 101.5 312.501s171.834 101.5 312.501 101.5c142 0 247.167 -33.833 315.5 -101.5s102.5 -171.834 102.5 -312.501v-848
c0 -142 -34.167 -247 -102.5 -315s-173.5 -102 -315.5 -102zM518 246c32.667 0 55.834 11.5 69.501 34.5s20.5 62.5 20.5 118.5v840c0 56 -6.83301 95.667 -20.5 119s-36.834 35 -69.501 35s-55.834 -11.667 -69.501 -35s-20.5 -63 -20.5 -119v-840
c0 -56 6.83301 -95.5 20.5 -118.5s36.834 -34.5 69.501 -34.5z" />
    <glyph glyph-name="Ocircumflex" unicode="&#xd4;" horiz-adv-x="1036" 
d="M244 1761l174 232h203l174 -232h-203l-70 129h-8l-68 -129h-202zM516 -20c-140.667 0 -244.834 34 -312.501 102s-101.5 173 -101.5 315v848c0 140.667 33.833 244.834 101.5 312.501s171.834 101.5 312.501 101.5c142 0 247.167 -33.833 315.5 -101.5
s102.5 -171.834 102.5 -312.501v-848c0 -142 -34.167 -247 -102.5 -315s-173.5 -102 -315.5 -102zM518 246c32.667 0 55.834 11.5 69.501 34.5s20.5 62.5 20.5 118.5v840c0 56 -6.83301 95.667 -20.5 119s-36.834 35 -69.501 35s-55.834 -11.667 -69.501 -35
s-20.5 -63 -20.5 -119v-840c0 -56 6.83301 -95.5 20.5 -118.5s36.834 -34.5 69.501 -34.5z" />
    <glyph glyph-name="Otilde" unicode="&#xd5;" horiz-adv-x="1036" 
d="M262 1831c42 102.667 96.668 154 164.001 154c31.333 0 65.5 -11.333 102.5 -34s69.833 -34 98.5 -34c32.667 0 55 22.667 67 68l80 -82c-42 -105.333 -96.667 -158 -164 -158c-30 0 -63.667 11.667 -101 35s-70.333 35 -99 35c-32.667 0 -55.334 -23.333 -68.001 -70z
M516.001 -20c-140.667 0 -244.834 34 -312.501 102s-101.5 173 -101.5 315v848c0 140.667 33.833 244.834 101.5 312.501s171.834 101.5 312.501 101.5c142 0 247.167 -33.833 315.5 -101.5s102.5 -171.834 102.5 -312.501v-848c0 -142 -34.167 -247 -102.5 -315
s-173.5 -102 -315.5 -102zM518.001 246c32.667 0 55.834 11.5 69.501 34.5s20.5 62.5 20.5 118.5v840c0 56 -6.83301 95.667 -20.5 119s-36.834 35 -69.501 35s-55.834 -11.667 -69.501 -35s-20.5 -63 -20.5 -119v-840c0 -56 6.83301 -95.5 20.5 -118.5
s36.834 -34.5 69.501 -34.5z" />
    <glyph glyph-name="Odieresis" unicode="&#xd6;" horiz-adv-x="1036" 
d="M330 1743c-95.333 0 -143.333 39.667 -144 119c0 82 48 123 144 123c96.667 0 145 -41 145 -123c0 -79.333 -48.333 -119 -145 -119zM706.5 1743c-97 0 -145.5 39.667 -145.5 119c0 82 48.5 123 145.5 123s145.5 -41 145.5 -123c0 -79.333 -48.5 -119 -145.5 -119z
M516 -20c-140.667 0 -244.834 34 -312.501 102s-101.5 173 -101.5 315v848c0 140.667 33.833 244.834 101.5 312.501s171.834 101.5 312.501 101.5c142 0 247.167 -33.833 315.5 -101.5s102.5 -171.834 102.5 -312.501v-848c0 -142 -34.167 -247 -102.5 -315
s-173.5 -102 -315.5 -102zM518 246c32.667 0 55.834 11.5 69.501 34.5s20.5 62.5 20.5 118.5v840c0 56 -6.83301 95.667 -20.5 119s-36.834 35 -69.501 35s-55.834 -11.667 -69.501 -35s-20.5 -63 -20.5 -119v-840c0 -56 6.83301 -95.5 20.5 -118.5
s36.834 -34.5 69.501 -34.5z" />
    <glyph glyph-name="multiply" unicode="&#xd7;" horiz-adv-x="763" 
d="M672 1008l-137 -199l135 -172l-160 -166l-129 166l-129 -166l-158 166l135 192l-137 179l160 161l131 -168l127 168z" />
    <glyph glyph-name="Oslash" unicode="&#xd8;" horiz-adv-x="1036" 
d="M965 1638l-74 -168.001c28.667 -58.667 43 -133.667 43 -225v-848c0 -142 -34.167 -247 -102.5 -315s-173.5 -102 -315.5 -102c-104 0 -187.333 18.333 -250 55l-14 -35h-178l71 166c-28.667 61.333 -43 138.333 -43 231v848c0 140.667 33.833 244.834 101.5 312.501
s171.834 101.5 312.501 101.5c105.333 0 190.666 -18.333 255.999 -55l14 34h179zM428 1239l0.00195312 -424l180 414v10c0 56 -6.83301 95.667 -20.5 119s-36.834 35 -69.501 35s-55.834 -11.667 -69.501 -35s-20.5 -63 -20.5 -119zM608.002 398.999l-0.00195312 420
l-180 -413v-7c0 -56 6.83301 -95.5 20.5 -118.5s36.834 -34.5 69.501 -34.5s55.834 11.5 69.501 34.5s20.5 62.5 20.5 118.5z" />
    <glyph glyph-name="Ugrave" unicode="&#xd9;" horiz-adv-x="1036" 
d="M430 1761l-203 232h273l127 -232h-197zM516 -20c-140.667 0 -244.835 34 -312.502 102s-101.5 173 -101.5 315v1241h326v-1218c0 -62.667 6.83301 -107.334 20.5 -134.001s36.834 -40 69.501 -40s55.834 13.333 69.501 40s20.5 71.334 20.5 134.001v1218h326v-1241
c0 -142 -34.167 -247 -102.5 -315s-173.5 -102 -315.5 -102z" />
    <glyph glyph-name="Uacute" unicode="&#xda;" horiz-adv-x="1036" 
d="M612 1761h-196l127 232h272zM516 -20c-140.667 0 -244.835 34 -312.502 102s-101.5 173 -101.5 315v1241h326v-1218c0 -62.667 6.83301 -107.334 20.5 -134.001s36.834 -40 69.501 -40s55.834 13.333 69.501 40s20.5 71.334 20.5 134.001v1218h326v-1241
c0 -142 -34.167 -247 -102.5 -315s-173.5 -102 -315.5 -102z" />
    <glyph glyph-name="Ucircumflex" unicode="&#xdb;" horiz-adv-x="1036" 
d="M244 1761l174 232h203l174 -232h-203l-70 129h-8l-68 -129h-202zM516 -20c-140.667 0 -244.835 34 -312.502 102s-101.5 173 -101.5 315v1241h326v-1218c0 -62.667 6.83301 -107.334 20.5 -134.001s36.834 -40 69.501 -40s55.834 13.333 69.501 40
s20.5 71.334 20.5 134.001v1218h326v-1241c0 -142 -34.167 -247 -102.5 -315s-173.5 -102 -315.5 -102z" />
    <glyph glyph-name="Udieresis" unicode="&#xdc;" horiz-adv-x="1036" 
d="M330 1743c-95.333 0 -143.333 39.667 -144 119c0 82 48 123 144 123c96.667 0 145 -41 145 -123c0 -79.333 -48.333 -119 -145 -119zM706.5 1743c-97 0 -145.5 39.667 -145.5 119c0 82 48.5 123 145.5 123s145.5 -41 145.5 -123c0 -79.333 -48.5 -119 -145.5 -119z
M516 -20c-140.667 0 -244.835 34 -312.502 102s-101.5 173 -101.5 315v1241h326v-1218c0 -62.667 6.83301 -107.334 20.5 -134.001s36.834 -40 69.501 -40s55.834 13.333 69.501 40s20.5 71.334 20.5 134.001v1218h326v-1241c0 -142 -34.167 -247 -102.5 -315
s-173.5 -102 -315.5 -102z" />
    <glyph glyph-name="Yacute" unicode="&#xdd;" horiz-adv-x="1052" 
d="M823 1993l-202 -232h-197l127 232h272zM1042 1638l-350 -1087v-551h-332v557l-350 1081h334l82 -313c52 -203.333 80 -339 84 -407h33c12 104 41.333 240.333 88 409l84 311h327z" />
    <glyph glyph-name="Thorn" unicode="&#xde;" horiz-adv-x="991" 
d="M102 0v1638h326v-350h82c154 0 267.667 -29 341 -87s110 -147 110 -267v-227c0 -120 -37 -209.167 -111 -267.5s-188 -87.5 -342 -87.5h-80v-352h-326zM428 618h55c101.333 0 152 58.333 152 175v51c0 118.667 -50.667 178 -152 178h-55v-404z" />
    <glyph glyph-name="germandbls" unicode="&#xdf;" horiz-adv-x="1054" 
d="M662 -23c-76.667 0 -137.667 12.334 -183 37.001v273c39.333 -38 81 -57.333 125 -58c57.333 0 86 27.333 86 82c0 56 -43.667 136.667 -131 242c-56 68 -84 154 -84 258c0 68 13.667 133.833 41 197.5s54.333 121.5 81 173.5s40 97.667 40 137c0 64 -25.333 96 -76 96
h-57c-64 0 -96 -47 -96 -141v-1274h-316v1307c0 221.333 93.667 331.666 281 330.999h250c218.667 0 327.667 -92.667 327 -278c0 -78 -27 -172.333 -81 -283s-81 -189 -81 -235c0 -50.667 37.667 -123.667 113 -219c68 -86 102.333 -178.333 103 -277v-35
c0 -113.333 -28 -197.333 -84 -252s-142 -82 -258 -82z" />
    <glyph glyph-name="agrave" unicode="&#xe0;" horiz-adv-x="874" 
d="M389 1249l-217 252h272l136 -252h-191zM446 1149c237.333 0 356.334 -116 357.001 -348v-801h-318v113c-72.667 -88.667 -152.334 -133 -239.001 -133c-143.333 0 -215 112.333 -215 337c0 236 80.333 354.333 241 355c74 0 145 -26 213 -78v188
c0 94 -41 141.333 -123 142c-68 0 -149 -34.333 -243 -103v279c132 32.667 241 49 327 49zM416.001 217c26 0 49.001 13.667 69.001 41v178c-28.667 20.667 -50.334 31 -65.001 31c-48 0 -72 -43 -72 -129c0 -80.667 22.667 -121 68 -121z" />
    <glyph glyph-name="aacute" unicode="&#xe1;" horiz-adv-x="874" 
d="M567 1251h-190l135 252h272zM446 1149c237.333 0 356.334 -116 357.001 -348v-801h-318v113c-72.667 -88.667 -152.334 -133 -239.001 -133c-143.333 0 -215 112.333 -215 337c0 236 80.333 354.333 241 355c74 0 145 -26 213 -78v188c0 94 -41 141.333 -123 142
c-68 0 -149 -34.333 -243 -103v279c132 32.667 241 49 327 49zM416.001 217c26 0 49.001 13.667 69.001 41v178c-28.667 20.667 -50.334 31 -65.001 31c-48 0 -72 -43 -72 -129c0 -80.667 22.667 -121 68 -121z" />
    <glyph glyph-name="acircumflex" unicode="&#xe2;" horiz-adv-x="874" 
d="M190 1251l185 252h205l184 -252h-203l-80 150h-8l-80 -150h-203zM446 1149c237.333 0 356.334 -116 357.001 -348v-801h-318v113c-72.667 -88.667 -152.334 -133 -239.001 -133c-143.333 0 -215 112.333 -215 337c0 236 80.333 354.333 241 355c74 0 145 -26 213 -78v188
c0 94 -41 141.333 -123 142c-68 0 -149 -34.333 -243 -103v279c132 32.667 241 49 327 49zM416.001 217c26 0 49.001 13.667 69.001 41v178c-28.667 20.667 -50.334 31 -65.001 31c-48 0 -72 -43 -72 -129c0 -80.667 22.667 -121 68 -121z" />
    <glyph glyph-name="atilde" unicode="&#xe3;" horiz-adv-x="874" 
d="M221 1331c42 113.333 96.668 170 164.001 170c31.333 0 65.5 -12.333 102.5 -37s69.833 -37 98.5 -37c32.667 0 55 24.667 67 74l80 -88c-42 -113.333 -96.667 -170 -164 -170c-30 0 -63.667 12.667 -101 38s-70.333 38 -99 38c-32.667 0 -55.334 -25.333 -68.001 -76z
M446.001 1149c237.333 0 356.334 -116 357.001 -348v-801h-318v113c-72.667 -88.667 -152.334 -133 -239.001 -133c-143.333 0 -215 112.333 -215 337c0 236 80.333 354.333 241 355c74 0 145 -26 213 -78v188c0 94 -41 141.333 -123 142c-68 0 -149 -34.333 -243 -103v279
c132 32.667 241 49 327 49zM416.002 217c26 0 49.001 13.667 69.001 41v178c-28.667 20.667 -50.334 31 -65.001 31c-48 0 -72 -43 -72 -129c0 -80.667 22.667 -121 68 -121z" />
    <glyph glyph-name="adieresis" unicode="&#xe4;" horiz-adv-x="874" 
d="M328 1247c-82 0 -123 42.333 -123 127c0 88.667 41 133 123 133c84.667 0 127 -44.333 127 -133c0 -84.667 -42.333 -127 -127 -127zM623 1247c-82 0 -123 42.333 -123 127c0 88.667 41 133 123 133c83.333 0 125 -44.333 125 -133c0 -84.667 -41.667 -127 -125 -127z
M446 1149c237.333 0 356.334 -116 357.001 -348v-801h-318v113c-72.667 -88.667 -152.334 -133 -239.001 -133c-143.333 0 -215 112.333 -215 337c0 236 80.333 354.333 241 355c74 0 145 -26 213 -78v188c0 94 -41 141.333 -123 142c-68 0 -149 -34.333 -243 -103v279
c132 32.667 241 49 327 49zM416.001 217c26 0 49.001 13.667 69.001 41v178c-28.667 20.667 -50.334 31 -65.001 31c-48 0 -72 -43 -72 -129c0 -80.667 22.667 -121 68 -121z" />
    <glyph glyph-name="aring" unicode="&#xe5;" horiz-adv-x="874" 
d="M477 1227c-98 0 -147 58 -147 174s49 174 147 174c96.667 0 145 -58 145 -174s-48.333 -174 -145 -174zM477 1348c16.667 0 25 17.667 25 53s-8.33301 53 -25 53c-18 0 -27 -17.667 -27 -53s9 -53 27 -53zM446 1149c237.333 0 356.334 -116 357.001 -348v-801h-318v113
c-72.667 -88.667 -152.334 -133 -239.001 -133c-143.333 0 -215 112.333 -215 337c0 236 80.333 354.333 241 355c74 0 145 -26 213 -78v188c0 94 -41 141.333 -123 142c-68 0 -149 -34.333 -243 -103v279c132 32.667 241 49 327 49zM416.001 217
c26 0 49.001 13.667 69.001 41v178c-28.667 20.667 -50.334 31 -65.001 31c-48 0 -72 -43 -72 -129c0 -80.667 22.667 -121 68 -121z" />
    <glyph glyph-name="ae" unicode="&#xe6;" horiz-adv-x="1245" 
d="M1174 442l-408.001 0.000976562v-96c0 -36.667 4.5 -65.334 13.5 -86.001s18.833 -31 29.5 -31c72.667 0 188 33.667 346 101v-303c-54.667 -31.333 -172 -47 -352 -47c-142 0 -241 40 -297 120c-90 -80.667 -186.333 -120.667 -289 -120c-124 0 -186 114.667 -186 344
c0 232 66.667 348 200 348c76.667 0 149.334 -26 218.001 -78v160c0 96.667 -33 145 -99 145c-61.333 0 -144 -34 -248 -102v303c94 32.667 176.667 49 248 49c100 0 182 -15 246 -45c56 28.667 127 43 213 43c124 0 215.833 -27 275.5 -81s89.5 -137.667 89.5 -251v-373z
M808.999 897.001c-10.667 0 -20.5 -10.5 -29.5 -31.5s-13.5 -50.833 -13.5 -89.5v-90h90v90c0 80.667 -15.667 121 -47 121zM380.999 229.001c9.33301 0 31.999 21.333 67.999 64v80c-13.333 32.667 -36.666 49 -69.999 49c-16.667 0 -25 -32.167 -25 -96.5
s9 -96.5 27 -96.5z" />
    <glyph glyph-name="ccedilla" unicode="&#xe7;" horiz-adv-x="677" 
d="M473 918c-56 0 -83.9971 -30.333 -83.9971 -91v-520c0 -68 29.333 -102 88 -102c42 0 97.333 20.333 166 61v-248c-58.667 -23.333 -125 -37 -199 -41l-38 -55c122.667 0 184 -47.667 184 -143c0 -125.333 -76 -188.333 -228 -189c-64 0 -128.667 8.33301 -194 25v149
c65.333 -19.333 116.666 -28.666 153.999 -27.999c30 0 51 3.33301 63 10s18 19.667 18 39c0 12 -4.66699 22.167 -14 30.5s-21 12.5 -35 12.5c-18 0 -34.333 -4.66699 -49 -14l-78 67l74 107c-53.333 10.667 -97 28.334 -131 53.001s-57.5 54.667 -70.5 90
s-20.833 63.333 -23.5 84s-4 46 -4 76v545c0 26 0.666992 48.167 2 66.5s8.16602 44.166 20.499 77.499s29.333 60.666 51 81.999s55.667 40.5 102 57.5s101.833 25.5 166.5 25.5c83.333 0 159.666 -13.667 228.999 -41v-248c-69.333 41.333 -126 62 -170 62z" />
    <glyph glyph-name="egrave" unicode="&#xe8;" 
d="M346 1249l-217 252h272l136 -252h-191zM838 446h-449v-170c0 -48 36.333 -71.667 109 -71c79.333 0 185.666 30 318.999 90v-268c-100 -31.333 -211.333 -47 -334 -47c-78 0 -144.5 8.16699 -199.5 24.5s-95.833 35 -122.5 56s-47.167 48.333 -61.5 82
s-22.5 59.667 -24.5 78s-3 41.833 -3 70.5v545c0 18 0.333008 32.333 1 43s3.33398 28 8.00098 52s11.5 44.5 20.5 61.5s23.333 35.667 43 56s42.834 37.333 69.501 51s61.167 25 103.5 34s90.166 13.5 143.499 13.5c128.667 0 223.667 -25.667 285 -77s92 -129.333 92 -234
v-390zM459 922c-46.667 0 -70 -33.667 -70 -101v-180h131v180c0 67.333 -20.333 101 -61 101z" />
    <glyph glyph-name="eacute" unicode="&#xe9;" 
d="M524 1251h-190l135 252h272zM838 446h-449v-170c0 -48 36.333 -71.667 109 -71c79.333 0 185.666 30 318.999 90v-268c-100 -31.333 -211.333 -47 -334 -47c-78 0 -144.5 8.16699 -199.5 24.5s-95.833 35 -122.5 56s-47.167 48.333 -61.5 82s-22.5 59.667 -24.5 78
s-3 41.833 -3 70.5v545c0 18 0.333008 32.333 1 43s3.33398 28 8.00098 52s11.5 44.5 20.5 61.5s23.333 35.667 43 56s42.834 37.333 69.501 51s61.167 25 103.5 34s90.166 13.5 143.499 13.5c128.667 0 223.667 -25.667 285 -77s92 -129.333 92 -234v-390zM459 922
c-46.667 0 -70 -33.667 -70 -101v-180h131v180c0 67.333 -20.333 101 -61 101z" />
    <glyph glyph-name="ecircumflex" unicode="&#xea;" 
d="M147 1251l185 252h205l184 -252h-203l-80 150h-8l-80 -150h-203zM838 446h-449v-170c0 -48 36.333 -71.667 109 -71c79.333 0 185.666 30 318.999 90v-268c-100 -31.333 -211.333 -47 -334 -47c-78 0 -144.5 8.16699 -199.5 24.5s-95.833 35 -122.5 56
s-47.167 48.333 -61.5 82s-22.5 59.667 -24.5 78s-3 41.833 -3 70.5v545c0 18 0.333008 32.333 1 43s3.33398 28 8.00098 52s11.5 44.5 20.5 61.5s23.333 35.667 43 56s42.834 37.333 69.501 51s61.167 25 103.5 34s90.166 13.5 143.499 13.5
c128.667 0 223.667 -25.667 285 -77s92 -129.333 92 -234v-390zM459 922c-46.667 0 -70 -33.667 -70 -101v-180h131v180c0 67.333 -20.333 101 -61 101z" />
    <glyph glyph-name="edieresis" unicode="&#xeb;" 
d="M285 1247c-82 0 -123 42.333 -123 127c0 88.667 41 133 123 133c84.667 0 127 -44.333 127 -133c0 -84.667 -42.333 -127 -127 -127zM580 1247c-82 0 -123 42.333 -123 127c0 88.667 41 133 123 133c83.333 0 125 -44.333 125 -133c0 -84.667 -41.667 -127 -125 -127z
M838 446h-449v-170c0 -48 36.333 -71.667 109 -71c79.333 0 185.666 30 318.999 90v-268c-100 -31.333 -211.333 -47 -334 -47c-78 0 -144.5 8.16699 -199.5 24.5s-95.833 35 -122.5 56s-47.167 48.333 -61.5 82s-22.5 59.667 -24.5 78s-3 41.833 -3 70.5v545
c0 18 0.333008 32.333 1 43s3.33398 28 8.00098 52s11.5 44.5 20.5 61.5s23.333 35.667 43 56s42.834 37.333 69.501 51s61.167 25 103.5 34s90.166 13.5 143.499 13.5c128.667 0 223.667 -25.667 285 -77s92 -129.333 92 -234v-390zM459 922
c-46.667 0 -70 -33.667 -70 -101v-180h131v180c0 67.333 -20.333 101 -61 101z" />
    <glyph glyph-name="igrave" unicode="&#xec;" horiz-adv-x="428" 
d="M127 1249l-217 252h272l135 -252h-190zM373 0h-318v1126h318v-1126z" />
    <glyph glyph-name="iacute" unicode="&#xed;" horiz-adv-x="428" 
d="M305 1251h-190l135 252h272zM373 0h-318v1126h318v-1126z" />
    <glyph glyph-name="icircumflex" unicode="&#xee;" horiz-adv-x="428" 
d="M-72 1251l185 252h204l185 -252h-203l-80 150h-8l-80 -150h-203zM373 0h-318v1126h318v-1126z" />
    <glyph glyph-name="idieresis" unicode="&#xef;" horiz-adv-x="428" 
d="M66 1247c-82 0 -123 42.333 -123 127c0 88.667 41 133 123 133c84.667 0 127 -44.333 127 -133c0 -84.667 -42.333 -127 -127 -127zM360 1247c-82 0 -122.667 42.333 -122 127c0 88.667 40.667 133 122 133c83.333 0 125 -44.333 125 -133
c0 -84.667 -41.667 -127 -125 -127zM373 0h-318v1126h318v-1126z" />
    <glyph glyph-name="eth" unicode="&#xf0;" horiz-adv-x="860" 
d="M571 1427c147.333 -160 221.333 -364 222 -612v-504c0 -113.333 -31.167 -196.833 -93.5 -250.5s-157.5 -80.5 -285.5 -80.5c-117.333 0 -204.333 26.833 -261 80.5s-85 137.167 -85 250.5v504c0 113.333 29.333 197 88 251s148.667 81 270 81
c-16.667 0 -25.667 0.666992 -27 2c-18 32.667 -39 64.667 -63 96l-201 -155v215l72 55c-36.667 24.667 -73.667 45.667 -111 63l178 228c57.333 -30 114 -65.667 170 -107l164 127v-215zM475 287v549c0 57.333 -16.333 86 -49 86c-27.333 0 -41 -28.667 -41 -86v-549
c0 -54.667 13.667 -82 41 -82c32.667 0 49 27.333 49 82z" />
    <glyph glyph-name="ntilde" unicode="&#xf1;" 
d="M203 1331c42 113.333 96.666 170 163.999 170c31.333 0 65.333 -12.333 102 -37s69.334 -37 98.001 -37c32.667 0 55.334 24.667 68.001 74l80 -88c-42 -113.333 -96.667 -170 -164 -170c-30 0 -63.833 12.667 -101.5 38s-70.834 38 -99.501 38
c-32.667 0 -55 -25.333 -67 -76zM71.999 0l0.000976562 1126h317v-98c75.333 79.333 154.666 119 237.999 119c140.667 0 211 -82 211 -246v-901h-318v838c0 56 -21 84 -63 84c-18 0 -40.667 -11 -68 -33v-889h-317z" />
    <glyph glyph-name="ograve" unicode="&#xf2;" 
d="M367 1249l-217 252h272l135 -252h-190zM72 287v532c0 112 31.333 194.667 94 248s158.834 80 288.501 80s226 -26.667 289 -80s94.5 -136 94.5 -248v-532c0 -104 -31.5 -181.167 -94.5 -231.5s-159.333 -75.5 -289 -75.5s-225.834 25.167 -288.501 75.5
s-94 127.5 -94 231.5zM389 305c0 -66.667 21.833 -100 65.5 -100s65.5 33.333 65.5 100v516c0 66.667 -21.833 100.167 -65.5 100.5s-65.5 -33.167 -65.5 -100.5v-516z" />
    <glyph glyph-name="oacute" unicode="&#xf3;" 
d="M545 1251h-191l135 252h273zM72 287v532c0 112 31.333 194.667 94 248s158.834 80 288.501 80s226 -26.667 289 -80s94.5 -136 94.5 -248v-532c0 -104 -31.5 -181.167 -94.5 -231.5s-159.333 -75.5 -289 -75.5s-225.834 25.167 -288.501 75.5s-94 127.5 -94 231.5z
M389 305c0 -66.667 21.833 -100 65.5 -100s65.5 33.333 65.5 100v516c0 66.667 -21.833 100.167 -65.5 100.5s-65.5 -33.167 -65.5 -100.5v-516z" />
    <glyph glyph-name="ocircumflex" unicode="&#xf4;" 
d="M168 1251l184 252h205l184 -252h-202l-80 150h-8l-80 -150h-203zM72 287v532c0 112 31.333 194.667 94 248s158.834 80 288.501 80s226 -26.667 289 -80s94.5 -136 94.5 -248v-532c0 -104 -31.5 -181.167 -94.5 -231.5s-159.333 -75.5 -289 -75.5
s-225.834 25.167 -288.501 75.5s-94 127.5 -94 231.5zM389 305c0 -66.667 21.833 -100 65.5 -100s65.5 33.333 65.5 100v516c0 66.667 -21.833 100.167 -65.5 100.5s-65.5 -33.167 -65.5 -100.5v-516z" />
    <glyph glyph-name="otilde" unicode="&#xf5;" 
d="M199 1331c42 113.333 96.333 170 163 170c31.333 0 65.5 -12.333 102.5 -37s69.833 -37 98.5 -37c32.667 0 55.334 24.667 68.001 74l80 -88c-42 -113.333 -96.667 -170 -164 -170c-30 0 -63.833 12.667 -101.5 38s-70.834 38 -99.501 38c-32.667 0 -55 -25.333 -67 -76z
M72 287v532c0 112 31.333 194.667 94 248s158.834 80 288.501 80s226 -26.667 289 -80s94.5 -136 94.5 -248v-532c0 -104 -31.5 -181.167 -94.5 -231.5s-159.333 -75.5 -289 -75.5s-225.834 25.167 -288.501 75.5s-94 127.5 -94 231.5zM389 305
c0 -66.667 21.833 -100 65.5 -100s65.5 33.333 65.5 100v516c0 66.667 -21.833 100.167 -65.5 100.5s-65.5 -33.167 -65.5 -100.5v-516z" />
    <glyph glyph-name="odieresis" unicode="&#xf6;" 
d="M305 1247c-82 0 -123 42.333 -123 127c0 88.667 41 133 123 133c84.667 0 127 -44.333 127 -133c0 -84.667 -42.333 -127 -127 -127zM600 1247c-82 0 -123 42.333 -123 127c0 88.667 41 133 123 133c83.333 0 125 -44.333 125 -133c0 -84.667 -41.667 -127 -125 -127z
M72 287v532c0 112 31.333 194.667 94 248s158.834 80 288.501 80s226 -26.667 289 -80s94.5 -136 94.5 -248v-532c0 -104 -31.5 -181.167 -94.5 -231.5s-159.333 -75.5 -289 -75.5s-225.834 25.167 -288.501 75.5s-94 127.5 -94 231.5zM389 305
c0 -66.667 21.833 -100 65.5 -100s65.5 33.333 65.5 100v516c0 66.667 -21.833 100.167 -65.5 100.5s-65.5 -33.167 -65.5 -100.5v-516z" />
    <glyph glyph-name="divide" unicode="&#xf7;" horiz-adv-x="815" 
d="M408 1006c-88.667 0 -133.167 46.333 -133.5 139s44.167 139 133.5 139c87.333 0 131 -46.333 131 -139s-43.667 -139 -131 -139zM702 938v-236h-589v236h589zM408 356c-88.667 0 -133.167 46.5 -133.5 139.5s44.167 139.5 133.5 139.5c87.333 0 131 -46.5 131 -139.5
s-43.667 -139.5 -131 -139.5z" />
    <glyph glyph-name="oslash" unicode="&#xf8;" 
d="M778 1028c39.333 -49.333 59.333 -119 60 -209v-532c0 -104 -31.5 -181.167 -94.5 -231.5s-159.167 -75.5 -288.5 -75.5c-87.333 0 -160.333 11.333 -219 34l-9 -14h-155l53 98c-35.333 45.333 -53 108.333 -53 189v532c0 112 31.333 194.667 94 248s159 80 289 80
c88.667 0 159 -11.667 211 -35l8 14h157zM389 821v-226.999l131 244c-4 56 -25.667 84 -65 84c-44 -0.666992 -66 -34.334 -66 -101.001zM454.5 205.001c43.667 0 65.5 33.333 65.5 100v242l-131 -246c0 -64 21.833 -96 65.5 -96z" />
    <glyph glyph-name="ugrave" unicode="&#xf9;" 
d="M342 1249l-217 252h272l135 -252h-190zM838 1126v-1126h-318v98c-75.333 -79.333 -154.333 -118.666 -237 -117.999c-140.667 0 -211 81.667 -211 245v901h317v-837c0 -56 21.333 -84 64 -84c18 0 40.333 11 67 33v888h318z" />
    <glyph glyph-name="uacute" unicode="&#xfa;" 
d="M520 1251h-190l135 252h272zM838 1126v-1126h-318v98c-75.333 -79.333 -154.333 -118.666 -237 -117.999c-140.667 0 -211 81.667 -211 245v901h317v-837c0 -56 21.333 -84 64 -84c18 0 40.333 11 67 33v888h318z" />
    <glyph glyph-name="ucircumflex" unicode="&#xfb;" 
d="M143 1251l185 252h204l185 -252h-203l-80 150h-8l-80 -150h-203zM838 1126v-1126h-318v98c-75.333 -79.333 -154.333 -118.666 -237 -117.999c-140.667 0 -211 81.667 -211 245v901h317v-837c0 -56 21.333 -84 64 -84c18 0 40.333 11 67 33v888h318z" />
    <glyph glyph-name="udieresis" unicode="&#xfc;" 
d="M281 1247c-82 0 -123 42.333 -123 127c0 88.667 41 133 123 133c84.667 0 127 -44.333 127 -133c0 -84.667 -42.333 -127 -127 -127zM575 1247c-82 0 -122.667 42.333 -122 127c0 88.667 40.667 133 122 133c83.333 0 125 -44.333 125 -133
c0 -84.667 -41.667 -127 -125 -127zM838 1126v-1126h-318v98c-75.333 -79.333 -154.333 -118.666 -237 -117.999c-140.667 0 -211 81.667 -211 245v901h317v-837c0 -56 21.333 -84 64 -84c18 0 40.333 11 67 33v888h318z" />
    <glyph glyph-name="yacute" unicode="&#xfd;" horiz-adv-x="829" 
d="M510 1251h-191l136 252h272zM184 -471c-53.333 0 -101.667 9.00098 -145 27.001v241c36.667 -28.667 77.667 -43 123 -43c30 0 54.167 12 72.5 36s33.833 64.667 46.5 122l18 88l-297 1126h336l45 -383c20.667 -172 31 -273 31 -303h22c0 34 1.66699 68.5 5 103.5
s7.5 72.667 12.5 113s8.16699 69.166 9.5 86.499l35 383h329l-288 -1226c-30 -125.333 -73.833 -218.5 -131.5 -279.5s-132.167 -91.5 -223.5 -91.5z" />
    <glyph glyph-name="thorn" unicode="&#xfe;" horiz-adv-x="864" 
d="M598 1147c130 0 195 -82 195 -246v-676c0 -164 -65 -245.667 -195 -245c-72.667 0 -142.334 38 -209.001 114v-555h-317v2099h317v-606c66.667 76.667 136.334 115 209.001 115zM475 309v488c0 50.667 -2.66699 84.167 -8 100.5s-16.333 24.5 -33 24.5
c-15.333 0 -30.333 -8.33301 -45 -25v-666c16.667 -18 31.667 -26.667 45 -26c16.667 0 27.667 6.83301 33 20.5s8 41.5 8 83.5z" />
    <glyph glyph-name="ydieresis" unicode="&#xff;" horiz-adv-x="829" 
d="M270 1247c-82 0 -123 42.333 -123 127c0 88.667 41 133 123 133c84.667 0 127 -44.333 127 -133c0 -84.667 -42.333 -127 -127 -127zM565 1247c-82 0 -123 42.333 -123 127c0 88.667 41 133 123 133c83.333 0 125 -44.333 125 -133c0 -84.667 -41.667 -127 -125 -127z
M184 -471c-53.333 0 -101.667 9.00098 -145 27.001v241c36.667 -28.667 77.667 -43 123 -43c30 0 54.167 12 72.5 36s33.833 64.667 46.5 122l18 88l-297 1126h336l45 -383c20.667 -172 31 -273 31 -303h22c0 34 1.66699 68.5 5 103.5s7.5 72.667 12.5 113
s8.16699 69.166 9.5 86.499l35 383h329l-288 -1226c-30 -125.333 -73.833 -218.5 -131.5 -279.5s-132.167 -91.5 -223.5 -91.5z" />
    <glyph glyph-name="Amacron" unicode="&#x100;" horiz-adv-x="1058" 
d="M285 1800v180h493v-180h-493zM2 0l352 1638h351l352 -1638h-338l-49 340h-283l-49 -340h-336zM424 586h209l-64 428c-9.33301 54.667 -18 129.667 -26 225h-27c-2.66699 -28.667 -13 -103.667 -31 -225z" />
    <glyph glyph-name="amacron" unicode="&#x101;" horiz-adv-x="874" 
d="M231 1290v166h494v-166h-494zM446 1149c237.333 0 356.334 -116 357.001 -348v-801h-318v113c-72.667 -88.667 -152.334 -133 -239.001 -133c-143.333 0 -215 112.333 -215 337c0 236 80.333 354.333 241 355c74 0 145 -26 213 -78v188c0 94 -41 141.333 -123 142
c-68 0 -149 -34.333 -243 -103v279c132 32.667 241 49 327 49zM416.001 217c26 0 49.001 13.667 69.001 41v178c-28.667 20.667 -50.334 31 -65.001 31c-48 0 -72 -43 -72 -129c0 -80.667 22.667 -121 68 -121z" />
    <glyph glyph-name="Abreve" unicode="&#x102;" horiz-adv-x="1058" 
d="M530 1763c-76.667 0 -134 19.167 -172 57.5s-57.667 97.166 -59 176.499h147c4 -56 32 -84 84 -84c53.333 0 81.333 28 84 84h150c-2.66699 -79.333 -22.5 -138.166 -59.5 -176.499s-95.167 -57.5 -174.5 -57.5zM2 0l352 1638h351l352 -1638h-338l-49 340h-283l-49 -340
h-336zM424 586h209l-64 428c-9.33301 54.667 -18 129.667 -26 225h-27c-2.66699 -28.667 -13 -103.667 -31 -225z" />
    <glyph glyph-name="abreve" unicode="&#x103;" horiz-adv-x="874" 
d="M477 1247c-150 0 -226.999 85.333 -230.999 256h147c5.33301 -68 33.333 -102 84 -102c52 0 80 34 84 102h150c-2.66699 -86 -22.834 -150.167 -60.501 -192.5s-95.5 -63.5 -173.5 -63.5zM446.001 1149c237.333 0 356.334 -116 357.001 -348v-801h-318v113
c-72.667 -88.667 -152.334 -133 -239.001 -133c-143.333 0 -215 112.333 -215 337c0 236 80.333 354.333 241 355c74 0 145 -26 213 -78v188c0 94 -41 141.333 -123 142c-68 0 -149 -34.333 -243 -103v279c132 32.667 241 49 327 49zM416.002 217
c26 0 49.001 13.667 69.001 41v178c-28.667 20.667 -50.334 31 -65.001 31c-48 0 -72 -43 -72 -129c0 -80.667 22.667 -121 68 -121z" />
    <glyph glyph-name="Aogonek" unicode="&#x104;" horiz-adv-x="1058" 
d="M846 -207c0 -48 25.999 -72 77.999 -72c20.667 0 47.334 8.33301 80.001 25v-125c-68 -32.667 -123.333 -49 -166 -49c-128.667 0 -193 57.333 -193 172c0 112 60 197.333 180 256h-106l-49 340h-283l-49 -340h-336l352 1638h351l352 -1638
c-140.667 -67.333 -211 -136.333 -211 -207zM423.999 586h209l-64 428c-9.33301 54.667 -18 129.667 -26 225h-27c-2.66699 -28.667 -13 -103.667 -31 -225z" />
    <glyph glyph-name="aogonek" unicode="&#x105;" horiz-adv-x="874" 
d="M803 0c-140.667 -66.667 -210.999 -135.667 -210.999 -207c0 -49.333 26 -74 78 -74c18 0 44.667 9 80 27v-125c-64 -32.667 -119.333 -49 -166 -49c-128.667 0 -193 56.667 -193 170s60 199.333 180 258h-86v113c-72.667 -88.667 -152.334 -133 -239.001 -133
c-143.333 0 -215 112.333 -215 337c0 236 80.333 354.333 241 355c74 0 145 -26 213 -78v188c0 94 -41 141.333 -123 142c-68 0 -149 -34.333 -243 -103v279c132.667 32.667 241.667 49 327 49c237.333 0 356.333 -116 357 -348v-801zM485.001 258l0.000976562 178
c-28.667 20.667 -50.334 31 -65.001 31c-48 0 -72 -43 -72 -129c0 -80.667 22.667 -121 68 -121c25.333 0 48.333 13.667 69 41z" />
    <glyph glyph-name="Cacute" unicode="&#x106;" horiz-adv-x="878" 
d="M610 1761h-196l127 232h272zM102 391v854c0 276 140.667 414 422 414c117.333 0 215 -13 293 -39v-313c-61.333 57.333 -137.666 86 -228.999 86c-106.667 0 -160 -62.333 -160 -187v-774c0 -124 53.333 -186 160 -186c83.333 0 159.666 27.333 228.999 82v-312
c-94 -26 -191.667 -39 -293 -39c-281.333 0 -422 138 -422 414z" />
    <glyph glyph-name="cacute" unicode="&#x107;" horiz-adv-x="677" 
d="M473 1251h-190l135 252h272zM72 291l0.000976562 545.001c0 26 0.666992 48.167 2 66.5s8.16602 44.166 20.499 77.499s29.333 60.666 51 81.999s55.667 40.5 102 57.5s101.833 25.5 166.5 25.5c83.333 0 159.666 -13.667 228.999 -41v-248
c-69.333 40.667 -126 61.334 -170 62.001c-56 0 -84 -30.333 -84 -91v-520c0 -68 29.333 -102 88 -102c42 0 97.333 20.333 166 61v-248c-69.333 -27.333 -145.666 -41 -228.999 -41c-64 0 -119.333 8.66699 -166 26s-80.834 36.833 -102.501 58.5s-38.667 49.667 -51 84
s-19.166 60.333 -20.499 78s-2 40.167 -2 67.5z" />
    <glyph glyph-name="Cdotaccent" unicode="&#x10a;" horiz-adv-x="878" 
d="M514 1735c-95.333 0 -143 39.333 -143 118c0 80.667 47.667 121 143 121c96.667 0 145 -40.333 145 -121c0 -78.667 -48.333 -118 -145 -118zM102 391v854c0 276 140.667 414 422 414c117.333 0 215 -13 293 -39v-313c-61.333 57.333 -137.666 86 -228.999 86
c-106.667 0 -160 -62.333 -160 -187v-774c0 -124 53.333 -186 160 -186c83.333 0 159.666 27.333 228.999 82v-312c-94 -26 -191.667 -39 -293 -39c-281.333 0 -422 138 -422 414z" />
    <glyph glyph-name="cdotaccent" unicode="&#x10b;" horiz-adv-x="677" 
d="M383 1235c-95.333 0 -143 37.667 -143 113c0 78 47.667 116.667 143 116c96.667 0 145 -38.667 145 -116c0 -75.333 -48.333 -113 -145 -113zM72 291l0.000976562 545.001c0 26 0.666992 48.167 2 66.5s8.16602 44.166 20.499 77.499s29.333 60.666 51 81.999
s55.667 40.5 102 57.5s101.833 25.5 166.5 25.5c83.333 0 159.666 -13.667 228.999 -41v-248c-69.333 40.667 -126 61.334 -170 62.001c-56 0 -84 -30.333 -84 -91v-520c0 -68 29.333 -102 88 -102c42 0 97.333 20.333 166 61v-248
c-69.333 -27.333 -145.666 -41 -228.999 -41c-64 0 -119.333 8.66699 -166 26s-80.834 36.833 -102.501 58.5s-38.667 49.667 -51 84s-19.166 60.333 -20.499 78s-2 40.167 -2 67.5z" />
    <glyph glyph-name="Ccaron" unicode="&#x10c;" horiz-adv-x="878" 
d="M242 1995h202l68 -131h8l70 131h203l-175 -232h-202zM102 391v854c0 276 140.667 414 422 414c117.333 0 215 -13 293 -39v-313c-61.333 57.333 -137.666 86 -228.999 86c-106.667 0 -160 -62.333 -160 -187v-774c0 -124 53.333 -186 160 -186
c83.333 0 159.666 27.333 228.999 82v-312c-94 -26 -191.667 -39 -293 -39c-281.333 0 -422 138 -422 414z" />
    <glyph glyph-name="ccaron" unicode="&#x10d;" horiz-adv-x="677" 
d="M96 1503l203 0.000976562l23 -43c5.33301 -12 14.5 -29.333 27.5 -52s22.833 -41.334 29.5 -56.001h8c2.66699 8 7.5 18.5 14.5 31.5l19.5 35c6 10.333 11.667 19.5 17 27.5l6 14l23 43h203l-185 -252h-204zM72 291.001l0.000976562 545.001c0 26 0.666992 48.167 2 66.5
s8.16602 44.166 20.499 77.499s29.333 60.666 51 81.999s55.667 40.5 102 57.5s101.833 25.5 166.5 25.5c83.333 0 159.666 -13.667 228.999 -41v-248c-69.333 40.667 -126 61.334 -170 62.001c-56 0 -84 -30.333 -84 -91v-520c0 -68 29.333 -102 88 -102
c42 0 97.333 20.333 166 61v-248c-69.333 -27.333 -145.666 -41 -228.999 -41c-64 0 -119.333 8.66699 -166 26s-80.834 36.833 -102.501 58.5s-38.667 49.667 -51 84s-19.166 60.333 -20.499 78s-2 40.167 -2 67.5z" />
    <glyph glyph-name="Dcaron" unicode="&#x10e;" horiz-adv-x="1054" 
d="M246 1995h203l67 -131h8l70 131h203l-174 -232h-203zM102 0v1638h433c142 0 247 -33.667 315 -101s102 -171.333 102 -312v-807c0 -142 -34.5 -247.167 -103.5 -315.5s-174.5 -102.5 -316.5 -102.5h-430zM428 266h109c60 0 90 58 90 174v725c0 116 -30 174 -90 174h-109
v-1073z" />
    <glyph glyph-name="dcaron" unicode="&#x10f;" horiz-adv-x="1079" 
d="M479 1028v609.999h318v-1638h-318v98c-66.667 -79.333 -137.667 -118.666 -213 -117.999c-130 0 -194.667 81.667 -194 245v676c0 164 64.667 246 194 246c75.333 0 146.333 -39.667 213 -119zM893 1638h237l-137 -307h-149zM430 204.999c15.333 0 31.666 11 48.999 33
v655c-15.333 19.333 -31.666 29 -48.999 29c-16.667 0 -27.667 -8.33301 -33 -25s-8 -50 -8 -100v-488c0 -42 2.66699 -69.833 8 -83.5s16.333 -20.5 33 -20.5z" />
    <glyph glyph-name="Dcroat" unicode="&#x110;" horiz-adv-x="1054" 
d="M535 1638c142 0 247 -33.667 315 -101s102 -171.333 102 -312v-807c0 -142 -34.5 -247.167 -103.5 -315.5s-174.5 -102.5 -316.5 -102.5h-430v727h-102v184h102v727h433zM627 440v725c0 116 -30 174 -90 174h-109v-428h88v-184h-88v-461h109c60 0 90 58 90 174z" />
    <glyph glyph-name="dcroat" unicode="&#x111;" 
d="M899 1434v-166.001h-61v-1268h-318v98c-75.333 -79.333 -154.333 -118.666 -237 -117.999c-140.667 0 -211 81.667 -211 245v676c0 164 70.333 246 211 246c83.333 0 162.333 -39.667 237 -119v240h-151v166h151v204h318v-204h61zM520 239.999l-0.000976562 649
c-27.333 22 -49.666 33 -66.999 33c-42 0 -63.333 -28 -64 -84v-549c0 -56 20.667 -84 62 -84c14.667 0 37.667 11.667 69 35z" />
    <glyph glyph-name="Emacron" unicode="&#x112;" horiz-adv-x="903" 
d="M250 1796v180h493v-180h-493zM580 1372c-57.333 0 -97 -15.3311 -119 -45.998s-33 -86.334 -33 -167.001v-207h330v-266h-330v-246c0 -66.667 11 -112.334 33 -137.001s61.667 -37 119 -37h241v-266h-301c-142 0 -247.167 34.167 -315.5 102.5s-102.5 173.5 -102.5 315.5
v807c0 140.667 34.167 244.667 102.5 312s173.5 101 315.5 101h301v-266h-241z" />
    <glyph glyph-name="emacron" unicode="&#x113;" 
d="M188 1290v166h494v-166h-494zM838 446h-449v-170c0 -48 36.333 -71.667 109 -71c79.333 0 185.666 30 318.999 90v-268c-100 -31.333 -211.333 -47 -334 -47c-78 0 -144.5 8.16699 -199.5 24.5s-95.833 35 -122.5 56s-47.167 48.333 -61.5 82s-22.5 59.667 -24.5 78
s-3 41.833 -3 70.5v545c0 18 0.333008 32.333 1 43s3.33398 28 8.00098 52s11.5 44.5 20.5 61.5s23.333 35.667 43 56s42.834 37.333 69.501 51s61.167 25 103.5 34s90.166 13.5 143.499 13.5c128.667 0 223.667 -25.667 285 -77s92 -129.333 92 -234v-390zM459 922
c-46.667 0 -70 -33.667 -70 -101v-180h131v180c0 67.333 -20.333 101 -61 101z" />
    <glyph glyph-name="Edotaccent" unicode="&#x116;" horiz-adv-x="903" 
d="M494 1735c-95.333 0 -143.333 39.333 -144 118c0 80.667 48 121 144 121c96.667 0 145 -40.333 145 -121c0 -78.667 -48.333 -118 -145 -118zM580 1372c-57.333 0 -97 -15.3311 -119 -45.998s-33 -86.334 -33 -167.001v-207h330v-266h-330v-246
c0 -66.667 11 -112.334 33 -137.001s61.667 -37 119 -37h241v-266h-301c-142 0 -247.167 34.167 -315.5 102.5s-102.5 173.5 -102.5 315.5v807c0 140.667 34.167 244.667 102.5 312s173.5 101 315.5 101h301v-266h-241z" />
    <glyph glyph-name="edotaccent" unicode="&#x117;" 
d="M434 1235c-95.333 0 -143 37.667 -143 113c0 78 47.667 116.667 143 116c96.667 0 145.334 -38.667 146.001 -116c-0.666992 -75.333 -49.334 -113 -146.001 -113zM838 446h-449v-170c0 -48 36.333 -71.667 109 -71c79.333 0 185.666 30 318.999 90v-268
c-100 -31.333 -211.333 -47 -334 -47c-78 0 -144.5 8.16699 -199.5 24.5s-95.833 35 -122.5 56s-47.167 48.333 -61.5 82s-22.5 59.667 -24.5 78s-3 41.833 -3 70.5v545c0 18 0.333008 32.333 1 43s3.33398 28 8.00098 52s11.5 44.5 20.5 61.5s23.333 35.667 43 56
s42.834 37.333 69.501 51s61.167 25 103.5 34s90.166 13.5 143.499 13.5c128.667 0 223.667 -25.667 285 -77s92 -129.333 92 -234v-390zM459 922c-46.667 0 -70 -33.667 -70 -101v-180h131v180c0 67.333 -20.333 101 -61 101z" />
    <glyph glyph-name="Eogonek" unicode="&#x118;" horiz-adv-x="903" 
d="M580 1372c-57.333 0 -97.001 -15.3311 -119.001 -45.998s-33 -86.334 -33 -167.001v-207h330v-266h-330v-246c0 -66.667 11 -112.334 33 -137.001s61.667 -37 119 -37h241v-266c-140.667 -66.667 -211 -135.667 -211 -207c0 -48 26 -72 78 -72
c20.667 0 47.334 8.33301 80.001 25v-125c-68 -32.667 -123.333 -49 -166 -49c-128.667 0 -192.667 57.333 -192 172c0 112 60 197.333 180 256h-70c-142 0 -247.167 34.167 -315.5 102.5s-102.5 173.5 -102.5 315.5v807c0 140.667 34.167 244.667 102.5 312
s173.5 101 315.5 101h301v-266h-241z" />
    <glyph glyph-name="eogonek" unicode="&#x119;" 
d="M838 446l-449 -0.000976562v-170c0 -48 36.333 -71.667 109 -71c79.333 0 185.666 30 318.999 90v-268c-57.333 -18 -126.333 -31.667 -207 -41c-121.333 -61.333 -182 -125.666 -182 -192.999c0 -49.333 26 -74 78 -74c18 0 44.667 9 80 27v-125
c-62.667 -32.667 -118 -49 -166 -49c-128.667 0 -193 56.667 -193 170c0 104 50.667 185.333 152 244c-58.667 6.66699 -108.5 19.167 -149.5 37.5s-71.333 37.5 -91 57.5s-35 45.333 -46 76s-17.167 54.167 -18.5 70.5s-2 37.5 -2 63.5v545c0 18 0.333008 32.333 1 43
s3.33398 28 8.00098 52s11.5 44.5 20.5 61.5s23.333 35.667 43 56s42.834 37.333 69.501 51s61.167 25 103.5 34s90.166 13.5 143.499 13.5c128.667 0 223.667 -25.667 285 -77s92 -129.333 92 -234v-390zM389 820.999v-180h131v180c0 66.667 -20.333 100.334 -61 101.001
c-46.667 -0.666992 -70 -34.334 -70 -101.001z" />
    <glyph glyph-name="Ecaron" unicode="&#x11a;" horiz-adv-x="903" 
d="M221 1995h203l68 -131h8l69 131h203l-174 -232h-203zM580 1372c-57.333 0 -97 -15.3311 -119 -45.998s-33 -86.334 -33 -167.001v-207h330v-266h-330v-246c0 -66.667 11 -112.334 33 -137.001s61.667 -37 119 -37h241v-266h-301c-142 0 -247.167 34.167 -315.5 102.5
s-102.5 173.5 -102.5 315.5v807c0 140.667 34.167 244.667 102.5 312s173.5 101 315.5 101h301v-266h-241z" />
    <glyph glyph-name="ecaron" unicode="&#x11b;" 
d="M147 1503l203 0.000976562l23 -43c5.33301 -12 14.5 -29.333 27.5 -52s22.833 -41.334 29.5 -56.001h8c2.66699 8 7.5 18.5 14.5 31.5l19.5 35c6 10.333 11 19.5 15 27.5l9 14l22 43h203l-184 -252h-205zM838 446.001h-449v-170c0 -48 36.333 -71.667 109 -71
c79.333 0 185.666 30 318.999 90v-268c-100 -31.333 -211.333 -47 -334 -47c-78 0 -144.5 8.16699 -199.5 24.5s-95.833 35 -122.5 56s-47.167 48.333 -61.5 82s-22.5 59.667 -24.5 78s-3 41.833 -3 70.5v545c0 18 0.333008 32.333 1 43s3.33398 28 8.00098 52
s11.5 44.5 20.5 61.5s23.333 35.667 43 56s42.834 37.333 69.501 51s61.167 25 103.5 34s90.166 13.5 143.499 13.5c128.667 0 223.667 -25.667 285 -77s92 -129.333 92 -234v-390zM459 922.001c-46.667 0 -70 -33.667 -70 -101v-180h131v180c0 67.333 -20.333 101 -61 101z
" />
    <glyph glyph-name="Gbreve" unicode="&#x11e;" horiz-adv-x="1036" 
d="M516 1759c-76.667 0 -134 19.167 -172 57.5s-57.667 97.166 -59 176.499h147c4 -56 32 -84 84 -84c53.333 0 81.333 28 84 84h150c-2.66699 -79.333 -22.5 -138.166 -59.5 -176.499s-95.167 -57.5 -174.5 -57.5zM102 373v871.999c0 140.667 35.167 244.834 105.5 312.501
s177.833 101.5 322.5 101.5c134 0 262.333 -32 385 -96v-310c-121.333 91.333 -240 137.333 -356 138c-46.667 0 -80.167 -13.333 -100.5 -40s-30.5 -70.667 -30.5 -132v-799c0 -66.667 6.5 -112.334 19.5 -137.001s36.5 -37 70.5 -37c36.667 0 60.834 13.333 72.501 40
s17.5 71.334 17.5 134.001l-2 280h-92v267h418l2 -594c0 -134 -34.167 -233 -102.5 -297s-173.5 -96 -315.5 -96c-140.667 0 -244.834 32 -312.501 96s-101.5 163 -101.5 297z" />
    <glyph glyph-name="gbreve" unicode="&#x11f;" horiz-adv-x="878" 
d="M393 1247c-150 0 -226.999 85.333 -230.999 256h147c5.33301 -68 33.333 -102 84 -102c52 0 80 34 84 102h150c-2.66699 -86 -22.834 -150.167 -60.501 -192.5s-95.5 -63.5 -173.5 -63.5zM469.001 90c252.667 0 378.999 -106.998 378.999 -320.998
c0 -128.667 -41 -227.5 -123 -296.5s-196 -103.5 -342 -103.5c-118.667 0 -226 22 -322 66v276c110.667 -61.333 208.334 -92 293.001 -92c56 0 100.167 10.333 132.5 31s48.5 48.667 48.5 84c0 57.333 -47.333 86 -142 86h-59c-195.333 0 -293 73.667 -293 221
c0 104 55.333 194 166 270c-91.333 46.667 -137 137 -137 271v254c0 106.667 29 185.5 87 236.5s147 76.5 267 76.5c34 0 64 -2 90 -6c126.667 109.333 236.667 157 330 143v-268c-42 42 -98 65 -168 69c70.667 -50.667 106 -134.334 106 -251.001v-254
c0 -106.667 -29.333 -185.667 -88 -237s-148.667 -77 -270 -77c-22 0 -38.333 0.666992 -49 2c-49.333 -36.667 -74 -73.334 -74 -110.001c0 -46.667 32.667 -70 98 -70h70zM360 805.002v-197c0 -38 4.5 -64.167 13.5 -78.5s26.5 -21.5 52.5 -21.5
c24.667 0 41.834 7.16699 51.501 21.5s14.5 40.5 14.5 78.5v197c0 39.333 -4.83301 66.5 -14.5 81.5s-26.834 22.5 -51.501 22.5c-26 0 -43.5 -7.5 -52.5 -22.5s-13.5 -42.167 -13.5 -81.5z" />
    <glyph glyph-name="Gdotaccent" unicode="&#x120;" horiz-adv-x="1036" 
d="M514 1735c-95.333 0 -143 39.333 -143 118c0 80.667 47.667 121 143 121c96.667 0 145 -40.333 145 -121c0 -78.667 -48.333 -118 -145 -118zM102 373v871.999c0 140.667 35.167 244.834 105.5 312.501s177.833 101.5 322.5 101.5c134 0 262.333 -32 385 -96v-310
c-121.333 91.333 -240 137.333 -356 138c-46.667 0 -80.167 -13.333 -100.5 -40s-30.5 -70.667 -30.5 -132v-799c0 -66.667 6.5 -112.334 19.5 -137.001s36.5 -37 70.5 -37c36.667 0 60.834 13.333 72.501 40s17.5 71.334 17.5 134.001l-2 280h-92v267h418l2 -594
c0 -134 -34.167 -233 -102.5 -297s-173.5 -96 -315.5 -96c-140.667 0 -244.834 32 -312.501 96s-101.5 163 -101.5 297z" />
    <glyph glyph-name="gdotaccent" unicode="&#x121;" horiz-adv-x="878" 
d="M393 1235c-95.333 0 -143 37.667 -143 113c0 78 47.667 116.667 143 116c96.667 0 145.334 -38.667 146.001 -116c-0.666992 -75.333 -49.334 -113 -146.001 -113zM469 90c252.667 0 378.999 -106.998 378.999 -320.998c0 -128.667 -41 -227.5 -123 -296.5
s-196 -103.5 -342 -103.5c-118.667 0 -226 22 -322 66v276c110.667 -61.333 208.334 -92 293.001 -92c56 0 100.167 10.333 132.5 31s48.5 48.667 48.5 84c0 57.333 -47.333 86 -142 86h-59c-195.333 0 -293 73.667 -293 221c0 104 55.333 194 166 270
c-91.333 46.667 -137 137 -137 271v254c0 106.667 29 185.5 87 236.5s147 76.5 267 76.5c34 0 64 -2 90 -6c126.667 109.333 236.667 157 330 143v-268c-42 42 -98 65 -168 69c70.667 -50.667 106 -134.334 106 -251.001v-254c0 -106.667 -29.333 -185.667 -88 -237
s-148.667 -77 -270 -77c-22 0 -38.333 0.666992 -49 2c-49.333 -36.667 -74 -73.334 -74 -110.001c0 -46.667 32.667 -70 98 -70h70zM359.999 805.002v-197c0 -38 4.5 -64.167 13.5 -78.5s26.5 -21.5 52.5 -21.5c24.667 0 41.834 7.16699 51.501 21.5s14.5 40.5 14.5 78.5
v197c0 39.333 -4.83301 66.5 -14.5 81.5s-26.834 22.5 -51.501 22.5c-26 0 -43.5 -7.5 -52.5 -22.5s-13.5 -42.167 -13.5 -81.5z" />
    <glyph glyph-name="uni0122" unicode="&#x122;" horiz-adv-x="1036" 
d="M102 373v871.999c0 140.667 35.167 244.834 105.5 312.501s177.833 101.5 322.5 101.5c134 0 262.333 -32 385 -96v-310c-121.333 91.333 -240 137.333 -356 138c-46.667 0 -80.167 -13.333 -100.5 -40s-30.5 -70.667 -30.5 -132v-799
c0 -66.667 6.5 -112.334 19.5 -137.001s36.5 -37 70.5 -37c36.667 0 60.834 13.333 72.501 40s17.5 71.334 17.5 134.001l-2 280h-92v267h418l2 -594c0 -134 -34.167 -233 -102.5 -297s-173.5 -96 -315.5 -96c-140.667 0 -244.834 32 -312.501 96s-101.5 163 -101.5 297z
M379 -385.001l20 307h236l-109 -307h-147z" />
    <glyph glyph-name="uni0123" unicode="&#x123;" horiz-adv-x="878" 
d="M393.5 1255c-95.667 0 -143.501 45.999 -143.501 137.999c0 24.667 3.33301 47 10 67c15.333 60 42.666 111.333 81.999 154c54.667 64 96.334 103.667 125.001 119l100 -125c-65.333 -24.667 -111 -50 -137 -76c70.667 -9.33301 106.334 -55.666 107.001 -138.999
c0 -92 -47.833 -138 -143.5 -138zM468.999 89.999c252.667 0 378.999 -106.998 378.999 -320.998c0 -128.667 -41 -227.5 -123 -296.5s-196 -103.5 -342 -103.5c-118.667 0 -226 22 -322 66v276c110.667 -61.333 208.334 -92 293.001 -92c56 0 100.167 10.333 132.5 31
s48.5 48.667 48.5 84c0 57.333 -47.333 86 -142 86h-59c-195.333 0 -293 73.667 -293 221c0 104 55.333 194 166 270c-91.333 46.667 -137 137 -137 271v254c0 106.667 29 185.5 87 236.5s147 76.5 267 76.5c34 0 64 -2 90 -6c126.667 109.333 236.667 157 330 143v-268
c-42 42 -98 65 -168 69c70.667 -50.667 106 -134.334 106 -251.001v-254c0 -106.667 -29.333 -185.667 -88 -237s-148.667 -77 -270 -77c-22 0 -38.333 0.666992 -49 2c-49.333 -36.667 -74 -73.334 -74 -110.001c0 -46.667 32.667 -70 98 -70h70zM359.998 805.001v-197
c0 -38 4.5 -64.167 13.5 -78.5s26.5 -21.5 52.5 -21.5c24.667 0 41.834 7.16699 51.501 21.5s14.5 40.5 14.5 78.5v197c0 39.333 -4.83301 66.5 -14.5 81.5s-26.834 22.5 -51.501 22.5c-26 0 -43.5 -7.5 -52.5 -22.5s-13.5 -42.167 -13.5 -81.5z" />
    <glyph glyph-name="Hbar" unicode="&#x126;" horiz-adv-x="1062" 
d="M1022 1393v-185h-61v-1208h-324v686h-209v-686h-326v1208h-61v185h61v245h326v-245h209v245h324v-245h61zM637 952v256h-209v-256h209z" />
    <glyph glyph-name="hbar" unicode="&#x127;" 
d="M627 1147c140.667 0 211.001 -82 211.001 -246v-901h-318v838c0 56 -21 84 -63 84c-18 0 -40.667 -11 -68 -33v-889h-317v1268h-66v166h66v204h317v-204h148v-166h-148v-240c75.333 79.333 154.666 119 237.999 119z" />
    <glyph glyph-name="Imacron" unicode="&#x12a;" horiz-adv-x="763" 
d="M135 1796v180h494v-180h-494zM61 0v266h158v1106h-158v266h641v-266h-157v-1106h157v-266h-641z" />
    <glyph glyph-name="imacron" unicode="&#x12b;" horiz-adv-x="428" 
d="M-31 1290v166h494v-166h-494zM373 0h-318v1126h318v-1126z" />
    <glyph glyph-name="Iogonek" unicode="&#x12e;" horiz-adv-x="763" 
d="M702 1372h-157.001v-1106h157v-266h-157c-140.667 -66.667 -211 -135.667 -211 -207c0 -48 26 -72 78 -72c20.667 0 47.334 8.33301 80.001 25v-125c-68 -32.667 -123.333 -49 -166 -49c-128.667 0 -193 57.333 -193 172c0 112 60 197.333 180 256h-252v266h158v1106
h-158v266h641v-266z" />
    <glyph glyph-name="iogonek" unicode="&#x12f;" horiz-adv-x="428" 
d="M215 1235c-95.333 0 -143 37.667 -143 113c0 78 47.667 116.667 143 116c96.667 0 145 -38.667 145 -116c0 -75.333 -48.333 -113 -145 -113zM373 0c-140.667 -66.667 -211 -135.667 -211 -207c0 -49.333 26 -74 78 -74c18 0 44.333 9 79 27v-125
c-64 -32.667 -119 -49 -165 -49c-128.667 0 -193 56.667 -193 170s60 199.333 180 258h-86v1126h318v-1126z" />
    <glyph glyph-name="Idotaccent" unicode="&#x130;" horiz-adv-x="763" 
d="M379 1735c-95.333 0 -143 39.333 -143 118c0 80.667 47.667 121 143 121c96.667 0 145 -40.333 145 -121c0 -78.667 -48.333 -118 -145 -118zM61 0v266h158v1106h-158v266h641v-266h-157v-1106h157v-266h-641z" />
    <glyph glyph-name="dotlessi" unicode="&#x131;" horiz-adv-x="428" 
d="M373 0h-318v1126h318v-1126z" />
    <glyph glyph-name="uni0136" unicode="&#x136;" horiz-adv-x="1007" 
d="M102 0v1638h326v-686l25 21c31.333 26 55.833 53.333 73.5 82s34.334 82.5 50.001 161.5s23.5 181.5 23.5 307.5v114h326v-153c0 -259.333 -68.333 -456.666 -205 -591.999c136.667 0 205 -88 205 -264v-629h-326v565c0 94 -24.667 141.333 -74 142
c-28.667 0 -61.334 -22 -98.001 -66v-641h-326zM377 -385.001l20 307h236l-109 -307h-147z" />
    <glyph glyph-name="uni0137" unicode="&#x137;" horiz-adv-x="874" 
d="M834 1059c0 -186 -64.333 -323.333 -193 -412c128.667 0 193 -75.667 193 -227v-420h-314v410c0 42 -13.667 63 -41 63c-20.667 0 -50.667 -11.667 -90 -35v-438h-317v1638h317v-919l8 4c45.333 19.333 76.5 48.333 93.5 87s25.5 116 25.5 232v84h318v-67zM334 -381
l20 307h236l-109 -307h-147z" />
    <glyph glyph-name="Lacute" unicode="&#x139;" horiz-adv-x="811" 
d="M358 1761h-196l127 232h272zM102 0v1638h326v-1372h352v-266h-678z" />
    <glyph glyph-name="lacute" unicode="&#x13a;" horiz-adv-x="600" 
d="M326 1761h-197l127 232h272zM322 0c-84.667 0 -147.5 24.168 -188.5 72.501s-61.5 123.166 -61.5 224.499v1341h317v-1316c0 -64 27.333 -96.333 82 -97c30 0 62.667 14.333 98 43v-268h-247z" />
    <glyph glyph-name="uni013B" unicode="&#x13b;" horiz-adv-x="811" 
d="M102 0v1638h326v-1372h352v-266h-678zM305 -385l21 307h235l-108 -307h-148z" />
    <glyph glyph-name="uni013C" unicode="&#x13c;" horiz-adv-x="600" 
d="M322 0c-84.667 0 -147.5 24.168 -188.5 72.501s-61.5 123.166 -61.5 224.499v1341h317v-1316c0 -64 27.333 -96.333 82 -97c30 0 62.667 14.333 98 43v-268h-247zM184 -384.999l21 307h235l-108 -307h-148z" />
    <glyph glyph-name="Lcaron" unicode="&#x13d;" horiz-adv-x="811" 
d="M496 1473l49 270h237l-137 -270h-149zM102 0v1638h326v-1372h352v-266h-678z" />
    <glyph glyph-name="lcaron" unicode="&#x13e;" horiz-adv-x="600" 
d="M389 322c0 -64 27.333 -96.332 82 -96.999c30 0 62.667 14.333 98 43v-268h-247c-84.667 0 -147.5 24.167 -188.5 72.5s-61.5 123.166 -61.5 224.499v1341h317v-235l39 213h238l-138 -270h-139v-1024z" />
    <glyph glyph-name="Lslash" unicode="&#x141;" horiz-adv-x="811" 
d="M428 266h352v-266h-678v588l-135 -80v215l135 80v835h326v-645l227 133v-215l-227 -133v-512z" />
    <glyph glyph-name="lslash" unicode="&#x142;" horiz-adv-x="600" 
d="M471 225c30 0 62.667 14.334 98 43.001v-268h-247c-84.667 0 -147.5 24.167 -188.5 72.5s-61.5 123.166 -61.5 224.499v303l-72 -55v215l72 55v823h317v-577l84 65v-215l-84 -65v-524c0 -64.667 27.333 -97 82 -97z" />
    <glyph glyph-name="Nacute" unicode="&#x143;" horiz-adv-x="1062" 
d="M627 1761h-197l127 232h272zM102 0v1638h326l209 -333v333h324v-1638h-324v831l-209 334v-1165h-326z" />
    <glyph glyph-name="nacute" unicode="&#x144;" 
d="M549 1251h-191l136 252h272zM72 0l0.000976562 1126h317v-98c75.333 79.333 154.666 119 237.999 119c140.667 0 211 -82 211 -246v-901h-318v838c0 56 -21 84 -63 84c-18 0 -40.667 -11 -68 -33v-889h-317z" />
    <glyph glyph-name="uni0145" unicode="&#x145;" horiz-adv-x="1062" 
d="M102 0v1638h326l209 -333v333h324v-1638h-324v831l-209 334v-1165h-326zM395 -385l21 307h235l-108 -307h-148z" />
    <glyph glyph-name="uni0146" unicode="&#x146;" 
d="M72 0l0.000976562 1126h317v-98c75.333 79.333 154.666 119 237.999 119c140.667 0 211 -82 211 -246v-901h-318v838c0 56 -21 84 -63 84c-18 0 -40.667 -11 -68 -33v-889h-317zM297.001 -381l20 307h236l-109 -307h-147z" />
    <glyph glyph-name="Ncaron" unicode="&#x147;" horiz-adv-x="1062" 
d="M258 1995h203l67 -131h9l69 131h203l-174 -232h-203zM102 0v1638h326l209 -333v333h324v-1638h-324v831l-209 334v-1165h-326z" />
    <glyph glyph-name="ncaron" unicode="&#x148;" 
d="M172 1503l202.999 0.000976562l22 -43c5.33301 -12 14.5 -29.333 27.5 -52s23.167 -41.334 30.5 -56.001h8c2.66699 8 7.33398 18.5 14.001 31.5s13.167 24.667 19.5 35s11.5 19.5 15.5 27.5l8 14l23 43h202l-184 -252h-205zM71.999 0.000976562l0.000976562 1126h317
v-98c75.333 79.333 154.666 119 237.999 119c140.667 0 211 -82 211 -246v-901h-318v838c0 56 -21 84 -63 84c-18 0 -40.667 -11 -68 -33v-889h-317z" />
    <glyph glyph-name="Eng" unicode="&#x14a;" horiz-adv-x="1062" 
d="M637 1638l324 0.000976562v-1790c0 -212.667 -83.333 -319 -250 -319h-285v283c40.667 -36.667 83.667 -55.334 129 -56.001c54.667 0 82 50 82 150v925l-209 334v-1165h-326v1638h326l209 -333v333z" />
    <glyph glyph-name="eng" unicode="&#x14b;" 
d="M627 1147c140.667 0 211.001 -82 211.001 -246v-1028c0 -229.333 -80 -344 -240 -344h-262v293c57.333 -28.667 98.333 -43 123 -43c40.667 0 61 45 61 135v924c0 56 -21 84 -63 84c-18 0 -40.667 -11 -68 -33v-889h-317v1126h317v-98
c75.333 79.333 154.666 119 237.999 119z" />
    <glyph glyph-name="Omacron" unicode="&#x14c;" horiz-adv-x="1036" 
d="M272 1796v180h494v-180h-494zM516 -20c-140.667 0 -244.834 34 -312.501 102s-101.5 173 -101.5 315v848c0 140.667 33.833 244.834 101.5 312.501s171.834 101.5 312.501 101.5c142 0 247.167 -33.833 315.5 -101.5s102.5 -171.834 102.5 -312.501v-848
c0 -142 -34.167 -247 -102.5 -315s-173.5 -102 -315.5 -102zM518 246c32.667 0 55.834 11.5 69.501 34.5s20.5 62.5 20.5 118.5v840c0 56 -6.83301 95.667 -20.5 119s-36.834 35 -69.501 35s-55.834 -11.667 -69.501 -35s-20.5 -63 -20.5 -119v-840
c0 -56 6.83301 -95.5 20.5 -118.5s36.834 -34.5 69.501 -34.5z" />
    <glyph glyph-name="omacron" unicode="&#x14d;" 
d="M209 1290v166h493v-166h-493zM72 287v532c0 112 31.333 194.667 94 248s158.834 80 288.501 80s226 -26.667 289 -80s94.5 -136 94.5 -248v-532c0 -104 -31.5 -181.167 -94.5 -231.5s-159.333 -75.5 -289 -75.5s-225.834 25.167 -288.501 75.5s-94 127.5 -94 231.5z
M389 305c0 -66.667 21.833 -100 65.5 -100s65.5 33.333 65.5 100v516c0 66.667 -21.833 100.167 -65.5 100.5s-65.5 -33.167 -65.5 -100.5v-516z" />
    <glyph glyph-name="Ohungarumlaut" unicode="&#x150;" horiz-adv-x="1036" 
d="M416 1761h-197l127 232h272zM760 1761h-197l127 232h273zM516 -20c-140.667 0 -244.834 34 -312.501 102s-101.5 173 -101.5 315v848c0 140.667 33.833 244.834 101.5 312.501s171.834 101.5 312.501 101.5c142 0 247.167 -33.833 315.5 -101.5
s102.5 -171.834 102.5 -312.501v-848c0 -142 -34.167 -247 -102.5 -315s-173.5 -102 -315.5 -102zM518 246c32.667 0 55.834 11.5 69.501 34.5s20.5 62.5 20.5 118.5v840c0 56 -6.83301 95.667 -20.5 119s-36.834 35 -69.501 35s-55.834 -11.667 -69.501 -35
s-20.5 -63 -20.5 -119v-840c0 -56 6.83301 -95.5 20.5 -118.5s36.834 -34.5 69.501 -34.5z" />
    <glyph glyph-name="ohungarumlaut" unicode="&#x151;" 
d="M489 1249h-190l135 252h273zM836 1249h-193l135 252h273zM72 287v532c0 112 31.333 194.667 94 248s158.834 80 288.501 80s226 -26.667 289 -80s94.5 -136 94.5 -248v-532c0 -104 -31.5 -181.167 -94.5 -231.5s-159.333 -75.5 -289 -75.5s-225.834 25.167 -288.501 75.5
s-94 127.5 -94 231.5zM389 305c0 -66.667 21.833 -100 65.5 -100s65.5 33.333 65.5 100v516c0 66.667 -21.833 100.167 -65.5 100.5s-65.5 -33.167 -65.5 -100.5v-516z" />
    <glyph glyph-name="OE" unicode="&#x152;" horiz-adv-x="1409" 
d="M1085 1372c-57.333 0 -96.8311 -15.333 -118.498 -46s-32.5 -86.334 -32.5 -167.001v-207h330v-266h-330v-246c0 -66.667 10.833 -112.334 32.5 -137.001s61.167 -37 118.5 -37h242v-266h-301c-96.667 0 -176 15.667 -238 47
c-66.667 -45.333 -157.334 -67.666 -272.001 -66.999c-140.667 0 -244.834 34 -312.501 102s-101.5 173 -101.5 315v848c0 140.667 33.833 244.834 101.5 312.501s171.834 101.5 312.501 101.5c116 0 206.667 -22.667 272 -68c61.333 31.333 140.666 47 237.999 47h301v-266
h-242zM608.002 399v840c0 56 -6.83301 95.667 -20.5 119s-36.834 35 -69.501 35s-55.834 -11.667 -69.501 -35s-20.5 -63 -20.5 -119v-840c0 -56 6.83301 -95.5 20.5 -118.5s36.834 -34.5 69.501 -34.5s55.834 11.5 69.501 34.5s20.5 62.5 20.5 118.5z" />
    <glyph glyph-name="oe" unicode="&#x153;" horiz-adv-x="1525" 
d="M1454 446h-448v-170c0 -48 36 -71.667 108 -71c79.333 0 186 30 320 90v-268c-100 -31.333 -211.333 -47 -334 -47c-155.333 0 -267.333 31.333 -336 94c-61.333 -62.667 -164.333 -94 -309 -94c-130 0 -226.333 25.167 -289 75.5s-94 127.5 -94 231.5v532
c0 112 31.333 194.667 94 248s159 80 289 80c142 0 244.333 -32 307 -96c64 64 169 96 315 96c128.667 0 223.667 -25.667 285 -77s92 -129.333 92 -234v-390zM520 305v516c0 66.667 -21.833 100.167 -65.5 100.5s-65.5 -33.167 -65.5 -100.5v-516
c0 -66.667 21.833 -100 65.5 -100s65.5 33.333 65.5 100zM1006 821v-180h131v180c0 66.667 -20.667 100.334 -62 101.001c-46 -0.666992 -69 -34.334 -69 -101.001z" />
    <glyph glyph-name="Racute" unicode="&#x154;" horiz-adv-x="1028" 
d="M815 1993l-203 -232h-196l127 232h272zM967 1167c0 -173.333 -84 -280.333 -252 -321c147.333 -4 221 -92 221 -264v-582h-326v594c0 76.667 -31.333 115 -94 115h-86v-709h-328v1638h426c148.667 0 259 -27.5 331 -82.5s108 -140.833 108 -257.5v-131zM487 1372h-57
v-403h57c102.667 0 154 62.667 154 188v23c0 128 -51.333 192 -154 192z" />
    <glyph glyph-name="racute" unicode="&#x155;" horiz-adv-x="614" 
d="M430 1251h-190l135 252h272zM557 1147c10.667 0 22.999 -3.33301 36.999 -10v-306c-35.333 30 -68.666 45.333 -99.999 46c-36.667 0 -71.667 -14.333 -105 -43v-834h-317v1126h317v-127c50.667 98.667 106.667 148 168 148z" />
    <glyph glyph-name="uni0156" unicode="&#x156;" horiz-adv-x="1028" 
d="M967 1167c0 -173.333 -84 -280.333 -252 -321c147.333 -4 221 -92 221 -264v-582h-326v594c0 76.667 -31.333 115 -94 115h-86v-709h-328v1638h426c148.667 0 259 -27.5 331 -82.5s108 -140.833 108 -257.5v-131zM487 1372h-57v-403h57c102.667 0 154 62.667 154 188v23
c0 128 -51.333 192 -154 192zM397 -385l21 307h235l-108 -307h-148z" />
    <glyph glyph-name="uni0157" unicode="&#x157;" horiz-adv-x="614" 
d="M557 1147c10.667 0 22.999 -3.33301 36.999 -10v-306c-35.333 30 -68.666 45.333 -99.999 46c-36.667 0 -71.667 -14.333 -105 -43v-834h-317v1126h317v-127c50.667 98.667 106.667 148 168 148zM93.999 -381l21 307h235l-108 -307h-148z" />
    <glyph glyph-name="Rcaron" unicode="&#x158;" horiz-adv-x="1028" 
d="M621 1763h-203l-174 232h202l68 -131h8l70 131h203zM967 1167c0 -173.333 -84 -280.333 -252 -321c147.333 -4 221 -92 221 -264v-582h-326v594c0 76.667 -31.333 115 -94 115h-86v-709h-328v1638h426c148.667 0 259 -27.5 331 -82.5s108 -140.833 108 -257.5v-131z
M487 1372h-57v-403h57c102.667 0 154 62.667 154 188v23c0 128 -51.333 192 -154 192z" />
    <glyph glyph-name="rcaron" unicode="&#x159;" horiz-adv-x="614" 
d="M53 1503l203 0.000976562l23 -43c5.33301 -12 14.5 -29.333 27.5 -52s22.833 -41.334 29.5 -56.001h8c2.66699 8 7.5 18.5 14.5 31.5l19.5 35c6 10.333 11 19.5 15 27.5l8 14l23 43h203l-185 -252h-204zM557 1147c10.667 0 22.999 -3.33301 36.999 -10v-306
c-35.333 30 -68.666 45.333 -99.999 46c-36.667 0 -71.667 -14.333 -105 -43v-834h-317v1126h317v-127c50.667 98.667 106.667 148 168 148z" />
    <glyph glyph-name="Sacute" unicode="&#x15a;" horiz-adv-x="933" 
d="M561 1761h-196l127 232h272zM395 -20c-118.667 0 -232 20.332 -340 60.999v287c106.667 -61.333 201 -92 283 -92c78 0 135.333 15 172 45s55 77.667 55 143c0 56 -14.667 104.5 -44 145.5s-87.666 94.167 -174.999 159.5c-194 143.333 -291 297 -291 461v31
c0 140.667 42 248.834 126 324.501s203.333 113.5 358 113.5c106.667 0 213 -17 319 -51v-308c-110.667 68 -204 102.333 -280 103c-139.333 0 -209 -60.667 -209 -182c0 -52 16.667 -99.167 50 -141.5s100.666 -100.5 201.999 -174.5c172 -125.333 258 -274 258 -446v-45
c0 -139.333 -42.167 -246.5 -126.5 -321.5s-203.5 -112.5 -357.5 -112.5z" />
    <glyph glyph-name="sacute" unicode="&#x15b;" horiz-adv-x="716" 
d="M449 1251h-191l135 252h273zM289 -20c-98 0 -177.334 15.6689 -238.001 47.002v256c72.667 -52 136.334 -78 191.001 -78c84.667 0 127 35.333 127 106c0 30 -8.33301 55.667 -25 77s-48 48.333 -94 81c-132.667 95.333 -199 202.666 -199 321.999v36
c0 102.667 31.5 181.667 94.5 237s153.167 83 270.5 83c76.667 0 153 -11.667 229 -35v-256c-65.333 44 -122 66 -170 66c-84.667 0 -127 -37 -127 -111c0 -32.667 9.66699 -61.334 29 -86.001s58.333 -58.667 117 -102c114.667 -84.667 172 -179.667 172 -285v-47
c0 -100 -32.833 -176.833 -98.5 -230.5s-158.5 -80.5 -278.5 -80.5z" />
    <glyph glyph-name="Scedilla" unicode="&#x15e;" horiz-adv-x="933" 
d="M621 905c172 -125.333 258 -274 258 -446v-45c0 -114.667 -29 -208.167 -87 -280.5s-141.667 -119.5 -251 -141.5l-52 -74c122.667 0 184.334 -48.333 185.001 -145c0 -124 -76 -186.333 -228 -187c-70.667 0 -135.334 8.33301 -194.001 25v149
c58.667 -19.333 110 -28.666 154 -27.999c30 0 51 3 63 9s18 18.667 18 38c0 13.333 -4.33301 24.166 -13 32.499s-20.667 12.5 -36 12.5c-18 0 -34.333 -4.66699 -49 -14l-78 67l70 103c-113.333 1.33301 -222 21.666 -326 60.999v287c106.667 -61.333 201 -92 283 -92
c78 0 135.333 15 172 45s55 77.667 55 143c0 56 -14.667 104.5 -44 145.5s-87.666 94.167 -174.999 159.5c-194 143.333 -291 297 -291 461v31c0 140.667 42 248.834 126 324.501s203.333 113.5 358 113.5c106.667 0 213 -17 319 -51v-308
c-110.667 68 -204 102.333 -280 103c-139.333 0 -209 -60.667 -209 -182c0 -52 16.667 -99.167 50 -141.5s100.666 -100.5 201.999 -174.5z" />
    <glyph glyph-name="scedilla" unicode="&#x15f;" horiz-adv-x="716" 
d="M494 623c114.667 -84.667 172 -179.668 172 -285.001v-47c0 -158.667 -78.667 -257 -236 -295l-49 -74c122.667 0 184 -47.667 184 -143c0 -125.333 -75.667 -188.333 -227 -189c-64 0 -129 8.33301 -195 25v149c65.333 -19.333 116.666 -28.666 153.999 -27.999
c30 0 51.167 3.33301 63.5 10s18.5 19.667 18.5 39c0 12 -4.83301 22.167 -14.5 30.5s-21.167 12.5 -34.5 12.5c-18 0 -34.333 -4.66699 -49 -14l-78 67l67 99c-90 2.66699 -163 18.334 -219 47.001v256c72.667 -52 136.334 -78 191.001 -78c84.667 0 127 35.333 127 106
c0 30 -8.33301 55.667 -25 77s-48 48.333 -94 81c-132.667 95.333 -199 202.666 -199 321.999v36c0 102.667 31.5 181.667 94.5 237s153.167 83 270.5 83c76.667 0 153 -11.667 229 -35v-256c-65.333 44 -122 66 -170 66c-84.667 0 -127 -37 -127 -111
c0 -32.667 9.66699 -61.167 29 -85.5s58.333 -58.5 117 -102.5z" />
    <glyph glyph-name="Scaron" unicode="&#x160;" horiz-adv-x="933" 
d="M193 1995h202l68 -131h8l70 131h202l-174 -232h-202zM395 -20c-118.667 0 -232 20.332 -340 60.999v287c106.667 -61.333 201 -92 283 -92c78 0 135.333 15 172 45s55 77.667 55 143c0 56 -14.667 104.5 -44 145.5s-87.666 94.167 -174.999 159.5
c-194 143.333 -291 297 -291 461v31c0 140.667 42 248.834 126 324.501s203.333 113.5 358 113.5c106.667 0 213 -17 319 -51v-308c-110.667 68 -204 102.333 -280 103c-139.333 0 -209 -60.667 -209 -182c0 -52 16.667 -99.167 50 -141.5s100.666 -100.5 201.999 -174.5
c172 -125.333 258 -274 258 -446v-45c0 -139.333 -42.167 -246.5 -126.5 -321.5s-203.5 -112.5 -357.5 -112.5z" />
    <glyph glyph-name="scaron" unicode="&#x161;" horiz-adv-x="716" 
d="M72 1503l202 0.000976562l23 -43c5.33301 -12 14.5 -29.333 27.5 -52s22.833 -41.334 29.5 -56.001h8c2.66699 8 7.5 18.5 14.5 31.5s13.667 24.667 20 35l17.5 27.5l6 14l22 43h203l-184 -252h-205zM289 -19.999c-98 0 -177.334 15.6689 -238.001 47.002v256
c72.667 -52 136.334 -78 191.001 -78c84.667 0 127 35.333 127 106c0 30 -8.33301 55.667 -25 77s-48 48.333 -94 81c-132.667 95.333 -199 202.666 -199 321.999v36c0 102.667 31.5 181.667 94.5 237s153.167 83 270.5 83c76.667 0 153 -11.667 229 -35v-256
c-65.333 44 -122 66 -170 66c-84.667 0 -127 -37 -127 -111c0 -32.667 9.66699 -61.334 29 -86.001s58.333 -58.667 117 -102c114.667 -84.667 172 -179.667 172 -285v-47c0 -100 -32.833 -176.833 -98.5 -230.5s-158.5 -80.5 -278.5 -80.5z" />
    <glyph glyph-name="uni0162" unicode="&#x162;" horiz-adv-x="856" 
d="M592 0h-86l-55 -82c122.667 0 184 -48.333 184 -145c0 -124 -75.667 -186.333 -227 -187c-70.667 0 -135.667 8.33301 -195 25v149c58.667 -19.333 110 -28.666 154 -27.999c30 0 51.167 3 63.5 9s18.5 18.667 18.5 38c0 13.333 -4.5 24.166 -13.5 32.499
s-21.167 12.5 -36.5 12.5c-18 0 -34.333 -4.66699 -49 -14l-78 67l84 123h-90v1372h-256v266h836v-266h-254v-1372z" />
    <glyph glyph-name="uni0163" unicode="&#x163;" horiz-adv-x="696" 
d="M459 881l0.000976562 -496v-8c-1.33301 -6.66699 -2 -12.834 -2 -18.501s0.333008 -12.834 1 -21.501s2 -16.834 4 -24.501s5 -15.167 9 -22.5s8.83301 -14.166 14.5 -20.499s13.167 -11.166 22.5 -14.499s20.333 -5 33 -5c30 0 68 17 114 51v-301h-180l-53 -78
c122.667 0 184 -47.667 184 -143c0 -125.333 -75.667 -188.333 -227 -189c-64 0 -129 8.33301 -195 25v149c65.333 -19.333 116.666 -28.666 153.999 -27.999c30 0 51.167 3.33301 63.5 10s18.5 19.667 18.5 39c0 12 -4.83301 22.167 -14.5 30.5s-21.167 12.5 -34.5 12.5
c-18 0 -34.333 -4.66699 -49 -14l-78 67l84 123c-124 18 -186.333 110.333 -187 277v600h-110v245h110v308h318v-308h196v-245h-196z" />
    <glyph glyph-name="Tcaron" unicode="&#x164;" horiz-adv-x="856" 
d="M530 1763h-202l-174 232h202l68 -131h8l70 131h203zM846 1638v-266h-254v-1372h-326v1372h-256v266h836z" />
    <glyph glyph-name="tcaron" unicode="&#x165;" horiz-adv-x="696" 
d="M502 1239l49 270h237l-137 -270h-149zM31 881v245.001h110v308h318v-308h196v-245h-196v-496v-8c-1.33301 -6.66699 -2 -12.834 -2 -18.501s0.333008 -12.834 1 -21.501s2 -16.834 4 -24.501s5 -15.167 9 -22.5s8.83301 -14.166 14.5 -20.499
s13.167 -11.166 22.5 -14.499s20.333 -5 33 -5c30 0 68 17 114 51v-301h-276c-158.667 0 -238 93.667 -238 281v600h-110z" />
    <glyph glyph-name="Tbar" unicode="&#x166;" horiz-adv-x="856" 
d="M846 1372h-254v-459h117v-184h-117v-729h-326v729h-119v184h119v459h-256v266h836v-266z" />
    <glyph glyph-name="tbar" unicode="&#x167;" horiz-adv-x="696" 
d="M655 881l-196 0.000976562v-193h186v-156h-186v-147v-8c-1.33301 -6.66699 -2 -12.834 -2 -18.501s0.333008 -12.834 1 -21.501s2 -16.834 4 -24.501s5 -15.167 9 -22.5s8.83301 -14.166 14.5 -20.499s13.167 -11.166 22.5 -14.499s20.333 -5 33 -5c30 0 68 17 114 51
v-301h-276c-158.667 0 -238 93.667 -238 281v251h-112v156h112v193h-110v245h110v308h318v-308h196v-245z" />
    <glyph glyph-name="Umacron" unicode="&#x16a;" horiz-adv-x="1036" 
d="M272 1796v180h494v-180h-494zM516 -20c-140.667 0 -244.835 34 -312.502 102s-101.5 173 -101.5 315v1241h326v-1218c0 -62.667 6.83301 -107.334 20.5 -134.001s36.834 -40 69.501 -40s55.834 13.333 69.501 40s20.5 71.334 20.5 134.001v1218h326v-1241
c0 -142 -34.167 -247 -102.5 -315s-173.5 -102 -315.5 -102z" />
    <glyph glyph-name="umacron" unicode="&#x16b;" 
d="M184 1290v166h494v-166h-494zM838 1126v-1126h-318v98c-75.333 -79.333 -154.333 -118.666 -237 -117.999c-140.667 0 -211 81.667 -211 245v901h317v-837c0 -56 21.333 -84 64 -84c18 0 40.333 11 67 33v888h318z" />
    <glyph glyph-name="Uring" unicode="&#x16e;" horiz-adv-x="1036" 
d="M518 1737c-88.667 0 -133 50.333 -133 151c0 95.333 44.333 143.333 133 144c90 0 135 -48 135 -144c0 -100.667 -45 -151 -135 -151zM518 1843c16.667 0 25 15 25 45c0 27.333 -8.33301 41 -25 41c-15.333 0 -22.666 -13.667 -21.999 -41
c-0.666992 -30 6.66602 -45 21.999 -45zM516 -20c-140.667 0 -244.835 34 -312.502 102s-101.5 173 -101.5 315v1241h326v-1218c0 -62.667 6.83301 -107.334 20.5 -134.001s36.834 -40 69.501 -40s55.834 13.333 69.501 40s20.5 71.334 20.5 134.001v1218h326v-1241
c0 -142 -34.167 -247 -102.5 -315s-173.5 -102 -315.5 -102z" />
    <glyph glyph-name="uring" unicode="&#x16f;" 
d="M430 1227c-98 0 -147 58 -147 174s49 174 147 174c96.667 0 145 -58 145 -174s-48.333 -174 -145 -174zM430 1348c16.667 0 25 17.667 25 53s-8.33301 53 -25 53c-18 0 -27 -17.667 -27 -53s9 -53 27 -53zM838 1126v-1126h-318v98
c-75.333 -79.333 -154.333 -118.666 -237 -117.999c-140.667 0 -211 81.667 -211 245v901h317v-837c0 -56 21.333 -84 64 -84c18 0 40.333 11 67 33v888h318z" />
    <glyph glyph-name="Uhungarumlaut" unicode="&#x170;" horiz-adv-x="1036" 
d="M416 1761h-197l127 232h272zM760 1761h-197l127 232h273zM516 -20c-140.667 0 -244.835 34 -312.502 102s-101.5 173 -101.5 315v1241h326v-1218c0 -62.667 6.83301 -107.334 20.5 -134.001s36.834 -40 69.501 -40s55.834 13.333 69.501 40s20.5 71.334 20.5 134.001
v1218h326v-1241c0 -142 -34.167 -247 -102.5 -315s-173.5 -102 -315.5 -102z" />
    <glyph glyph-name="uhungarumlaut" unicode="&#x171;" 
d="M465 1249h-191l136 252h272zM811 1249h-193l136 252h272zM838 1126v-1126h-318v98c-75.333 -79.333 -154.333 -118.666 -237 -117.999c-140.667 0 -211 81.667 -211 245v901h317v-837c0 -56 21.333 -84 64 -84c18 0 40.333 11 67 33v888h318z" />
    <glyph glyph-name="Uogonek" unicode="&#x172;" horiz-adv-x="1036" 
d="M608 1638l325.997 -0.00195312v-1241c0 -248.667 -108.667 -385.667 -326 -411c-120 -61.333 -180 -125.666 -180 -192.999c0 -48 26 -72 78 -72c20.667 0 47.334 8.33301 80.001 25v-125c-68 -32.667 -123.333 -49 -166 -49c-128.667 0 -193 57.333 -193 172
c0 106.667 54 188.667 162 246c-191.333 36.667 -287 172.334 -287 407.001v1241h326v-1218c0 -62.667 6.83301 -107.334 20.5 -134.001s36.834 -40 69.501 -40s55.834 13.333 69.501 40s20.5 71.334 20.5 134.001v1218z" />
    <glyph glyph-name="uogonek" unicode="&#x173;" 
d="M838 0c-140.667 -66.667 -210.999 -135.668 -210.999 -207.001c0 -49.333 26 -74 78 -74c18 0 44.333 9 79 27v-125c-62.667 -32.667 -118 -49 -166 -49c-128.667 0 -192.834 56.667 -192.501 170s60.5 199.333 180.5 258h-86v98
c-75.333 -79.333 -154.333 -118.666 -237 -117.999c-140.667 0 -211 81.667 -211 245v901h317v-837c0 -56 21.333 -84 64 -84c18 0 40.333 11 67 33v888h318v-1126z" />
    <glyph glyph-name="Wcircumflex" unicode="&#x174;" horiz-adv-x="1368" 
d="M410 1761l174 232h202l175 -232h-203l-70 129h-8l-68 -129h-202zM102 332v1306h324v-1271c0 -79.333 17 -119 51 -119c31.333 0 47 38 47 114v1076h318v-1076c0 -76.667 15.667 -114.667 47 -114c34 0 51 39.667 51 119v1271h326v-1306c0 -120 -27.667 -208.667 -83 -266
s-140.333 -86 -255 -86c-125.333 0 -207.333 53.667 -246 161c-35.333 -108 -116 -161.667 -242 -161c-114.667 0 -199.667 28.667 -255 86s-83 146 -83 266z" />
    <glyph glyph-name="wcircumflex" unicode="&#x175;" horiz-adv-x="1298" 
d="M362 1251l185 252h205l184 -252h-203l-80 150h-8l-80 -150h-203zM215 0l-209.001 1126h301l39 -370c27.333 -266 45 -433.333 53 -502h25l113 872h229l119 -872h22l51 502l37 370h297l-209 -1126h-335l-48 336c-12 90 -20.667 162.333 -26 217
s-8.66602 106.167 -9.99902 154.5s-3 85.5 -5 111.5h-18c-2.66699 -28.667 -4.66699 -64.5 -6 -107.5s-4.83301 -92.833 -10.5 -149.5s-14.5 -131.334 -26.5 -224.001l-47 -338h-336z" />
    <glyph glyph-name="Ycircumflex" unicode="&#x176;" horiz-adv-x="1052" 
d="M522 1890l-67 -129h-203l174 232h203l174 -232h-203l-70 129h-8zM1042 1638l-350 -1087v-551h-332v557l-350 1081h334l82 -313c52 -203.333 80 -339 84 -407h33c12 104 41.333 240.333 88 409l84 311h327z" />
    <glyph glyph-name="ycircumflex" unicode="&#x177;" horiz-adv-x="829" 
d="M133 1251l184 252h205l185 -252h-203l-80 150h-8l-80 -150h-203zM184 -471c-53.333 0 -101.667 9.00098 -145 27.001v241c36.667 -28.667 77.667 -43 123 -43c30 0 54.167 12 72.5 36s33.833 64.667 46.5 122l18 88l-297 1126h336l45 -383c20.667 -172 31 -273 31 -303
h22c0 34 1.66699 68.5 5 103.5s7.5 72.667 12.5 113s8.16699 69.166 9.5 86.499l35 383h329l-288 -1226c-30 -125.333 -73.833 -218.5 -131.5 -279.5s-132.167 -91.5 -223.5 -91.5z" />
    <glyph glyph-name="Ydieresis" unicode="&#x178;" horiz-adv-x="1052" 
d="M338 1743c-95.333 0 -143 39.667 -143 119c0 82 47.667 123 143 123c96.667 0 145 -41 145 -123c0 -79.333 -48.333 -119 -145 -119zM714.5 1743c-97 0 -145.5 39.667 -145.5 119c0 82 48.5 123 145.5 123s145.5 -41 145.5 -123c0 -79.333 -48.5 -119 -145.5 -119z
M1042 1638l-350 -1087v-551h-332v557l-350 1081h334l82 -313c52 -203.333 80 -339 84 -407h33c12 104 41.333 240.333 88 409l84 311h327z" />
    <glyph glyph-name="Zacute" unicode="&#x179;" horiz-adv-x="792" 
d="M502 1761h-197l127 232h273zM6 0v227l432 1145h-405v266h753v-225l-428 -1145h428v-268h-780z" />
    <glyph glyph-name="zacute" unicode="&#x17a;" horiz-adv-x="675" 
d="M436 1251h-190l135 252h272zM14 0v207l322 674h-307v245h633v-204l-310 -676h289v-246h-627z" />
    <glyph glyph-name="Zdotaccent" unicode="&#x17b;" horiz-adv-x="792" 
d="M406 1735c-95.333 0 -143.333 39.333 -144 118c0 80.667 48 121 144 121c96.667 0 145 -40.333 145 -121c0 -78.667 -48.333 -118 -145 -118zM6 0v227l432 1145h-405v266h753v-225l-428 -1145h428v-268h-780z" />
    <glyph glyph-name="zdotaccent" unicode="&#x17c;" horiz-adv-x="675" 
d="M346 1235c-95.333 0 -143 37.667 -143 113c0 78 47.667 116.667 143 116c96.667 0 145.334 -38.667 146.001 -116c-0.666992 -75.333 -49.334 -113 -146.001 -113zM14 0v207l322 674h-307v245h633v-204l-310 -676h289v-246h-627z" />
    <glyph glyph-name="Zcaron" unicode="&#x17d;" horiz-adv-x="792" 
d="M133 1995h203l67 -131h9l69 131h203l-174 -232h-203zM6 0v227l432 1145h-405v266h753v-225l-428 -1145h428v-268h-780z" />
    <glyph glyph-name="zcaron" unicode="&#x17e;" horiz-adv-x="675" 
d="M59 1503l203 0.000976562l23 -43c5.33301 -12 14.5 -29.333 27.5 -52s22.833 -41.334 29.5 -56.001h8c2.66699 8 7.5 18.5 14.5 31.5l19.5 35c6 10.333 11.667 19.5 17 27.5l7 14l22 43h203l-184 -252h-205zM14 0.000976562v207l322 674h-307v245h633v-204l-310 -676h289
v-246h-627z" />
    <glyph glyph-name="florin" unicode="&#x192;" horiz-adv-x="1312" 
d="M948 1659c120 0 217.668 -17.667 293.001 -53l-78 -215c-38 26 -77.667 39 -119 39c-100 0 -160.667 -63 -182 -189l-31 -172h160l-26 -164h-162l-111 -631c-46.667 -264.667 -178.334 -397 -395.001 -397c-90 0 -189 17.667 -297 53l78 215c44 -26 90.333 -39 139 -39
c86 0 140 63 162 189l108 610h-172v164h201l33 191c23.333 134 67 234 131 300s153.333 99 268 99z" />
    <glyph glyph-name="AEacute" unicode="&#x1fc;" horiz-adv-x="1482" 
d="M979 1765h-197l127 232h273zM1122 1372c-87.333 0 -131.001 -55.333 -131.001 -166v-252h207v-270h-207v-248c0 -113.333 43.667 -170 131 -170h250v-266h-289c-134 0 -234.667 27.667 -302 83s-105 141 -113 257h-262c-19.333 -82 -44.666 -195.333 -75.999 -340h-328
l442 1638h957l-29 -266h-250zM628.999 1372c-6.66699 -60 -62.667 -322 -168 -786h205v663c0 45.333 4 86.333 12 123h-49z" />
    <glyph glyph-name="aeacute" unicode="&#x1fd;" horiz-adv-x="1245" 
d="M686 1251h-190l135 252h272zM1174 442l-408.001 0.000976562v-96c0 -36.667 4.5 -65.334 13.5 -86.001s18.833 -31 29.5 -31c72.667 0 188 33.667 346 101v-303c-54.667 -31.333 -172 -47 -352 -47c-142 0 -241 40 -297 120c-90 -80.667 -186.333 -120.667 -289 -120
c-124 0 -186 114.667 -186 344c0 232 66.667 348 200 348c76.667 0 149.334 -26 218.001 -78v160c0 96.667 -33 145 -99 145c-61.333 0 -144 -34 -248 -102v303c94 32.667 176.667 49 248 49c100 0 182 -15 246 -45c56 28.667 127 43 213 43c124 0 215.833 -27 275.5 -81
s89.5 -137.667 89.5 -251v-373zM808.999 897.001c-10.667 0 -20.5 -10.5 -29.5 -31.5s-13.5 -50.833 -13.5 -89.5v-90h90v90c0 80.667 -15.667 121 -47 121zM380.999 229.001c9.33301 0 31.999 21.333 67.999 64v80c-13.333 32.667 -36.666 49 -69.999 49
c-16.667 0 -25 -32.167 -25 -96.5s9 -96.5 27 -96.5z" />
    <glyph glyph-name="uni0218" unicode="&#x218;" horiz-adv-x="933" 
d="M395 -20c-118.667 0 -232 20.332 -340 60.999v287c106.667 -61.333 201 -92 283 -92c78 0 135.333 15 172 45s55 77.667 55 143c0 56 -14.667 104.5 -44 145.5s-87.666 94.167 -174.999 159.5c-194 143.333 -291 297 -291 461v31c0 140.667 42 248.834 126 324.501
s203.333 113.5 358 113.5c106.667 0 213 -17 319 -51v-308c-110.667 68 -204 102.333 -280 103c-139.333 0 -209 -60.667 -209 -182c0 -52 16.667 -99.167 50 -141.5s100.666 -100.5 201.999 -174.5c172 -125.333 258 -274 258 -446v-45
c0 -139.333 -42.167 -246.5 -126.5 -321.5s-203.5 -112.5 -357.5 -112.5zM330 -385.001l20 307h236l-109 -307h-147z" />
    <glyph glyph-name="uni0219" unicode="&#x219;" horiz-adv-x="716" 
d="M289 -20c-98 0 -177.334 15.6689 -238.001 47.002v256c72.667 -52 136.334 -78 191.001 -78c84.667 0 127 35.333 127 106c0 30 -8.33301 55.667 -25 77s-48 48.333 -94 81c-132.667 95.333 -199 202.666 -199 321.999v36c0 102.667 31.5 181.667 94.5 237
s153.167 83 270.5 83c76.667 0 153 -11.667 229 -35v-256c-65.333 44 -122 66 -170 66c-84.667 0 -127 -37 -127 -111c0 -32.667 9.66699 -61.334 29 -86.001s58.333 -58.667 117 -102c114.667 -84.667 172 -179.667 172 -285v-47c0 -100 -32.833 -176.833 -98.5 -230.5
s-158.5 -80.5 -278.5 -80.5zM220.999 -380.998l21 307h235l-108 -307h-148z" />
    <glyph glyph-name="uni021A" unicode="&#x21a;" horiz-adv-x="856" 
d="M846 1638v-266h-254v-1372h-326v1372h-256v266h836zM291 -385l20 307h236l-109 -307h-147z" />
    <glyph glyph-name="uni021B" unicode="&#x21b;" horiz-adv-x="696" 
d="M31 881v245.001h110v308h318v-308h196v-245h-196v-496v-8c-1.33301 -6.66699 -2 -12.834 -2 -18.501s0.333008 -12.834 1 -21.501s2 -16.834 4 -24.501s5 -15.167 9 -22.5s8.83301 -14.166 14.5 -20.499s13.167 -11.166 22.5 -14.499s20.333 -5 33 -5c30 0 68 17 114 51
v-301h-276c-158.667 0 -238 93.667 -238 281v600h-110zM262 -380.999l21 307h235l-108 -307h-148z" />
    <glyph glyph-name="circumflex" unicode="&#x2c6;" horiz-adv-x="1228" 
d="M66 1182l184 252h205l184 -252h-203l-80 149h-8l-80 -149h-202z" />
    <glyph glyph-name="caron" unicode="&#x2c7;" horiz-adv-x="1228" 
d="M66 1434h202l23 -43c5.33301 -12 14.5 -29.333 27.5 -52s22.833 -41.667 29.5 -57h8c2.66699 8 7.5 18.5 14.5 31.5l19.5 35l16 27.5l8 15l22 43h203l-184 -252h-205z" />
    <glyph glyph-name="breve" unicode="&#x2d8;" horiz-adv-x="1228" 
d="M297 1178c-150 0 -227 85.333 -231 256h147c5.33301 -68 33.333 -102.333 84 -103c52 0 80 34.333 84 103h149c-2.66699 -86 -22.667 -150.167 -60 -192.5s-95 -63.5 -173 -63.5z" />
    <glyph glyph-name="dotaccent" unicode="&#x2d9;" horiz-adv-x="1228" 
d="M209 1208c-95.333 0 -143 37.667 -143 113c0 78 47.667 117 143 117c96.667 0 145 -39 145 -117c0 -75.333 -48.333 -113 -145 -113z" />
    <glyph glyph-name="ring" unicode="&#x2da;" horiz-adv-x="1228" 
d="M199 1141c-98 0 -147.168 58 -147.501 174s48.834 174 147.501 174c96.667 0 145 -58 145 -174s-48.333 -174 -145 -174zM198.999 1262c16.667 0 24.833 17.667 24.5 53s-8.5 53 -24.5 53c-18 0 -27 -17.667 -27 -53s9 -53 27 -53z" />
    <glyph glyph-name="ogonek" unicode="&#x2db;" horiz-adv-x="1228" 
d="M258 -428c-128.667 0 -192.833 56.667 -192.5 170s60.5 199.333 180.5 258h231c-140.667 -66.667 -211 -135.667 -211 -207c0 -49.333 26 -74 78 -74c18 0 44.667 9 80 27v-125c-62.667 -32.667 -118 -49 -166 -49z" />
    <glyph glyph-name="tilde" unicode="&#x2dc;" horiz-adv-x="1228" 
d="M66 1268c42 113.333 96.334 170 163.001 170c31.333 0 65.5 -12.333 102.5 -37s69.833 -37 98.5 -37c32.667 0 55.334 24.667 68.001 74l80 -88c-42 -113.333 -96.667 -170 -164 -170c-30 0 -63.833 12.5 -101.5 37.5s-70.834 37.5 -99.501 37.5
c-32.667 0 -55.334 -25 -68.001 -75z" />
    <glyph glyph-name="hungarumlaut" unicode="&#x2dd;" horiz-adv-x="1228" 
d="M256 1182h-190l135 252h272zM602 1182h-192l135 252h272z" />
    <glyph glyph-name="gravecomb" unicode="&#x300;" horiz-adv-x="0" 
d="M-254 1182l-217 252h272l136 -252h-191z" />
    <glyph glyph-name="acutecomb" unicode="&#x301;" horiz-adv-x="0" 
d="M-121 1182h-190l135 252h272z" />
    <glyph glyph-name="uni0302" unicode="&#x302;" horiz-adv-x="0" 
d="M-639 1182l184 252h205l184 -252h-202l-80 149h-8l-80 -149h-203z" />
    <glyph glyph-name="tildecomb" unicode="&#x303;" horiz-adv-x="0" 
d="M-578 1268c42 113.333 96.668 170 164.001 170c31.333 0 65.5 -12.333 102.5 -37s69.833 -37 98.5 -37c32.667 0 55.334 24.667 68.001 74l79 -88c-42 -113.333 -96.333 -170 -163 -170c-30 0 -63.833 12.5 -101.5 37.5s-70.834 37.5 -99.501 37.5
c-32.667 0 -55.334 -25 -68.001 -75z" />
    <glyph glyph-name="uni0304" unicode="&#x304;" horiz-adv-x="0" 
d="M-559 1225v166h493v-166h-493z" />
    <glyph glyph-name="uni0306" unicode="&#x306;" horiz-adv-x="0" 
d="M-299 1178c-150 0 -227 85.333 -231 256h147c5.33301 -68 33.333 -102.333 84 -103c52 0 80 34.333 84 103h149c-2.66699 -86 -22.667 -150.167 -60 -192.5s-95 -63.5 -173 -63.5z" />
    <glyph glyph-name="uni0307" unicode="&#x307;" horiz-adv-x="0" 
d="M-209 1208c-95.333 0 -143 37.667 -143 113c0 78 47.667 117 143 117c96.667 0 145.334 -39 146.001 -117c-0.666992 -75.333 -49.334 -113 -146.001 -113z" />
    <glyph glyph-name="uni0308" unicode="&#x308;" horiz-adv-x="0" 
d="M-485 1178c-82 0 -123 42.333 -123 127c0 88.667 41 133 123 133c84.667 0 127 -44.333 127 -133c0 -84.667 -42.333 -127 -127 -127zM-190 1178c-82 0 -123 42.333 -123 127c0 88.667 41 133 123 133c83.333 0 124.666 -44.333 123.999 -133
c0.666992 -84.667 -40.666 -127 -123.999 -127z" />
    <glyph glyph-name="uni030A" unicode="&#x30a;" horiz-adv-x="0" 
d="M-197 1141c-98 0 -147 58 -147 174s49 174 147 174c96.667 0 145 -58 145 -174s-48.333 -174 -145 -174zM-197 1262c16.667 0 25 17.667 25 53s-8.33301 53 -25 53c-18 0 -27 -17.667 -27 -53s9 -53 27 -53z" />
    <glyph glyph-name="uni030B" unicode="&#x30b;" horiz-adv-x="0" 
d="M-627 1182h-190l135 252h272zM-281 1182h-192l135 252h272z" />
    <glyph glyph-name="uni030C" unicode="&#x30c;" horiz-adv-x="0" 
d="M-639 1434h202.999l22 -43c5.33301 -12 14.5 -29.333 27.5 -52s23.167 -41.667 30.5 -57h8c2.66699 8 7.33398 18.5 14.001 31.5s13.167 24.667 19.5 35s11.5 19.5 15.5 27.5l8 15l23 43h202l-184 -252h-205z" />
    <glyph glyph-name="uni0312" unicode="&#x312;" horiz-adv-x="0" 
d="M-203 1436c70.667 -9.33301 106.333 -56.001 107 -140.001c0 -91.333 -47.833 -137 -143.5 -137s-143.5 45.667 -143.5 137c0 24.667 3.33301 47.334 10 68.001c15.333 60 42.666 111.333 81.999 154c54.667 64 96.334 103.333 125.001 118l100 -125
c-65.333 -24 -111 -49 -137 -75z" />
    <glyph glyph-name="uni0326" unicode="&#x326;" horiz-adv-x="0" 
d="M-309 -389l20 307h236l-109 -307h-147z" />
    <glyph glyph-name="uni0327" unicode="&#x327;" horiz-adv-x="0" 
d="M-487 -172c65.333 -19.333 116.333 -29 153 -29c30 0 51.167 3.5 63.5 10.5s18.5 19.833 18.5 38.5c0 12 -4.83301 22.167 -14.5 30.5s-21.167 12.5 -34.5 12.5c-18 0 -34.333 -4.66699 -49 -14l-78 68l94 137h150l-66 -96c122.667 0 184 -48 184 -144
c0 -125.333 -75.667 -188 -227 -188c-64 0 -128.667 8 -194 24v150z" />
    <glyph glyph-name="uni0328" unicode="&#x328;" horiz-adv-x="0" 
d="M-274 -428c-128.667 0 -193 56.667 -193 170s60 199.333 180 258h232c-140.667 -66.667 -211 -135.667 -211 -207c0 -49.333 26 -74 78 -74c18 0 44.333 9 79 27v-125c-63.333 -32.667 -118.333 -49 -165 -49z" />
    <glyph glyph-name="uni0335" unicode="&#x335;" horiz-adv-x="0" 
d="M-594 1268v166h531v-166h-531z" />
    <glyph glyph-name="uni0336" unicode="&#x336;" horiz-adv-x="0" 
d="M-1059 1208v185h996v-185h-996z" />
    <glyph glyph-name="uni0337" unicode="&#x337;" horiz-adv-x="0" 
d="M-606 545v215l473 366v-215z" />
    <glyph glyph-name="uni0338" unicode="&#x338;" horiz-adv-x="0" 
d="M-274 1126h157l-604 -1126h-156z" />
    <glyph glyph-name="uni0401" unicode="&#x401;" horiz-adv-x="907" 
d="M311 1743c-95.333 0 -143 39.667 -143 119c0 82 47.667 123 143 123c96.667 0 145.334 -41 146.001 -123c-0.666992 -79.333 -49.334 -119 -146.001 -119zM688.5 1743c-97 0 -145.5 39.667 -145.5 119c0 82 48.5 123 145.5 123s145.5 -41 145.5 -123
c0 -79.333 -48.5 -119 -145.5 -119zM530 0c-162.667 0 -283.167 31.667 -361.5 95s-117.5 161.333 -117.5 294v88c0 202 81.333 325 244 369c-162.667 44 -244 166.667 -244 368v35c0 132.667 39.333 230.667 118 294s199 95 361 95h295v-245h-256
c-128.667 0 -192.667 -70.333 -192 -211v-19c0 -128.667 64 -192.667 192 -192h191v-248h-191c-128.667 0 -192.667 -64.333 -192 -193v-71c0 -142 64 -213 192 -213h256v-246h-295z" />
    <glyph glyph-name="uni0410" unicode="&#x410;" horiz-adv-x="1058" 
d="M2 0l352 1638h351l352 -1638h-338l-49 340h-283l-49 -340h-336zM424 586h209l-64 428c-9.33301 54.667 -18 129.667 -26 225h-27c-2.66699 -28.667 -13 -103.667 -31 -225z" />
    <glyph glyph-name="uni0411" unicode="&#x411;" horiz-adv-x="946" 
d="M438 983c155.333 0 270.333 -31.667 345 -95s112 -161.333 112 -294v-205c0 -132.667 -37.5 -230.667 -112.5 -294s-190.5 -95 -346.5 -95h-368v1638h788v-266h-467v-389h49zM569 455v98c0 113.333 -43.667 170 -131 170h-49v-457h49c87.333 0.666992 131 63.667 131 189
z" />
    <glyph glyph-name="uni0412" unicode="&#x412;" horiz-adv-x="995" 
d="M102 0l0.000976562 1638h383c155.333 0 270.666 -30 345.999 -90s113 -152.667 113 -278v-76c0 -194 -82 -311.333 -246 -352c154 -46.667 231.333 -168.334 232 -365.001v-88c0 -132.667 -38.667 -230.667 -116 -294s-196.333 -95 -357 -95h-355zM424.001 969.001
h37.001c105.333 0 157.666 65.333 156.999 196v19c0 125.333 -52.333 188 -157 188h-37v-403zM424.002 266.001h8c114.667 0 172 63 172 189v71c0 131.333 -57.333 197 -172 197h-8v-457z" />
    <glyph glyph-name="uni0413" unicode="&#x413;" horiz-adv-x="854" 
d="M844 1638v-266h-451v-1372h-325v1638h776z" />
    <glyph glyph-name="uni0414" unicode="&#x414;" horiz-adv-x="1206" 
d="M1032 266h101v-471h-326v205h-477v-205h-326v471c139.333 40.667 209 204.667 209 492v880h819v-1372zM539 829c0 -276 -68.333 -463.667 -205 -563h373v1106h-168v-543z" />
    <glyph glyph-name="uni0415" unicode="&#x415;" horiz-adv-x="907" 
d="M530 0c-162.667 0 -283.167 31.667 -361.5 95s-117.5 161.333 -117.5 294v88c0 202 81.333 325 244 369c-162.667 44 -244 166.667 -244 368v35c0 132.667 39.333 230.667 118 294s199 95 361 95h295v-245h-256c-128.667 0 -192.667 -70.333 -192 -211v-19
c0 -128.667 64 -192.667 192 -192h191v-248h-191c-128.667 0 -192.667 -64.333 -192 -193v-71c0 -142 64 -213 192 -213h256v-246h-295z" />
    <glyph glyph-name="uni0416" unicode="&#x416;" horiz-adv-x="1755" 
d="M1405 700l268 -700.003h-325l-213 623c-19.333 53.333 -49.666 79.666 -90.999 78.999h-2v-702h-325v702h-4c-45.333 0 -77 -26.333 -95 -79l-210 -623h-326l268 700c22 54.667 49.667 100.834 83 138.501s63 56.5 89 56.5c-28.667 22 -52.834 43.167 -72.501 63.5
s-36.667 43.5 -51 69.5s-25 47.5 -32 64.5s-16.167 43 -27.5 78s-20.666 60.5 -27.999 76.5c-35.333 94 -70.666 141.333 -105.999 142c-24.667 0 -56.667 -14.333 -96 -43v292h161c182.667 0 299.667 -104.333 351 -313c49.333 -199.333 81.333 -310.666 96 -333.999v647
h325v-637c24.667 42 55.667 148 93 318c15.333 72.667 40.333 132.834 75 180.501s72.667 80.334 114 98.001s73.666 28.834 96.999 33.501s44.666 7 63.999 7h162v-292c-31.333 28.667 -63 43 -95 43c-20.667 0 -38 -9.33301 -52 -28s-32 -55.334 -54 -110.001
c-9.33301 -23.333 -22.333 -58.5 -39 -105.5s-29.334 -79 -38.001 -96s-24.667 -40.167 -48 -69.5s-52.666 -57.666 -87.999 -84.999c31.333 0 62 -17.833 92 -53.5s56.667 -82.834 80 -141.501z" />
    <glyph glyph-name="uni0417" unicode="&#x417;" horiz-adv-x="741" 
d="M453 868c174.667 -42 261.999 -166.667 261.999 -374v-119c0 -134 -37.167 -233.333 -111.5 -298s-189.5 -97 -345.5 -97c-78 0 -166 7.33301 -264 22v322c75.333 -44 147 -66 215 -66c117.333 0 176 60.667 176 182v105c0 121.333 -43.667 182 -131 182h-178v281h164
c88.667 0 133 59.333 133 178c0 130 -46.667 194.667 -140 194c-66.667 0 -149.667 -21.667 -249 -65v323c76.667 13.333 163.334 20.333 260.001 21c155.333 0 270.166 -32.5 344.499 -97.5s111.5 -165.5 111.5 -301.5v-15c0.666992 -203.333 -81.666 -329 -246.999 -377z
" />
    <glyph glyph-name="uni0418" unicode="&#x418;" horiz-adv-x="993" 
d="M602 1638h324v-1638h-324v1178l-209 -336v-842h-325v1638h325v-333z" />
    <glyph glyph-name="uni0419" unicode="&#x419;" horiz-adv-x="993" 
d="M496 1759c-150 0 -227.333 85.333 -232 256h148c5.33301 -68 33.333 -102 84 -102c52 0 80 34 84 102h149c-2.66699 -86 -22.667 -150.167 -60 -192.5s-95 -63.5 -173 -63.5zM602 1638h324v-1638h-324v1178l-209 -336v-842h-325v1638h325v-333z" />
    <glyph glyph-name="uni041A" unicode="&#x41a;" horiz-adv-x="1150" 
d="M852 1249c-23.333 -87.333 -49.3311 -155.832 -77.998 -205.499s-73 -99.167 -133 -148.5c32.667 0 66.167 -13 100.5 -39s58.833 -60.667 73.5 -104l254 -752h-326l-204 561c-19.333 50.667 -34.166 83.5 -44.499 98.5s-26.5 22.5 -48.5 22.5
c-12 0 -29.667 -6.66699 -53 -20v-662h-325v1638h325v-647c24.667 22 46.5 55.5 65.5 100.5s42.167 121.5 69.5 229.5c31.333 118.667 71.666 201.167 120.999 247.5s117 69.5 203 69.5h217v-317c-40.667 45.333 -78.334 68 -113.001 68
c-44.667 -0.666992 -79.334 -47.334 -104.001 -140.001z" />
    <glyph glyph-name="uni041B" unicode="&#x41b;" horiz-adv-x="1159" 
d="M1098 1638v-1638h-326v1372h-164v-915c0 -155.333 -25.833 -270.333 -77.5 -345s-132.167 -112 -241.5 -112h-258v301c78 -45.333 130.333 -68 157 -68c64 0 96.333 46.667 97 140v1265h813z" />
    <glyph glyph-name="uni041C" unicode="&#x41c;" horiz-adv-x="1308" 
d="M102 0l0.000976562 1638h453l35 -258c19.333 -142 37 -355 53 -639h23c9.33301 151.333 30.333 364.333 63 639l31 258h446v-1638h-319v571c0 244.667 10.333 492 31 742h-27c-15.333 -104 -27.333 -193.167 -36 -267.5s-14.834 -135 -18.501 -182
s-5.5 -71.167 -5.5 -72.5l-59 -584h-229l-72 581c-4 34 -11.167 107.5 -21.5 220.5s-20.833 214.5 -31.5 304.5h-27c22 -392 33 -639.333 33 -742v-571h-322z" />
    <glyph glyph-name="uni041D" unicode="&#x41d;" horiz-adv-x="1062" 
d="M102 0v1638h326v-686h209v686h324v-1638h-324v686h-209v-686h-326z" />
    <glyph glyph-name="uni041E" unicode="&#x41e;" horiz-adv-x="1036" 
d="M516 -20c-140.667 0 -244.834 34 -312.501 102s-101.5 173 -101.5 315v848c0 140.667 33.833 244.834 101.5 312.501s171.834 101.5 312.501 101.5c142 0 247.167 -33.833 315.5 -101.5s102.5 -171.834 102.5 -312.501v-848c0 -142 -34.167 -247 -102.5 -315
s-173.5 -102 -315.5 -102zM518 246c32.667 0 55.834 11.5 69.501 34.5s20.5 62.5 20.5 118.5v840c0 56 -6.83301 95.667 -20.5 119s-36.834 35 -69.501 35s-55.834 -11.667 -69.501 -35s-20.5 -63 -20.5 -119v-840c0 -56 6.83301 -95.5 20.5 -118.5
s36.834 -34.5 69.501 -34.5z" />
    <glyph glyph-name="uni041F" unicode="&#x41f;" horiz-adv-x="1021" 
d="M954 1638v-1638h-323v1372h-238v-1372h-325v1638h886z" />
    <glyph glyph-name="uni0420" unicode="&#x420;" horiz-adv-x="991" 
d="M102 0v1638h408c154 0 267.667 -29 341 -87s110 -147 110 -267v-227c0 -120 -37 -209.167 -111 -267.5s-188 -87.5 -342 -87.5h-80v-702h-326zM428 969h55c101.333 0 152 58 152 174v51c0 118.667 -50.667 178 -152 178h-55v-403z" />
    <glyph glyph-name="uni0421" unicode="&#x421;" horiz-adv-x="878" 
d="M102 391v854c0 276 140.667 414 422 414c117.333 0 215 -13 293 -39v-313c-61.333 57.333 -137.666 86 -228.999 86c-106.667 0 -160 -62.333 -160 -187v-774c0 -124 53.333 -186 160 -186c83.333 0 159.666 27.333 228.999 82v-312c-94 -26 -191.667 -39 -293 -39
c-281.333 0 -422 138 -422 414z" />
    <glyph glyph-name="uni0422" unicode="&#x422;" horiz-adv-x="856" 
d="M846 1638v-266h-254v-1372h-326v1372h-256v266h836z" />
    <glyph glyph-name="uni0423" unicode="&#x423;" horiz-adv-x="962" 
d="M961 1638l-258.999 -1206l-2 -29c-1.33301 -15.333 -4 -33.166 -8 -53.499s-11.5 -46.833 -22.5 -79.5s-27 -63.667 -48 -93s-46.5 -57.666 -76.5 -84.999s-69.333 -49.166 -118 -65.499s-103 -24.5 -163 -24.5c-79.333 0 -127 7.66699 -143 23
c-2.66699 2.66699 -3.33398 4.66699 -2.00098 6v299c109.333 -28.667 168.666 -43 177.999 -43c28.667 0 49 16.333 61 49l-14 -2l-334 1304h318l67 -333l29.5 -157c9 -48.667 19.333 -108.167 31 -178.5s23.834 -138.833 36.501 -205.5h18
c9.33301 70.667 19.833 160 31.5 268s24.5 198.333 38.5 271l61 335h320z" />
    <glyph glyph-name="uni0424" unicode="&#x424;" horiz-adv-x="1366" 
d="M846 1397c278.667 -34 418 -171.333 418 -412v-328c0 -240 -139.333 -377 -418 -411v-246h-326v246c-278.667 34 -418 171 -418 411v328c0 240 139.333 377.333 418 412v241h326v-241zM420 631c0 -68 33.333 -115.333 100 -142v664c-66.667 -26 -100 -74.333 -100 -145
v-377zM946 631v377c0 70.667 -33.333 119 -100 145v-664c66.667 26.667 100 74 100 142z" />
    <glyph glyph-name="uni0425" unicode="&#x425;" horiz-adv-x="1058" 
d="M2 0l364.998 813.002l-353 825h359l88 -241c23.333 -62.667 42.333 -144 57 -244h27c19.333 104 38.333 181 57 231l98 254h357l-363 -813l350 -825h-360l-66 209l-22 69c-9.33301 29.333 -16.5 51.166 -21.5 65.499s-10.167 31.666 -15.5 51.999
s-9.66602 39.333 -12.999 57s-5.66602 35.5 -6.99902 53.5h-27c-5.33301 -58.667 -31.333 -155 -78 -289l-76 -217h-356z" />
    <glyph glyph-name="uni0426" unicode="&#x426;" horiz-adv-x="1144" 
d="M803 -246v246h-735v1638h325v-1372h240v1372h325v-1372h170v-512h-325z" />
    <glyph glyph-name="uni0427" unicode="&#x427;" horiz-adv-x="1009" 
d="M582 1638h324.999v-1638h-325v651c-57.333 -65.333 -126.333 -98 -207 -98c-104 0 -181.167 29.667 -231.5 89s-75.5 151.333 -75.5 276v720h325v-733c0 -83.333 29.333 -125 88 -125c40.667 0 74.334 17 101.001 51v807z" />
    <glyph glyph-name="uni0428" unicode="&#x428;" horiz-adv-x="1662" 
d="M68 0v1638h325v-1372h277v1372h325v-1372h275v1372h325v-1638h-1527z" />
    <glyph glyph-name="uni0429" unicode="&#x429;" horiz-adv-x="1781" 
d="M1440 -307v307h-1372v1638h325v-1372h277v1372h325v-1372h275v1372h325v-1372h170v-573h-325z" />
    <glyph glyph-name="uni042A" unicode="&#x42a;" horiz-adv-x="1189" 
d="M641 969c161.333 0 281.167 -30.832 359.5 -92.499s117.5 -155.834 117.5 -282.501v-205c0 -132.667 -39.167 -230.667 -117.5 -294s-198.833 -95 -361.5 -95h-348v1372h-281v266h602v-669h29zM793.001 455.001v98c0 114.667 -50.667 172 -152 172h-29v-459h29
c101.333 0.666992 152 63.667 152 189z" />
    <glyph glyph-name="uni042B" unicode="&#x42b;" horiz-adv-x="1409" 
d="M418 969c161.333 0 281.167 -30.832 359.5 -92.499s117.5 -155.834 117.5 -282.501v-205c0 -132.667 -39.333 -230.667 -118 -294s-199 -95 -361 -95h-348v1638h321v-669h29zM1016 1638h325v-1638h-325v1638zM569.001 455.001v98c0 114.667 -50.333 172 -151 172h-29
v-459h29c100.667 0.666992 151 63.667 151 189z" />
    <glyph glyph-name="uni042C" unicode="&#x42c;" horiz-adv-x="966" 
d="M418 969c161.333 0 281.167 -30.832 359.5 -92.499s117.5 -155.834 117.5 -282.501v-205c0 -132.667 -39.333 -230.667 -118 -294s-199 -95 -361 -95h-348v1638h321v-669h29zM569.001 455.001v98c0 114.667 -50.333 172 -151 172h-29v-459h29
c100.667 0.666992 151 63.667 151 189z" />
    <glyph glyph-name="uni042D" unicode="&#x42d;" horiz-adv-x="815" 
d="M326 1659c143.333 0 249.5 -32.168 318.5 -96.501s103.5 -163.166 103.5 -296.499v-858c0 -146 -28.333 -254.333 -85 -325s-144.667 -106 -264 -106c-152.667 0 -274.667 12.333 -366 37v346c72.667 -54.667 149 -81.667 229 -81c108 0 162 62 162 186v219h-199v268h199
v254c0 124 -54 186.333 -162 187c-90 0 -166.333 -28.667 -229 -86v313c86 26 183.667 39 293 39z" />
    <glyph glyph-name="uni042E" unicode="&#x42e;" horiz-adv-x="1462" 
d="M977 1659c142 0 247.167 -33.833 315.5 -101.5s102.5 -171.834 102.5 -312.501v-848c0 -142 -34.167 -247 -102.5 -315s-173.5 -102 -315.5 -102c-140.667 0 -244.834 34 -312.501 102s-101.5 173 -101.5 315v289h-170v-686h-325v1638h325v-686h170v293
c0 140.667 33.833 244.834 101.5 312.501s171.834 101.5 312.501 101.5zM1069 399v840c0 56 -6.83301 95.667 -20.5 119s-36.834 35 -69.501 35s-55.834 -11.667 -69.501 -35s-20.5 -63 -20.5 -119v-840c0 -56 6.83301 -95.5 20.5 -118.5s36.834 -34.5 69.501 -34.5
s55.834 11.5 69.501 34.5s20.5 62.5 20.5 118.5z" />
    <glyph glyph-name="uni042F" unicode="&#x42f;" horiz-adv-x="964" 
d="M897 1638l-0.000976562 -1638h-330v723h-65c-75.333 0 -113 -50 -113 -150v-573h-326v561c0 181.333 70.333 276.333 211 285c-161.333 39.333 -241.666 146.333 -240.999 321v131c0 116 39.167 201.667 117.5 257s198.833 83 361.5 83h385zM357.999 1171v-18
c0 -122.667 50.667 -184 152 -184h57v403h-57c-101.333 0 -152 -67 -152 -201z" />
    <glyph glyph-name="uni0430" unicode="&#x430;" horiz-adv-x="874" 
d="M446 1149c237.333 0 356.334 -116 357.001 -348v-801h-318v113c-72.667 -88.667 -152.334 -133 -239.001 -133c-143.333 0 -215 112.333 -215 337c0 236 80.333 354.333 241 355c74 0 145 -26 213 -78v188c0 94 -41 141.333 -123 142c-68 0 -149 -34.333 -243 -103v279
c132 32.667 241 49 327 49zM416.001 217c26 0 49.001 13.667 69.001 41v178c-28.667 20.667 -50.334 31 -65.001 31c-48 0 -72 -43 -72 -129c0 -80.667 22.667 -121 68 -121z" />
    <glyph glyph-name="uni0431" unicode="&#x431;" horiz-adv-x="1052" 
d="M670 1087c104 0 178.5 -42.166 223.5 -126.499s67.5 -205.833 67.5 -364.5v-131c0 -157.333 -32.167 -277.5 -96.5 -360.5s-169.5 -124.5 -315.5 -124.5c-155.333 0 -270.333 59 -345 177s-112 298.333 -112 541c0 276 40.333 489.667 121 641
c75.333 142 173 236.333 293 283c38 15.333 83.333 29.333 136 42s99.167 27 139.5 43s81.5 38.333 123.5 67v-340c-28.667 -15.333 -74 -29.5 -136 -42.5s-107.333 -26.167 -136 -39.5c-48 -23.333 -83.5 -50 -106.5 -80s-42.167 -69.667 -57.5 -119
c-18 -54.667 -31.667 -117.334 -41 -188.001c86 81.333 166.667 122 242 122zM643 455.001v173.999c0 80.667 -8.83301 136.334 -26.5 167.001s-50.5 46 -98.5 46c-44 0 -78.667 -28 -104 -84c-1.33301 -19.333 -2 -49.333 -2 -90c0 -162.667 8.83301 -274.667 26.5 -336
s50.5 -92 98.5 -92c40.667 0 68.5 15.333 83.5 46s22.5 87 22.5 169z" />
    <glyph glyph-name="uni0432" unicode="&#x432;" horiz-adv-x="878" 
d="M827 823c0 -132.667 -68 -213 -204 -241c130 -32.667 194.667 -116.667 194 -252v-62c0 -91.333 -29 -158.833 -87 -202.5s-147 -65.5 -267 -65.5h-371v1130h393c228 0 342 -84.333 342 -253v-54zM424 885h-18v-189h18c58.667 0 88 31.667 88 95v12
c0 54.667 -29.333 82 -88 82zM500 326v51.001c0 61.333 -31.333 92.666 -94 93.999v-225c62.667 0 94 26.667 94 80z" />
    <glyph glyph-name="uni0433" unicode="&#x433;" horiz-adv-x="733" 
d="M692 1126v-256h-282v-870h-318v1126h600z" />
    <glyph glyph-name="uni0434" unicode="&#x434;" horiz-adv-x="954" 
d="M864 254l80 -0.000976562v-477h-317v223h-320v-223h-317v477c106.667 16.667 160 112.334 160 287.001v589h714v-876zM467 605.999c0 -166.667 -47 -284 -141 -352h221v620h-80v-268z" />
    <glyph glyph-name="uni0435" unicode="&#x435;" 
d="M838 446h-449v-170c0 -48 36.333 -71.667 109 -71c79.333 0 185.666 30 318.999 90v-268c-100 -31.333 -211.333 -47 -334 -47c-78 0 -144.5 8.16699 -199.5 24.5s-95.833 35 -122.5 56s-47.167 48.333 -61.5 82s-22.5 59.667 -24.5 78s-3 41.833 -3 70.5v545
c0 18 0.333008 32.333 1 43s3.33398 28 8.00098 52s11.5 44.5 20.5 61.5s23.333 35.667 43 56s42.834 37.333 69.501 51s61.167 25 103.5 34s90.166 13.5 143.499 13.5c128.667 0 223.667 -25.667 285 -77s92 -129.333 92 -234v-390zM459 922
c-46.667 0 -70 -33.667 -70 -101v-180h131v180c0 67.333 -20.333 101 -61 101z" />
    <glyph glyph-name="uni0436" unicode="&#x436;" horiz-adv-x="1452" 
d="M1204 475l217.001 -475h-364l-99 344c-15.333 53.333 -30.333 80 -45 80c-6.66699 0 -14.667 -2.66699 -24 -8v-416h-320v416c-10.667 5.33301 -19.5 8 -26.5 8s-12.833 -4.83301 -17.5 -14.5s-12.334 -31.5 -23.001 -65.5l-111 -344h-360l217 473
c24.667 54.667 49.167 92.167 73.5 112.5s51.5 30.5 81.5 30.5c-8 4 -20.167 13.333 -36.5 28s-36.833 38.334 -61.5 71.001s-45.667 68.667 -63 108c-24.667 53.333 -50 80 -76 80c-38 0 -73.667 -12.333 -107 -37v264h193c32.667 0 57.5 -1.33301 74.5 -4
s37.833 -10.167 62.5 -22.5s46.167 -34.166 64.5 -65.499s35.166 -73 50.499 -125c18 -68 39.667 -125.333 65 -172v389h320v-356c12 28.667 29 75 51 139c16.667 52 34.834 93.667 54.501 125s42.167 53.166 67.5 65.499s46.833 19.833 64.5 22.5s42.834 4 75.501 4h193
v-264c-40.667 24.667 -74.334 37 -101.001 37c-30 0 -60 -32 -90 -96c-10.667 -24.667 -23.5 -47.834 -38.5 -69.501s-29 -39.334 -42 -53.001s-25 -25.667 -36 -36s-19.833 -18.166 -26.5 -23.499l-10 -9c58 0 109 -47 153 -141z" />
    <glyph glyph-name="uni0437" unicode="&#x437;" horiz-adv-x="686" 
d="M436 598c146 -30 219.001 -114.665 219.001 -253.998v-78c0 -96.667 -32 -168.5 -96 -215.5s-162.333 -70.5 -295 -70.5c-45.333 2.66699 -116.333 6 -213 10v264c69.333 -32.667 124.666 -49 165.999 -49c84.667 0 127 42.333 127 127v41
c0 75.333 -33.333 112.666 -100 111.999h-131v226h123c64 0 96 33.333 96 100c0 74 -33.667 111 -101 111c-64 0 -127.333 -16.667 -190 -50v256c82 12 151.667 18.333 209 19c134 0 233 -22.833 297 -68.5s96 -115.834 96 -210.501v-10c0 -139.333 -69 -226 -207 -260z" />
    <glyph glyph-name="uni0438" unicode="&#x438;" horiz-adv-x="933" 
d="M530 1130h312v-1130h-312v784l-127 -157v-627h-311v1130h311v-157z" />
    <glyph glyph-name="uni0439" unicode="&#x439;" horiz-adv-x="933" 
d="M477 1251c-150 0 -226.999 85.333 -230.999 256h147c5.33301 -68 33.333 -102 84 -102c52 0 80 34 84 102h150c-2.66699 -86 -22.834 -150.167 -60.501 -192.5s-95.5 -63.5 -173.5 -63.5zM530.001 1130h312v-1130h-312v784l-127 -157v-627h-311v1130h311v-157z" />
    <glyph glyph-name="uni043A" unicode="&#x43a;" horiz-adv-x="1005" 
d="M756 475l218.997 -475h-367l-129 399c-9.33301 30 -23.666 45 -42.999 45c-4 0 -12.667 -1.33301 -26 -4v-440h-318v1130h318v-409c10.667 12 21.834 27.667 33.501 47s21.167 36.166 28.5 50.499l33.5 66.5c15 30 26.833 52.333 35.5 67
c20.667 40.667 40.167 72.667 58.5 96s40 40.5 65 51.5s47.167 17.833 66.5 20.5s49.333 4.66699 90 6l125 4v-241c-27.333 24.667 -54 37 -80 37c-22 0 -41.167 -9.66699 -57.5 -29s-36.5 -55.666 -60.5 -108.999c-5.33301 -10.667 -11.166 -21.5 -17.499 -32.5
s-13 -20.833 -20 -29.5l-21.5 -26.5c-7.33301 -9 -14.5 -16.833 -21.5 -23.5s-13.5 -13.167 -19.5 -19.5s-11.667 -11.833 -17 -16.5s-10.166 -8.66699 -14.499 -12s-7.83301 -6.66602 -10.5 -9.99902l-4 -2c32.667 0 60.667 -10.833 84 -32.5
s46.666 -57.834 69.999 -108.501z" />
    <glyph glyph-name="uni043B" unicode="&#x43b;" horiz-adv-x="1038" 
d="M946 1130v-1130h-313v874h-96v-505c0 -246 -95.667 -369 -287 -369h-240v252c48 -30 91 -45 129 -45c56 0 84 38.333 84 115v808h723z" />
    <glyph glyph-name="uni043C" unicode="&#x43c;" horiz-adv-x="1153" 
d="M92 0l-0.000976562 1130l440 -4l13 -184c10.667 -151.333 17.334 -275.666 20.001 -372.999h23c1.33301 26 5.33301 86.5 12 181.5s10.667 157.5 12 187.5l13 192h436v-1130h-313l2 150c2.66699 142 14 381.333 34 718h-26c-13.333 -122.667 -27 -263.334 -41 -422.001
l-35 -348h-207l-33 348l-12 121c-6.66699 80.667 -15.667 181 -27 301h-32c23.333 -388 35 -627.333 35 -718v-150h-314z" />
    <glyph glyph-name="uni043D" unicode="&#x43d;" horiz-adv-x="888" 
d="M485 1126h312v-1126h-312v436h-106v-436h-311v1126h311v-434h106v434z" />
    <glyph glyph-name="uni043E" unicode="&#x43e;" 
d="M72 287v532c0 112 31.333 194.667 94 248s158.834 80 288.501 80s226 -26.667 289 -80s94.5 -136 94.5 -248v-532c0 -104 -31.5 -181.167 -94.5 -231.5s-159.333 -75.5 -289 -75.5s-225.834 25.167 -288.501 75.5s-94 127.5 -94 231.5zM389 305
c0 -66.667 21.833 -100 65.5 -100s65.5 33.333 65.5 100v516c0 66.667 -21.833 100.167 -65.5 100.5s-65.5 -33.167 -65.5 -100.5v-516z" />
    <glyph glyph-name="uni043F" unicode="&#x43f;" horiz-adv-x="888" 
d="M797 1126v-1126h-318v870h-94v-870h-317v1126h729z" />
    <glyph glyph-name="uni0440" unicode="&#x440;" 
d="M627 1147c140.667 0 211 -82 211 -246v-676c0 -164 -70.333 -245.667 -211 -245c-83.333 0 -162.666 39.333 -237.999 118v-569h-317v1597h317v-98c75.333 79.333 154.666 119 237.999 119zM520 289l0.000976562 549c0 56 -21 84 -63 84c-18 0 -40.667 -11 -68 -33v-649
c31.333 -23.333 54.666 -35 69.999 -35c40.667 0 61 28 61 84z" />
    <glyph glyph-name="uni0441" unicode="&#x441;" horiz-adv-x="677" 
d="M72 291l0.000976562 545.001c0 26 0.666992 48.167 2 66.5s8.16602 44.166 20.499 77.499s29.333 60.666 51 81.999s55.667 40.5 102 57.5s101.833 25.5 166.5 25.5c83.333 0 159.666 -13.667 228.999 -41v-248c-69.333 40.667 -126 61.334 -170 62.001
c-56 0 -84 -30.333 -84 -91v-520c0 -68 29.333 -102 88 -102c42 0 97.333 20.333 166 61v-248c-69.333 -27.333 -145.666 -41 -228.999 -41c-64 0 -119.333 8.66699 -166 26s-80.834 36.833 -102.501 58.5s-38.667 49.667 -51 84s-19.166 60.333 -20.499 78
s-2 40.167 -2 67.5z" />
    <glyph glyph-name="uni0442" unicode="&#x442;" horiz-adv-x="796" 
d="M786 1126v-266h-229v-862l-317 2v860h-230v266h776z" />
    <glyph glyph-name="uni0443" unicode="&#x443;" horiz-adv-x="829" 
d="M184 -471c-53.333 0 -101.667 9.00098 -145 27.001v241c36.667 -28.667 77.667 -43 123 -43c30 0 54.167 12 72.5 36s33.833 64.667 46.5 122l18 88l-297 1126h336l45 -383c20.667 -172 31 -273 31 -303h22c0 34 1.66699 68.5 5 103.5s7.5 72.667 12.5 113
s8.16699 69.166 9.5 86.499l35 383h329l-288 -1226c-30 -125.333 -73.833 -218.5 -131.5 -279.5s-132.167 -91.5 -223.5 -91.5z" />
    <glyph glyph-name="uni0444" unicode="&#x444;" horiz-adv-x="1189" 
d="M752 1022c258 -30 387 -151.668 387 -365.001v-184c0 -211.333 -129 -332 -387 -362v-111h-314v111c-258 30 -387 150.667 -387 362v184c0 212.667 129 334.334 387 365.001v108h314v-108zM848 488.999v150c0 64 -32 107 -96 129v-406c64 22 96 64.333 96 127z
M342 488.999c0 -62.667 32 -105 96 -127v406c-64 -22 -96 -65 -96 -129v-150z" />
    <glyph glyph-name="uni0445" unicode="&#x445;" horiz-adv-x="901" 
d="M0 0l284.999 559.002l-275 567h307l76 -165c20.667 -45.333 36.334 -101.333 47.001 -168h23c13.333 66.667 29.666 119.667 48.999 159l84 174h305l-285 -559l275 -567h-313l-56 143c-38 98 -59 166.333 -63 205h-23c-1.33301 -13.333 -3.33301 -25.833 -6 -37.5
s-6.66699 -24.334 -12 -38.001s-10.166 -25.334 -14.499 -35.001l-19.5 -43c-8.66699 -19 -15 -33.833 -19 -44.5l-66 -150h-299z" />
    <glyph glyph-name="uni0446" unicode="&#x446;" horiz-adv-x="1130" 
d="M981 256h139v-479h-317v223h-711v1126h318v-870h252v870h319v-870z" />
    <glyph glyph-name="uni0447" unicode="&#x447;" horiz-adv-x="899" 
d="M489 1130h317.999v-1130h-318v449c-45.333 -45.333 -95.666 -68 -150.999 -68c-164 0 -246 88 -246 264v485h318v-483c0 -35.333 10.667 -53 32 -53c18 0 33.667 4.66699 47 14v522z" />
    <glyph glyph-name="uni0448" unicode="&#x448;" horiz-adv-x="1550" 
d="M92 0v1130h318v-874h206v874h320v-874h203v874h319v-1130h-1366z" />
    <glyph glyph-name="uni0449" unicode="&#x449;" horiz-adv-x="1617" 
d="M1284 -223v223h-1192v1130h318v-874h206v874h320v-874h203v874h319v-874h144v-479h-318z" />
    <glyph glyph-name="uni044A" unicode="&#x44a;" horiz-adv-x="1015" 
d="M608 696c237.333 0 356.333 -92.667 357 -278v-125c0 -195.333 -119 -293 -357 -293h-370v885h-234v245h531v-434h73zM662 340v35c0 57.333 -32.333 86 -97 86h-30v-205h30c64.667 0 97 28 97 84z" />
    <glyph glyph-name="uni044B" unicode="&#x44b;" horiz-adv-x="1286" 
d="M463 696c237.333 0 356 -92.667 356 -278v-125c0 -195.333 -118.667 -293 -356 -293h-371v1130h297v-434h74zM874 1130h320v-1130h-320v1130zM516 340v35c0 57.333 -32 86 -96 86h-31v-205h31c64 0 96 28 96 84z" />
    <glyph glyph-name="uni044C" unicode="&#x44c;" horiz-adv-x="870" 
d="M463 696c237.333 0 356 -92.667 356 -278v-125c0 -195.333 -118.667 -293 -356 -293h-371v1130h297v-434h74zM516 340v35c0 57.333 -32 86 -96 86h-31v-205h31c64 0 96 28 96 84z" />
    <glyph glyph-name="uni044D" unicode="&#x44d;" horiz-adv-x="677" 
d="M270 1145c114.667 0 199.333 -25.332 254 -75.999s82 -128.334 82 -233.001v-545c0 -106.667 -27.333 -185.667 -82 -237s-139.334 -77 -254.001 -77c-87.333 0 -165.666 13.667 -234.999 41v248c66.667 -40.667 124 -61 172 -61c54.667 0 82 34 82 102v135h-99v246h99
v139c0 60 -27.333 90.333 -82 91c-45.333 0 -102.666 -20.667 -171.999 -62v248c69.333 27.333 147.666 41 234.999 41z" />
    <glyph glyph-name="uni044E" unicode="&#x44e;" horiz-adv-x="1296" 
d="M882.5 1147c129.667 0 226 -26.667 289 -80s94.5 -136 94.5 -248v-532c0 -104 -31.5 -181.167 -94.5 -231.5s-159.333 -75.5 -289 -75.5s-225.834 25.167 -288.501 75.5s-94 127.5 -94 231.5v151h-127v-438h-318v1126h318v-436h127v129c0 112 31.333 194.667 94 248
s158.834 80 288.501 80zM948 305v516c0 66.667 -21.833 100.167 -65.5 100.5s-65.5 -33.167 -65.5 -100.5v-516c0 -66.667 21.833 -100 65.5 -100s65.5 33.333 65.5 100z" />
    <glyph glyph-name="uni044F" unicode="&#x44f;" horiz-adv-x="878" 
d="M786 1130v-1130h-315v465c-52 0 -78 -32 -78 -96v-369h-317v358c0 136.667 61.333 211.334 184 224.001c-139.333 28.667 -209 107.667 -209 237v64c0 165.333 112.667 247.666 338 246.999h397zM369 782v-12c0 -46.667 25.667 -70 77 -70h25v174h-25
c-51.333 0 -77 -30.667 -77 -92z" />
    <glyph glyph-name="uni0451" unicode="&#x451;" 
d="M285 1247c-82 0 -123 42.333 -123 127c0 88.667 41 133 123 133c84.667 0 127 -44.333 127 -133c0 -84.667 -42.333 -127 -127 -127zM580 1247c-82 0 -123 42.333 -123 127c0 88.667 41 133 123 133c83.333 0 125 -44.333 125 -133c0 -84.667 -41.667 -127 -125 -127z
M838 446h-449v-170c0 -48 36.333 -71.667 109 -71c79.333 0 185.666 30 318.999 90v-268c-100 -31.333 -211.333 -47 -334 -47c-78 0 -144.5 8.16699 -199.5 24.5s-95.833 35 -122.5 56s-47.167 48.333 -61.5 82s-22.5 59.667 -24.5 78s-3 41.833 -3 70.5v545
c0 18 0.333008 32.333 1 43s3.33398 28 8.00098 52s11.5 44.5 20.5 61.5s23.333 35.667 43 56s42.834 37.333 69.501 51s61.167 25 103.5 34s90.166 13.5 143.499 13.5c128.667 0 223.667 -25.667 285 -77s92 -129.333 92 -234v-390zM459 922
c-46.667 0 -70 -33.667 -70 -101v-180h131v180c0 67.333 -20.333 101 -61 101z" />
    <glyph glyph-name="Wgrave" unicode="&#x1e80;" horiz-adv-x="1368" 
d="M596 1761l-203 232h273l127 -232h-197zM102 332v1306h324v-1271c0 -79.333 17 -119 51 -119c31.333 0 47 38 47 114v1076h318v-1076c0 -76.667 15.667 -114.667 47 -114c34 0 51 39.667 51 119v1271h326v-1306c0 -120 -27.667 -208.667 -83 -266s-140.333 -86 -255 -86
c-125.333 0 -207.333 53.667 -246 161c-35.333 -108 -116 -161.667 -242 -161c-114.667 0 -199.667 28.667 -255 86s-83 146 -83 266z" />
    <glyph glyph-name="wgrave" unicode="&#x1e81;" horiz-adv-x="1298" 
d="M561 1249l-217 252h272l136 -252h-191zM215 0l-209.001 1126h301l39 -370c27.333 -266 45 -433.333 53 -502h25l113 872h229l119 -872h22l51 502l37 370h297l-209 -1126h-335l-48 336c-12 90 -20.667 162.333 -26 217s-8.66602 106.167 -9.99902 154.5s-3 85.5 -5 111.5
h-18c-2.66699 -28.667 -4.66699 -64.5 -6 -107.5s-4.83301 -92.833 -10.5 -149.5s-14.5 -131.334 -26.5 -224.001l-47 -338h-336z" />
    <glyph glyph-name="Wacute" unicode="&#x1e82;" horiz-adv-x="1368" 
d="M778 1761h-196l127 232h272zM102 332v1306h324v-1271c0 -79.333 17 -119 51 -119c31.333 0 47 38 47 114v1076h318v-1076c0 -76.667 15.667 -114.667 47 -114c34 0 51 39.667 51 119v1271h326v-1306c0 -120 -27.667 -208.667 -83 -266s-140.333 -86 -255 -86
c-125.333 0 -207.333 53.667 -246 161c-35.333 -108 -116 -161.667 -242 -161c-114.667 0 -199.667 28.667 -255 86s-83 146 -83 266z" />
    <glyph glyph-name="wacute" unicode="&#x1e83;" horiz-adv-x="1298" 
d="M739 1251h-190l135 252h272zM215 0l-209.001 1126h301l39 -370c27.333 -266 45 -433.333 53 -502h25l113 872h229l119 -872h22l51 502l37 370h297l-209 -1126h-335l-48 336c-12 90 -20.667 162.333 -26 217s-8.66602 106.167 -9.99902 154.5s-3 85.5 -5 111.5h-18
c-2.66699 -28.667 -4.66699 -64.5 -6 -107.5s-4.83301 -92.833 -10.5 -149.5s-14.5 -131.334 -26.5 -224.001l-47 -338h-336z" />
    <glyph glyph-name="Wdieresis" unicode="&#x1e84;" horiz-adv-x="1368" 
d="M496 1743c-95.333 0 -143.333 39.667 -144 119c0 82 48 123 144 123c96.667 0 145 -41 145 -123c0 -79.333 -48.333 -119 -145 -119zM872.5 1743c-97 0 -145.5 39.667 -145.5 119c0 82 48.5 123 145.5 123s145.5 -41 145.5 -123c0 -79.333 -48.5 -119 -145.5 -119z
M102 332v1306h324v-1271c0 -79.333 17 -119 51 -119c31.333 0 47 38 47 114v1076h318v-1076c0 -76.667 15.667 -114.667 47 -114c34 0 51 39.667 51 119v1271h326v-1306c0 -120 -27.667 -208.667 -83 -266s-140.333 -86 -255 -86c-125.333 0 -207.333 53.667 -246 161
c-35.333 -108 -116 -161.667 -242 -161c-114.667 0 -199.667 28.667 -255 86s-83 146 -83 266z" />
    <glyph glyph-name="wdieresis" unicode="&#x1e85;" horiz-adv-x="1298" 
d="M500 1247c-82 0 -123 42.333 -123 127c0 88.667 41 133 123 133c84.667 0 127 -44.333 127 -133c0 -84.667 -42.333 -127 -127 -127zM795 1247c-82 0 -123 42.333 -123 127c0 88.667 41 133 123 133c83.333 0 125 -44.333 125 -133c0 -84.667 -41.667 -127 -125 -127z
M215 0l-209.001 1126h301l39 -370c27.333 -266 45 -433.333 53 -502h25l113 872h229l119 -872h22l51 502l37 370h297l-209 -1126h-335l-48 336c-12 90 -20.667 162.333 -26 217s-8.66602 106.167 -9.99902 154.5s-3 85.5 -5 111.5h-18
c-2.66699 -28.667 -4.66699 -64.5 -6 -107.5s-4.83301 -92.833 -10.5 -149.5s-14.5 -131.334 -26.5 -224.001l-47 -338h-336z" />
    <glyph glyph-name="uni1E9E" unicode="&#x1e9e;" horiz-adv-x="1196" 
d="M102 0v1274c0 124 34.167 215.667 102.5 275s173.5 89 315.5 89h47c142 0 247.167 -29.667 315.5 -89s102.5 -151 102.5 -275v-148l-158 -196c110.667 -56 190.667 -122.333 240 -199s74 -168 74 -274v-49c0 -144.667 -35.5 -252.167 -106.5 -322.5
s-180.167 -105.5 -327.5 -105.5c-52 0 -107.333 6.66699 -166 20v293c50.667 -27.333 95 -41 133 -41c95.333 0 143 56 143 168c0 140.667 -111.333 260.667 -334 360l2 156l174 217v125c0 76.667 -30 115 -90 115h-51c-60 0 -90 -55.333 -90 -166v-1227h-326z" />
    <glyph glyph-name="Ygrave" unicode="&#x1ef2;" horiz-adv-x="1052" 
d="M635 1761h-197l-202 232h272zM1042 1638l-350 -1087v-551h-332v557l-350 1081h334l82 -313c52 -203.333 80 -339 84 -407h33c12 104 41.333 240.333 88 409l84 311h327z" />
    <glyph glyph-name="ygrave" unicode="&#x1ef3;" horiz-adv-x="829" 
d="M332 1249l-217 252h272l135 -252h-190zM184 -471c-53.333 0 -101.667 9.00098 -145 27.001v241c36.667 -28.667 77.667 -43 123 -43c30 0 54.167 12 72.5 36s33.833 64.667 46.5 122l18 88l-297 1126h336l45 -383c20.667 -172 31 -273 31 -303h22
c0 34 1.66699 68.5 5 103.5s7.5 72.667 12.5 113s8.16699 69.166 9.5 86.499l35 383h329l-288 -1226c-30 -125.333 -73.833 -218.5 -131.5 -279.5s-132.167 -91.5 -223.5 -91.5z" />
    <glyph glyph-name="endash" unicode="&#x2013;" horiz-adv-x="901" 
d="M829 805v-256h-757v256h757z" />
    <glyph glyph-name="emdash" unicode="&#x2014;" horiz-adv-x="1902" 
d="M1831 805v-256h-1759v256h1759z" />
    <glyph glyph-name="quoteleft" unicode="&#x2018;" horiz-adv-x="471" 
d="M279 1372c94 -9.33301 141.001 -60.334 141.001 -153.001c0 -105.333 -60.667 -158 -182 -158c-124 0 -186.333 52.667 -187 158v2v18c6.66699 76.667 41.667 154.667 105 234c48 62.667 101 117.667 159 165l146 -151
c-92.667 -41.333 -153.334 -79.666 -182.001 -114.999z" />
    <glyph glyph-name="quoteright" unicode="&#x2019;" horiz-adv-x="471" 
d="M420 1483c0 -16.667 -0.667969 -29.001 -2.00098 -37.001c-9.33301 -68 -43.666 -141 -102.999 -219c-52 -65.333 -105 -120.666 -159 -165.999l-146 153c88.667 36.667 148.667 73.667 180 111c-92.667 12 -139 64.667 -139 158c0 104 61.5 156 184.5 156
s184.5 -52 184.5 -156z" />
    <glyph glyph-name="quotesinglbase" unicode="&#x201a;" horiz-adv-x="471" 
d="M420 158c0 -12 -0.666992 -21.667 -2 -29c-8 -75.333 -42.333 -150.333 -103 -225c-62.667 -75.333 -115.667 -130 -159 -164l-146 151c75.333 32.667 133.333 71 174 115c-88.667 12 -133 62.667 -133 152c0 105.333 61.5 158 184.5 158s184.5 -52.667 184.5 -158z" />
    <glyph glyph-name="quotedblleft" unicode="&#x201c;" horiz-adv-x="860" 
d="M315 1638l146 -152.999c-83.333 -38 -141.333 -75.667 -174 -113c88.667 -9.33301 133 -60.333 133 -153c0 -105.333 -60.667 -158 -182 -158c-124 0 -186.333 52.667 -187 158c0 79.333 35.667 164.666 107 255.999c48.667 62 101 116.333 157 163zM705 1638
l145 -152.999c-74 -36.667 -129.333 -74.334 -166 -113.001c83.333 -12 125 -63 125 -153c0 -105.333 -61.5 -158 -184.5 -158s-184.5 52.667 -184.5 158c0 82 35 166.667 105 254c46.667 60.667 100 115.667 160 165z" />
    <glyph glyph-name="quotedblright" unicode="&#x201d;" horiz-adv-x="860" 
d="M156 1061l-145.999 152.998c69.333 35.333 124.666 73 165.999 113c-83.333 13.333 -125 65.333 -125 156c0 104 61.5 155.833 184.5 155.5s184.5 -52.166 184.5 -155.499c0 -80.667 -35 -166 -105 -256c-51.333 -65.333 -104.333 -120.666 -159 -165.999zM545.001 1061
l-146 152.998c80.667 36.667 138.667 74.334 174 113.001c-90 12 -135 64 -135 156c0 104 61.667 155.667 185 155c124 0 186 -51.667 186 -155c0 -78 -34.667 -163.333 -104 -256c-52 -65.333 -105.333 -120.666 -160 -165.999z" />
    <glyph glyph-name="quotedblbase" unicode="&#x201e;" horiz-adv-x="860" 
d="M156 -260l-145.997 151c69.333 35.333 124.666 73 165.999 113c-83.333 12 -125 63.333 -125 154c0 105.333 61.5 157.833 184.5 157.5s184.5 -52.833 184.5 -157.5c0 -86 -34.333 -170 -103 -252c-28.667 -34 -54.834 -63 -78.501 -87s-42.334 -42.167 -56.001 -54.5
s-22.5 -20.5 -26.5 -24.5zM545.003 -260l-146 151.001c76.667 35.333 134.667 73 174 113c-90 12 -135 63.333 -135 154c0 105.333 61.667 157.666 185 156.999c124 0 186 -52.333 186 -157c0 -78 -34.667 -162 -104 -252c-46.667 -58.667 -100 -114 -160 -166z" />
    <glyph glyph-name="dagger" unicode="&#x2020;" horiz-adv-x="864" 
d="M793 1382v-256h-234v-757h-256v757h-231v258h231v295h256v-297h234z" />
    <glyph glyph-name="daggerdbl" unicode="&#x2021;" horiz-adv-x="864" 
d="M793 1126h-234v-204h234v-256h-234v-297h-256v295h-231v258h231v204h-231v258h231v295h256v-297h234v-256z" />
    <glyph glyph-name="bullet" unicode="&#x2022;" horiz-adv-x="1093" 
d="M547 121c-144.667 0 -256.667 48.167 -336 144.5s-119 233.166 -119 410.499s39.667 314.166 119 410.499s191.333 144.5 336 144.5s256.5 -48.167 335.5 -144.5s118.5 -233.166 118.5 -410.499s-39.5 -314.166 -118.5 -410.499s-190.833 -144.5 -335.5 -144.5z" />
    <glyph glyph-name="ellipsis" unicode="&#x2026;" horiz-adv-x="1413" 
d="M235.5 0c-123 0 -184.5 52.5 -184.5 157.5s61.5 157.5 184.5 157.5s184.5 -52.5 184.5 -157.5s-61.5 -157.5 -184.5 -157.5zM706.5 0c-123 0 -184.5 52.5 -184.5 157.5s61.5 157.5 184.5 157.5s184.5 -52.5 184.5 -157.5s-61.5 -157.5 -184.5 -157.5zM1177.5 0
c-123 0 -184.5 52.5 -184.5 157.5s61.5 157.5 184.5 157.5s184.5 -52.5 184.5 -157.5s-61.5 -157.5 -184.5 -157.5z" />
    <glyph glyph-name="perthousand" unicode="&#x2030;" horiz-adv-x="1628" 
d="M227 963c-131.333 0 -196.667 64 -196 192v293c0 126.667 66 190 198 190c139.333 0 209 -63.333 209 -190v-293c0 -128 -70.333 -192 -211 -192zM216.999 0l447 1638h268l-447 -1638h-268zM232.999 1151c10.667 0 16.333 17.667 17 53v189c0 38 -5.66699 57 -17 57
c-9.33301 0 -14 -19 -14 -57v-189c0 -35.333 4.66699 -53 14 -53zM917.998 0c-131.333 0 -197 64.332 -197 192.999v292c0 126.667 67 190.334 201 191.001c138 0 206.667 -63.667 206 -191v-292c0.666992 -128.667 -69.333 -193 -210 -193zM1386 -0.000976562
c-131.333 0 -196.667 64.332 -196 192.999v292c0 126.667 67 190.334 201 191.001c138 0 206.667 -63.667 206 -191v-292c0 -128.667 -70.333 -193 -211 -193zM923.997 187.998c10.667 0 16 18 16 54v188c0 38 -5.33301 57 -16 57c-9.33301 0 -14.333 -19 -15 -57v-188
c0.666992 -36 5.66699 -54 15 -54zM1393 187.998c10.667 0 16 18 16 54v188c0 38 -5.33301 57 -16 57c-9.33301 0 -14.333 -19 -15 -57v-188c0.666992 -36 5.66699 -54 15 -54z" />
    <glyph glyph-name="minute" unicode="&#x2032;" horiz-adv-x="464" 
d="M92 1638h281l-27 -518h-227z" />
    <glyph glyph-name="second" unicode="&#x2033;" horiz-adv-x="780" 
d="M92 1638h281l-27 -520h-227zM408 1638h280l-26 -520h-228z" />
    <glyph glyph-name="guilsinglleft" unicode="&#x2039;" horiz-adv-x="641" 
d="M272 129l-268 401v39l268 402h357l-273 -420l273 -422h-357z" />
    <glyph glyph-name="guilsinglright" unicode="&#x203a;" horiz-adv-x="641" 
d="M12 129l271 422l-271 420h357l268 -402v-39l-268 -401h-357z" />
    <glyph glyph-name="fraction" unicode="&#x2044;" horiz-adv-x="620" 
d="M0 0l416 1638h205l-424 -1638h-197z" />
    <glyph glyph-name="uni2070" unicode="&#x2070;" horiz-adv-x="477" 
d="M31 1370l0.000976562 320c0 106.667 69 159.667 207 159c139.333 0 208.666 -53 207.999 -159v-320c0 -109.333 -70 -164 -210 -164c-136.667 0 -205 54.667 -205 164zM215.001 1403c0 -10.667 0.332031 -18.5 0.999023 -23.5s2.66699 -9.16699 6 -12.5s9.33301 -5 18 -5
c10.667 0 17.334 3 20.001 9s4 16.667 4 32v246c0 13.333 -0.333008 22.833 -1 28.5s-2.66699 10.5 -6 14.5s-9 6 -17 6c-10.667 0 -17.5 -3.5 -20.5 -10.5s-4.5 -19.833 -4.5 -38.5v-246z" />
    <glyph glyph-name="uni2074" unicode="&#x2074;" horiz-adv-x="522" 
d="M492 1462v-135h-35v-110h-185v110h-241v98l241 418h185v-381h35zM215 1462h57v113z" />
    <glyph glyph-name="uni2075" unicode="&#x2075;" horiz-adv-x="407" 
d="M377 1694h-168v-64c112 -13.333 168 -65 168 -155v-105c0 -102.667 -73.667 -153.667 -221 -153c-44 0 -85.667 4.66699 -125 14v168c38 -20.667 68 -31 90 -31c34 0 51 17.667 51 53v11c0 34 -24 51 -72 51h-69v360h346v-149z" />
    <glyph glyph-name="uni2076" unicode="&#x2076;" horiz-adv-x="520" 
d="M279 1604c140.667 -1.33301 210.667 -56.667 210 -166v-58c0 -113.333 -75.667 -170 -227 -170c-154 0 -231 65 -231 195c0 146 62.667 292 188 438h258c-92.667 -80 -158.667 -159.667 -198 -239zM289 1391v36.001c0 19.333 -7 29 -21 29h-30
c-1.33301 -6.66699 -2 -16.334 -2 -29.001c0 -46.667 8 -69.667 24 -69c19.333 0 29 11 29 33z" />
    <glyph glyph-name="uni2077" unicode="&#x2077;" horiz-adv-x="522" 
d="M31 1843h461.001v-78c-92.667 -191.333 -139.334 -353 -140.001 -485v-63h-229v67c0 131.333 39.667 262.333 119 393h-211v166z" />
    <glyph glyph-name="uni2078" unicode="&#x2078;" horiz-adv-x="507" 
d="M248 1223c-144.667 0 -217 50.334 -217 151.001v37c0 83.333 43.667 131.666 131 144.999c-84.667 9.33301 -127 51.666 -127 126.999v27c0 92.667 72.333 139 217 139c56 0 106.833 -10.5 152.5 -31.5s68.5 -56.833 68.5 -107.5v-27c0 -68 -42.333 -110.333 -127 -127
c87.333 -18 131 -66.333 131 -145v-37c0 -101.333 -72.333 -151.666 -217 -150.999h-12zM254 1622c18 0 27 12.333 27 37v4c0 22 -9 33 -27 33s-27 -11 -27 -33v-4c0 -24.667 9 -37 27 -37zM252 1370c22 0 33 17 33 51v17c0 35.333 -9.66699 53 -29 53h-6
c-19.333 0 -29 -17.667 -29 -53v-17c0 -34 10.333 -51 31 -51z" />
    <glyph glyph-name="uni2079" unicode="&#x2079;" horiz-adv-x="520" 
d="M260 1849c152.667 0 229 -64.667 229 -194c0 -147.333 -62 -293.333 -186 -438h-260c95.333 86 162.333 166.333 201 241c-142 1.33301 -213 56 -213 164v57c0 113.333 76.333 170 229 170zM254 1606h33c1.33301 6.66699 2 16 2 28c0 45.333 -9.66699 68 -29 68
c-16.667 0 -24.667 -10.333 -24 -31v-20c0 -30 6 -45 18 -45z" />
    <glyph glyph-name="uni2080" unicode="&#x2080;" horiz-adv-x="477" 
d="M31 -29l0.000976562 320c0 106.667 69 160 207 160c139.333 0 208.666 -53.333 207.999 -160v-320c0 -109.333 -70 -164 -210 -164c-136.667 0 -205 54.667 -205 164zM215.001 4c0 -10.667 0.332031 -18.5 0.999023 -23.5s2.66699 -9.16699 6 -12.5s9.33301 -5 18 -5
c10.667 0 17.334 2.83301 20.001 8.5s4 16.5 4 32.5v246c0 13.333 -0.333008 22.833 -1 28.5s-2.66699 10.5 -6 14.5s-9 6 -17 6c-10.667 0 -17.5 -3.33301 -20.5 -10s-4.5 -19.667 -4.5 -39v-246z" />
    <glyph glyph-name="uni2081" unicode="&#x2081;" horiz-adv-x="352" 
d="M31 285l0.000976562 161h135c104 0 156 -46.333 156 -139v-489h-203v432c0 30 -15.667 45 -47 45c-10.667 0 -24.334 -3.33301 -41.001 -10z" />
    <glyph glyph-name="uni2082" unicode="&#x2082;" horiz-adv-x="454" 
d="M424 246c0 -79.333 -32 -167.332 -96 -263.999h90v-164h-387v92l4 2c122.667 53.333 184 153.666 184 300.999c0 57.333 -22.333 86 -67 86c-39.333 0 -77.666 -18.333 -114.999 -55v174c53.333 22 112.666 33 177.999 33c139.333 0 209 -68.333 209 -205z" />
    <glyph glyph-name="uni2083" unicode="&#x2083;" horiz-adv-x="430" 
d="M262 150c91.333 -18 136.998 -67.333 136.998 -148v-22c0 -108 -74.333 -162 -223 -162c-26 0 -72.333 7.33301 -139 22v174c28.667 -28.667 62 -43 100 -43c40.667 0 61.334 14.333 62.001 43v15c0 30 -24.667 45 -74 45h-64v137h58c48 0 71.667 15.667 71 47
c0 23.333 -17.667 35 -53 35c-49.333 0 -84.666 -15 -105.999 -45v174c58.667 16.667 107.667 24.667 147 24c146 0 219 -49.667 219 -149v-6c0 -76 -45 -123 -135 -141z" />
    <glyph glyph-name="uni2084" unicode="&#x2084;" horiz-adv-x="522" 
d="M492 63v-135h-35v-110h-185v110h-241v99l241 417h185v-381h35zM215 63h57v113z" />
    <glyph glyph-name="uni2085" unicode="&#x2085;" horiz-adv-x="407" 
d="M377 295h-168v-64c112 -13.333 168 -65 168 -155v-105c0 -102.667 -73.667 -153.667 -221 -153c-44 0 -85.667 4.66699 -125 14v168c39.333 -20.667 69.333 -31 90 -31c34 0 51 18 51 54v10c0 34 -24 51 -72 51h-69v360h346v-149z" />
    <glyph glyph-name="uni2086" unicode="&#x2086;" horiz-adv-x="520" 
d="M279 201c140.667 -1.33301 210.667 -56.667 210 -166v-58c0 -113.333 -75.667 -170 -227 -170c-154 0 -231 65 -231 195c0 146 62.667 292 188 438h258c-92.667 -80 -158.667 -159.667 -198 -239zM289 -12.001v37.001c0 19.333 -7 28.666 -21 27.999h-30
c-1.33301 -6.66699 -2 -16 -2 -28c0 -46.667 8 -70 24 -70c19.333 0 29 11 29 33z" />
    <glyph glyph-name="uni2087" unicode="&#x2087;" horiz-adv-x="522" 
d="M31 444l461.001 0.000976562v-77c-92.667 -191.333 -139.334 -353.333 -140.001 -486v-63h-229v67c0 131.333 39.667 262.666 119 393.999h-211v165z" />
    <glyph glyph-name="uni2088" unicode="&#x2088;" horiz-adv-x="507" 
d="M248 -182c-144.667 0 -217 50.333 -217 151v37c0 83.333 43.667 132 131 146c-84.667 9.33301 -127 51.666 -127 126.999v26c0 92.667 72.333 139 217 139c56 0 106.833 -10.5 152.5 -31.5s68.5 -56.833 68.5 -107.5v-26c0 -68 -42.333 -110.333 -127 -127
c87.333 -18 131 -66.667 131 -146v-37c0 -101.333 -72.333 -151.666 -217 -150.999h-12zM254 217c18 0 27 12.333 27 37v4c0 22 -9 33 -27 33s-27 -11 -27 -33v-4c0 -24.667 9 -37 27 -37zM252 -35c22 0 33 17 33 51v17c0 35.333 -9.66699 53 -29 53h-6
c-19.333 0 -29 -17.667 -29 -53v-17c0 -34 10.333 -51 31 -51z" />
    <glyph glyph-name="uni2089" unicode="&#x2089;" horiz-adv-x="520" 
d="M260 451c152.667 0 229 -65 229 -195c0 -147.333 -62 -293.333 -186 -438h-260c95.333 86 162.333 166.333 201 241c-142 1.33301 -213 56 -213 164v58c0 113.333 76.333 170 229 170zM254 207h33c1.33301 6.66699 2 16.334 2 29.001
c0 45.333 -9.66699 67.666 -29 66.999c-16.667 0 -24.667 -10.333 -24 -31v-20c0 -30 6 -45 18 -45z" />
    <glyph glyph-name="Euro" unicode="&#x20ac;" horiz-adv-x="888" 
d="M606 225c53.333 0 120.334 29.333 201.001 88v-299c-86 -24.667 -168 -37 -246 -37c-139.333 0 -243.166 53 -311.499 159s-103.166 269 -104.499 489h-114v161h114v66h-114v164h114c1.33301 218.667 37.166 380.5 107.499 485.5s177.166 157.5 320.499 157.5
c76.667 0 154 -13 232 -39l-80 -256c-36.667 31.333 -76.334 47 -119.001 47c-95.333 0 -143 -117.333 -143 -352v-43h221l-29 -164h-192v-66h186l-28 -161h-158v-45c0 -236.667 47.667 -355 143 -355z" />
    <glyph glyph-name="uni2113" unicode="&#x2113;" horiz-adv-x="854" 
d="M10 420v252.001c61.333 4 114 19 158 45l43 612c8 112 36 195 84 249s117.667 81 209 81c108 0 188.167 -32.833 240.5 -98.5s78.5 -166.834 78.5 -303.501c0 -302 -133.667 -537.333 -401 -706l-10 -176c-5.33301 -113.333 28 -170 100 -170
c65.333 0 117.333 18.333 156 55v-260h-285c-169.333 0 -250 101.667 -242 305l6 166c-39.333 -23.333 -85 -40.333 -137 -51zM442 842.001c84.667 96.667 126.999 253.667 126.999 471c0 65.333 -13 98 -39 98c-35.333 0 -55.666 -49 -60.999 -147z" />
    <glyph glyph-name="uni2116" unicode="&#x2116;" horiz-adv-x="1757" 
d="M1352 1659c195.333 0 293 -87.999 293 -263.999v-262c0 -178.667 -97.667 -268.334 -293 -269.001c-194 0 -291 89.667 -291 269v262c0 176 97 264 291 264zM657 1305v333h324v-1638h-324v831l-208 334v-1165h-326v1638h326zM1386 1176v167c0 36.667 -2.33301 61 -7 73
s-13.834 18 -27.501 18s-22.834 -5.83301 -27.501 -17.5s-7 -36.167 -7 -73.5v-167c0 -32.667 2.33301 -54.5 7 -65.5s13.834 -16.5 27.501 -16.5s22.834 5.5 27.501 16.5s7 32.833 7 65.5zM1350 727.001c124 0 186 -50.5 186 -151.5s-62 -151.5 -186 -151.5
c-122.667 0 -184 50.5 -184 151.5s61.333 151.5 184 151.5z" />
    <glyph glyph-name="uni2117" unicode="&#x2117;" horiz-adv-x="1167" 
d="M575 1475c173.333 0 301.667 -45.167 385 -135.5s125 -229.5 125 -417.5v-328c0 -181.333 -41.5 -315.5 -124.5 -402.5s-211.5 -130.5 -385.5 -130.5c-168 0 -292.167 43.5 -372.5 130.5s-120.5 221.167 -120.5 402.5v328c0 188.667 40.167 328 120.5 418
s204.5 135 372.5 135zM922.001 604v309c0 135.333 -28 235.5 -84 300.5s-142.667 97.5 -260 97.5c-113.333 0 -197 -32.5 -251 -97.5s-81 -165.167 -81 -300.5v-309c0 -128.667 27 -224 81 -286s137.667 -93 251 -93c117.333 0 204 31 260 93s84 157.333 84 286z
M672.001 1149c125.333 0 188 -81.333 188 -244v-106c0 -160 -62.667 -240 -188 -240h-133v-172h-213v762h346zM645.001 840v20c0 60 -21 90 -63 90h-43v-192h43c42 0 63 27.333 63 82z" />
    <glyph glyph-name="trademark" unicode="&#x2122;" horiz-adv-x="677" 
d="M295 1638v-61h-53v-320h-72v320h-55v61h180zM471 1638l84 0.000976562v-381h-68v52c0 12 6.33301 98 19 258h-10c-4 -34 -11.667 -84.667 -23 -152l-12 -65h-39l-12 67c-12 82 -19.667 132 -23 150h-10c12 -152.667 18 -238.667 18 -258v-52h-67v381h86l16 -92
c4 -16.667 7.33301 -45.334 10 -86.001h2c2.66699 26 7 54.667 13 86z" />
    <glyph glyph-name="estimated" unicode="&#x212e;" horiz-adv-x="1429" 
d="M1206 219c-58.667 -68 -130.333 -121.499 -215 -160.499s-176 -58.5 -274 -58.5c-172 0 -319.167 55 -441.5 165s-183.5 242.167 -183.5 396.5s61.167 287 183.5 398s269.5 166.5 441.5 166.5s318.333 -54.833 439 -164.5s181 -241.834 181 -396.501v-47h-1009
c-4 0 -6 -2 -6 -6v-248c0 -16.667 4.66699 -29.667 14 -39c94 -94 221 -141 381 -141c150 0 271.333 45 364 135h125zM1104 602.001c2.66699 0 4 2.00098 4 6.00098v254c0 15.333 -4.66699 27.666 -14 36.999c-42 42 -97 76.333 -165 103s-138.667 40 -212 40
c-155.333 0 -282.333 -47 -381 -141c-9.33301 -8 -14 -21 -14 -39v-254c0 -4 2 -6 6 -6h776z" />
    <glyph glyph-name="uni2160" unicode="&#x2160;" horiz-adv-x="817" 
d="M563 1372v-1106h213v-266h-735v266h213v1106h-213v266h735v-266h-213z" />
    <glyph glyph-name="uni2161" unicode="&#x2161;" horiz-adv-x="1390" 
d="M1137 1372v-1106h213v-266h-1309v266h213v1106h-213v266h1309v-266h-213zM827 266v1106h-264v-1106h264z" />
    <glyph glyph-name="uni2162" unicode="&#x2162;" horiz-adv-x="1964" 
d="M1710 1372v-1106h213v-266h-1882v266h213v1106h-213v266h1882v-266h-213zM827 266v1106h-264v-1106h264zM1401 266v1106h-264v-1106h264z" />
    <glyph glyph-name="uni2163" unicode="&#x2163;" horiz-adv-x="1894" 
d="M1853 1374h-211l-237 -1108h448v-266h-1812v266h213v1106h-213v266h1812v-264zM1245 844l78 529.999h-303l76 -530c39.333 -273.333 60.333 -421.666 63 -444.999h27c8 86.667 27.667 235 59 445zM940 265.999l-238 1106h-139v-1106h377z" />
    <glyph glyph-name="uni2164" unicode="&#x2164;" horiz-adv-x="1443" 
d="M1403 1374h-211l-238 -1108h449v-266h-1362v266h448l-237 1108h-211v264h1362v-264zM795 844l77 530h-303l76 -530l64 -445h26c8.66699 86.667 28.667 235 60 445z" />
    <glyph glyph-name="uni2165" unicode="&#x2165;" horiz-adv-x="1902" 
d="M1649 1372v-1106h213v-266h-1821v266h448l-237 1108h-211v264h1821v-266h-213zM872 1374h-303l76 -530l64 -445h26c8 86 28 234.333 60 445zM1339 266v1106h-147l-238 -1106h385z" />
    <glyph glyph-name="uni2166" unicode="&#x2166;" horiz-adv-x="2496" 
d="M2243 1372v-1106h213v-266h-2415v266h448l-237 1108h-211v264h2415v-266h-213zM872 1374h-303l76 -530l64 -445h26c8 86 28 234.333 60 445zM1360 266v1106h-168l-238 -1106h406zM1933 266v1106h-264v-1106h264z" />
    <glyph glyph-name="uni2167" unicode="&#x2167;" horiz-adv-x="3069" 
d="M2816 1372v-1106h213v-266h-2988v266h448l-237 1108h-211v264h2988v-266h-213zM872 1374h-303l76 -530l64 -445h26c8 86 28 234.333 60 445zM1360 266v1106h-168l-238 -1106h406zM1933 266v1106h-264v-1106h264zM2507 266v1106h-264v-1106h264z" />
    <glyph glyph-name="uni2168" unicode="&#x2168;" horiz-adv-x="1763" 
d="M1511 1374l-243 -549l237 -559h217v-266h-1681v266h213v1106h-213v266h1681v-264h-211zM1171 1374l-129.002 -0.000976562c16.667 -45.333 33.334 -119 50.001 -221h26c18.667 100.667 36.334 174.334 53.001 221.001zM562.998 265.999h131l246 547l-240 559h-137v-1106z
M1024 265.999h150.001c-36.667 106.667 -57.334 186.667 -62.001 240h-27c-4 -62 -24.333 -142 -61 -240z" />
    <glyph glyph-name="uni2169" unicode="&#x2169;" horiz-adv-x="1320" 
d="M1069 1374l-244 -549l238 -559h217v-266h-1239v266h211l246 547l-240 561h-217v264h1239v-264h-211zM729 1374l-129.001 -0.000976562c16.667 -45.333 33 -119 49 -221h27c18.667 100.667 36.334 174.334 53.001 221.001zM581.999 265.999h149
c-36.667 106.667 -57 186.667 -61 240h-27c-4 -62 -24.333 -142 -61 -240z" />
    <glyph glyph-name="uni216A" unicode="&#x216a;" horiz-adv-x="1785" 
d="M1532 1372v-1106h213v-266h-1704v266h211l246 547l-240 561h-217v264h1704v-266h-213zM729 1374l-129.001 -0.000976562c16.667 -45.333 33 -119 49 -221h27c18.667 100.667 36.334 174.334 53.001 221.001zM1223 265.999v1106h-154l-244 -547l238 -559h160z
M642.999 505.999c-4 -61.333 -24.333 -141.333 -61 -240h149c-36.667 106.667 -57 186.667 -61 240h-27z" />
    <glyph glyph-name="uni216B" unicode="&#x216b;" horiz-adv-x="2359" 
d="M2105 1372v-1106h213v-266h-2277v266h211l246 547l-240 561h-217v264h2277v-266h-213zM729 1374l-129.001 -0.000976562c16.667 -45.333 33 -119 49 -221h27c18.667 100.667 36.334 174.334 53.001 221.001zM1223 265.999v1106h-154l-244 -547l238 -559h160z
M1796 265.999v1106h-264v-1106h264zM642.999 505.999c-4 -61.333 -24.333 -141.333 -61 -240h149c-36.667 106.667 -57 186.667 -61 240h-27z" />
    <glyph glyph-name="uni216C" unicode="&#x216c;" horiz-adv-x="811" 
d="M102 0v1638h326v-1372h352v-266h-678z" />
    <glyph glyph-name="uni216D" unicode="&#x216d;" horiz-adv-x="878" 
d="M102 391v854c0 276 140.667 414 422 414c117.333 0 215 -13 293 -39v-313c-61.333 57.333 -137.666 86 -228.999 86c-106.667 0 -160 -62.333 -160 -187v-774c0 -124 53.333 -186 160 -186c83.333 0 159.666 27.333 228.999 82v-312c-94 -26 -191.667 -39 -293 -39
c-281.333 0 -422 138 -422 414z" />
    <glyph glyph-name="uni216E" unicode="&#x216e;" horiz-adv-x="1054" 
d="M102 0v1638h433c142 0 247 -33.667 315 -101s102 -171.333 102 -312v-807c0 -142 -34.5 -247.167 -103.5 -315.5s-174.5 -102.5 -316.5 -102.5h-430zM428 266h109c60 0 90 58 90 174v725c0 116 -30 174 -90 174h-109v-1073z" />
    <glyph glyph-name="uni216F" unicode="&#x216f;" horiz-adv-x="1308" 
d="M102 0l0.000976562 1638h453l35 -258c19.333 -142 37 -355 53 -639h23c9.33301 151.333 30.333 364.333 63 639l31 258h446v-1638h-319v571c0 244.667 10.333 492 31 742h-27c-15.333 -104 -27.333 -193.167 -36 -267.5s-14.834 -135 -18.501 -182
s-5.5 -71.167 -5.5 -72.5l-59 -584h-229l-72 581c-4 34 -11.167 107.5 -21.5 220.5s-20.833 214.5 -31.5 304.5h-27c22 -392 33 -639.333 33 -742v-571h-322z" />
    <glyph glyph-name="arrowleft" unicode="&#x2190;" horiz-adv-x="1843" 
d="M922 803h809v-254h-811l-383 12l321 -319l-332 -2l-434 438l434 436h332l-326 -326z" />
    <glyph glyph-name="arrowup" unicode="&#x2191;" horiz-adv-x="1097" 
d="M985 1204v-332l-323 324l14 -387v-809h-256v811l14 385l-321 -324v332l436 434z" />
    <glyph glyph-name="arrowright" unicode="&#x2192;" horiz-adv-x="1843" 
d="M1317 1114l434 -436l-434 -438l-332 2l322 319l-383 -12h-811v254h809l389 -15l-326 326h332z" />
    <glyph glyph-name="arrowdown" unicode="&#x2193;" horiz-adv-x="1097" 
d="M662 238l323 323v-332l-436 -434l-436 434v332l321 -323l-14 385v811h256v-809z" />
    <glyph glyph-name="arrowboth" unicode="&#x2194;" horiz-adv-x="2048" 
d="M1522 1257l434 -436l-434 -438l-332 2l321 320l-383 -13h-208l-383 13l321 -320l-332 -2l-434 438l434 436h332l-326 -325l390 14h204l390 -14l-326 325h332z" />
    <glyph glyph-name="arrowupdn" unicode="&#x2195;" horiz-adv-x="1099" 
d="M987 1317v-332l-325 328l14 -389v-207l-14 -389l325 325v-329l-436 -435l-438 433l2 331l319 -319l-12 381v209l12 383l-319 -322l-2 332l438 436z" />
    <glyph glyph-name="uni2196" unicode="&#x2196;" horiz-adv-x="1476" 
d="M791 1145l573 -574l-180 -180l-572 572l-264 284v-459l-235 234l2 616l616 2l234 -235l-455 2z" />
    <glyph glyph-name="uni2197" unicode="&#x2197;" horiz-adv-x="1476" 
d="M1364 1022l-236 -234v459l-264 -284l-571 -572l-180 180l573 574l281 262l-455 -2l233 235l617 -2z" />
    <glyph glyph-name="uni2198" unicode="&#x2198;" horiz-adv-x="1476" 
d="M1128 850l236 -234l-2 -616l-617 -2l-233 235l455 -2l-281 263l-573 573l180 180l571 -571l264 -285v459z" />
    <glyph glyph-name="uni2199" unicode="&#x2199;" horiz-adv-x="1476" 
d="M791 494l-281 -263l455 2l-234 -235l-616 2l-2 616l235 234v-459l264 285l572 571l180 -180z" />
    <glyph glyph-name="uni21A9" unicode="&#x21a9;" horiz-adv-x="1994" 
d="M1458 1638c135.333 0 239.833 -42.001 313.5 -126.001s110.5 -202.333 110.5 -355s-36.833 -270.667 -110.5 -354s-178.167 -125 -313.5 -125h-618l-289 14l307 -307l-332 -2l-434 438l434 436h332l-309 -309l293 15h532c68 0 120.833 16.667 158.5 50
s56.5 81.333 56.5 144c0 61.333 -18.667 109.833 -56 145.5s-90.333 52.834 -159 51.501l-176 -2v286h260z" />
    <glyph glyph-name="uni21AA" unicode="&#x21aa;" horiz-adv-x="1994" 
d="M1468 1257l435 -435.999l-435 -438l-331 2l307 307l-289 -14h-618c-135.333 0 -239.833 41.667 -313.5 125s-110.5 201.333 -110.5 354s36.833 271 110.5 355s178.167 126 313.5 126h260v-286l-176 2c-68 1.33301 -120.833 -15.834 -158.5 -51.501
s-56.5 -84.167 -56.5 -145.5c0 -62.667 18.667 -110.667 56 -144s90.333 -50 159 -50h532l293 -15l-309 309h331z" />
    <glyph glyph-name="uni21B0" unicode="&#x21b0;" horiz-adv-x="1419" 
d="M1307 1386v-1386h-277v1130h-74l-424 15l326 -324l-332 -2l-434 438l434 437h332l-321 -322l417 14h353z" />
    <glyph glyph-name="uni21B1" unicode="&#x21b1;" horiz-adv-x="1419" 
d="M893 1694l434 -437l-434 -438l-332 2l326 324l-424 -15h-74v-1130h-276v1386h352l418 -14l-322 322h332z" />
    <glyph glyph-name="uni21B2" unicode="&#x21b2;" horiz-adv-x="1419" 
d="M1030 1694h277v-1387h-353l-417 15l321 -322h-332l-434 436l434 438l332 -2l-326 -323l424 14h74v1131z" />
    <glyph glyph-name="uni21B6" unicode="&#x21b6;" horiz-adv-x="1312" 
d="M768 1894c138 0 244.5 -45.999 319.5 -137.999s112.5 -223.333 112.5 -394v-1362h-256v1389c0 86 -15.667 152.5 -47 199.5s-75 70.5 -131 70.5c-57.333 0 -101 -23.833 -131 -71.5s-45 -113.834 -45 -198.501l2 -336l-12 -119l231 231v-329l-348 -349l-350 347v333
l235 -237l-12 123v309c0 170.667 37.5 302 112.5 394s181.5 138 319.5 138z" />
    <glyph glyph-name="uni21B7" unicode="&#x21b7;" horiz-adv-x="1312" 
d="M965 930l235 236.999v-333l-350 -347l-348 349v329l231 -231l-12 119l2 336c0 84.667 -15 150.834 -45 198.501s-73.667 71.5 -131 71.5c-56 0 -99.667 -23.5 -131 -70.5s-47 -113.5 -47 -199.5v-1389h-256v1362c0 170.667 37.5 302 112.5 394s181.5 138 319.5 138
s244.5 -46 319.5 -138s112.5 -223.333 112.5 -394v-309z" />
    <glyph glyph-name="uni21BA" unicode="&#x21ba;" horiz-adv-x="1761" 
d="M872 1425c237.333 5.33301 429.5 -64.667 576.5 -210s220.5 -331.333 220.5 -558s-73 -413 -219 -559s-334.333 -219 -565 -219c-229.333 0 -418.833 73.333 -568.5 220s-224.5 337.667 -224.5 573h215c0 -162.667 54.333 -296.167 163 -400.5s247.667 -156.5 417 -156.5
c168 0 304.5 50.5 409.5 151.5s157.5 230.667 157.5 389s-54 288 -162 389s-248 149.5 -420 145.5l-192 37l385 -305h-279l-383 303v166l383 303h277l-383 -305z" />
    <glyph glyph-name="uni21BB" unicode="&#x21bb;" horiz-adv-x="1761" 
d="M1454 672l215 -0.000976562c0 -234.667 -74.667 -425.5 -224 -572.5s-338.666 -220.5 -567.999 -220.5c-230.667 0 -419.167 73 -565.5 219s-219.5 332.333 -219.5 559s73.333 412.834 220 558.501s339 215.5 577 209.5l192 -36l-383 305h277l383 -303v-166l-383 -303
h-279l385 305l-192 -37c-172 4 -312 -44.5 -420 -145.5s-162 -230.667 -162 -389s52.667 -288 158 -389s241.666 -151.5 408.999 -151.5c169.333 0 308.333 52.167 417 156.5s163 237.833 163 400.5z" />
    <glyph glyph-name="partialdiff" unicode="&#x2202;" horiz-adv-x="1019" 
d="M319 1651c177.333 -94 308.167 -209.667 392.5 -347s126.5 -300.333 126.5 -489v-504c0 -108 -29.333 -190.167 -88 -246.5s-155.667 -84.5 -291 -84.5c-122.667 0 -211 28.667 -265 86s-81 139 -81 245v504c0 216 112.667 326.667 338 332c-2.66699 0 -5 0.666992 -7 2
c-58.667 110.667 -159.667 202 -303 274zM520.001 328v464.998c0 50.667 -3.33301 84.834 -10 102.501s-19.667 26.5 -39 26.5c-16.667 0 -27.667 -8.66699 -33 -26s-8 -51.666 -8 -102.999v-465c0 -49.333 2.66699 -82.166 8 -98.499s16.333 -24.5 33 -24.5
c19.333 0 32.333 8.16699 39 24.5s10 49.166 10 98.499z" />
    <glyph glyph-name="emptyset" unicode="&#x2205;" horiz-adv-x="897" 
d="M846 1006l-63.999 -91.001c39.333 -91.333 59.333 -208.666 60 -351.999c0 -375.333 -130.333 -563 -391 -563c-105.333 -0 -188 29.333 -248 88l-60 -84l-92 117l64 90c-40.667 90 -61.334 207.333 -62.001 352c0 375.333 132.667 563 398 563
c101.333 0 182.333 -28.667 243 -86l58 82zM207.001 562.999c0 -72.667 5.33203 -138 15.999 -196l379 542c-35.333 35.333 -85.666 53.333 -150.999 54c-86 0 -148.167 -31.5 -186.5 -94.5s-57.5 -164.833 -57.5 -305.5zM692 562.999c0 79.333 -6 145.666 -18 198.999
l-379 -543c36.667 -36.667 88.667 -55 156 -55c84.667 0 146 31.333 184 94s57 164.334 57 305.001z" />
    <glyph glyph-name="product" unicode="&#x220f;" horiz-adv-x="1202" 
d="M717 -471l-6 1833h-226l7 -1833h-332l-6 2109h888l7 -2109h-332z" />
    <glyph glyph-name="summation" unicode="&#x2211;" horiz-adv-x="839" 
d="M31 -57l311 637l-289 645v413h735l-38 -276h-426l278 -629v-297l-287 -631h461v-276h-745v414z" />
    <glyph glyph-name="minus" unicode="&#x2212;" horiz-adv-x="884" 
d="M752 948v-256h-619v256h619z" />
    <glyph glyph-name="radical" unicode="&#x221a;" horiz-adv-x="1044" 
d="M657 1638h357l-348 -1638h-344l-193 850h-78v276h357l28 -335c5.33301 -69.333 12.5 -134.5 21.5 -195.5l21.5 -143c5.33301 -34.333 8 -57.5 8 -69.5h11l23.5 138c14.333 84 26.833 173 37.5 267z" />
    <glyph glyph-name="infinity" unicode="&#x221e;" horiz-adv-x="1091" 
d="M291 197c-160 0 -240 112.667 -240 338c0 229.333 86.667 344 260 344c79.333 0 158 -54 236 -162c78 108 163.333 162 256 162c158.667 0 237.667 -112.667 237 -338c0 -229.333 -86 -344 -258 -344c-78 0 -157 53.667 -237 161c-78 -107.333 -162.667 -161 -254 -161z
M352 459c30 0 49.333 23.667 58 71c-27.333 57.333 -52 86 -74 86c-13.333 0 -20.333 -27 -21 -81c0 -50.667 12.333 -76 37 -76zM756 459c13.333 0 20 27.333 20 82c0 50.667 -11 75.667 -33 75c-31.333 0 -51 -23.667 -59 -71c23.333 -57.333 47.333 -86 72 -86z" />
    <glyph glyph-name="integral" unicode="&#x222b;" horiz-adv-x="616" 
d="M-51 -473l0.00292969 283c31.333 -23.333 62.666 -35 93.999 -35c27.333 0 45.5 10.5 54.5 31.5s14.833 53.5 17.5 97.5l67 1337c13.333 266 126.666 399 339.999 399h146v-276c-32.667 23.333 -64.334 35 -95.001 35c-44 0 -67.667 -45 -71 -135l-68 -1338
c-13.333 -266 -127.333 -399 -342 -399h-143z" />
    <glyph glyph-name="approxequal" unicode="&#x2248;" horiz-adv-x="825" 
d="M160 844l-88 134.999c46.667 162.667 119.667 244 219 244c38 0 81 -19.833 129 -59.5s87.667 -59.5 119 -59.5c62.667 0 104.334 39.667 125.001 119l90 -138c-46.667 -161.333 -120.667 -241.666 -222 -240.999c-36.667 0 -78.834 19.833 -126.501 59.5
s-87.167 59.5 -118.5 59.5c-62.667 0 -105 -39.667 -127 -119zM160 417.999l-88 137c46.667 161.333 119.667 242 219 242c38 0 81 -19.833 129 -59.5s87.667 -59.5 119 -59.5c62.667 0 104.334 39.667 125.001 119l90 -135c-46.667 -162.667 -120.667 -244 -222 -244
c-36.667 0 -78.834 19.833 -126.501 59.5s-87.167 59.5 -118.5 59.5c-62.667 0 -105 -39.667 -127 -119z" />
    <glyph glyph-name="notequal" unicode="&#x2260;" horiz-adv-x="829" 
d="M717 905h-164l-35 -168h199v-235h-250l-37 -178h-242l37 178h-112v235h163l35 168h-198v236h249l37 178h242l-37 -178h113v-236z" />
    <glyph glyph-name="lessequal" unicode="&#x2264;" horiz-adv-x="847" 
d="M743 575l-641 281v258l641 272v-256l-141 -63c-82 -36.667 -186.333 -64 -313 -82v-6c124 -22 232.333 -52.667 325 -92l129 -56v-256zM745 258h-643v236h643v-236z" />
    <glyph glyph-name="greaterequal" unicode="&#x2265;" horiz-adv-x="847" 
d="M104 575v256l129 56c60 26 123.5 47.5 190.5 64.5s112.167 26.167 135.5 27.5v6c-126.667 18 -231 45.333 -313 82l-142 63v256l641 -272v-258zM102 258v236h643v-236h-643z" />
    <glyph glyph-name="uni24FF" unicode="&#x24ff;" horiz-adv-x="1433" 
d="M719 -20c-199.333 0 -346.833 60 -442.5 180s-143.5 305.667 -143.5 557s47.833 437 143.5 557s243.167 180 442.5 180c198 0 344.333 -60 439 -180s142 -305.667 142 -557s-47.333 -437 -142 -557s-241 -180 -439 -180zM715 297c139.333 0 209 65.667 209 197v446
c0 131.333 -69 197 -207 197s-207 -65.667 -207 -197v-446c0 -131.333 68.333 -197 205 -197zM668 696l0.000976562 222c0 56 16.333 83.667 49 83c27.333 0 43.666 -19.667 48.999 -59zM717.001 432c-35.333 0 -52.333 26.667 -51 80l100 252v-250
c0 -26 -4.83301 -46.167 -14.5 -60.5s-21.167 -21.5 -34.5 -21.5z" />
    <glyph glyph-name="filledbox" unicode="&#x25a0;" horiz-adv-x="1794" 
d="M1479 1638c148.667 0 223 -74.333 223 -223v-1190c0 -148.667 -74.333 -223 -223 -223h-1164c-148.667 0 -223 74.333 -223 223v1190c0 148.667 74.333 223 223 223h1164z" />
    <glyph glyph-name="H22073" unicode="&#x25a1;" horiz-adv-x="1794" 
d="M315 2c-148.667 0 -223 74.333 -223 223v1190c0 148.667 74.333 223 223 223h1164c148.667 0 223 -74.333 223 -223v-1190c0 -148.667 -74.333 -223 -223 -223h-1164zM551 293l692 -0.000976562c87.333 0 131 44.333 131 133v788c0 88.667 -43.667 133.334 -131 134.001
h-692c-87.333 0 -131 -44.667 -131 -134v-788c0 -88.667 43.667 -133 131 -133z" />
    <glyph glyph-name="triagup" unicode="&#x25b2;" horiz-adv-x="2127" 
d="M981 1573c53.333 86 107.333 86 162 0l887 -1432c58.667 -94 32 -141 -80 -141h-1768c-26 0 -45.167 1 -57.5 3s-26 6.83301 -41 14.5s-20.667 22 -17 43s15.5 47.833 35.5 80.5z" />
    <glyph glyph-name="uni25B3" unicode="&#x25b3;" horiz-adv-x="2127" 
d="M182 0c-26 0 -45.167 1 -57.5 3s-26 6.83301 -41 14.5s-20.667 22 -17 43s15.5 47.833 35.5 80.5l879 1432c53.333 86 107.333 86 162 0l887 -1432c58.667 -94 32 -141 -80 -141h-1768zM637 307h858.002c12 0 20.833 0.666992 26.5 2s10.5 5.83301 14.5 13.5
s-0.666992 19.5 -14 35.5l-432 697c-10.667 16.667 -19.834 25.167 -27.501 25.5s-17.167 -8.16699 -28.5 -25.5l-426 -697c-6.66699 -10.667 -11 -19 -13 -25s-0.333008 -11.833 5 -17.5s17.666 -8.5 36.999 -8.5z" />
    <glyph glyph-name="lozenge" unicode="&#x25ca;" horiz-adv-x="899" 
d="M643 1638l225 -819l-225 -819h-375l-237 819l237 819h375zM496 543l55.001 275.997l-53 277c-5.33301 26 -10.5 60.833 -15.5 104.5s-11.5 80.5 -19.5 110.5h-12c-8 -32.667 -14.167 -59.667 -18.5 -81s-7.83301 -43.666 -10.5 -66.999s-6 -45.666 -10 -66.999l-54 -277
l56 -276c5.33301 -26 10.666 -60.833 15.999 -104.5s12.333 -80.5 21 -110.5h12c6.66699 27.333 12.167 61.833 16.5 103.5s9.83301 78.834 16.5 111.501z" />
    <glyph glyph-name="circle" unicode="&#x25cb;" horiz-adv-x="1972" 
d="M985 -18c-244.667 0 -447.832 80.5 -609.499 241.5s-242.5 360.833 -242.5 599.5c0 233.333 82.667 431 248 593s366.666 243 603.999 243c244.667 0 448.167 -80.5 610.5 -241.5s243.5 -359.167 243.5 -594.5c0 -238.667 -81.167 -438.5 -243.5 -599.5
s-365.833 -241.5 -610.5 -241.5zM985.002 295c151.333 0 276.833 50.501 376.5 151.501s149.5 226.5 149.5 376.5c0 147.333 -49.833 271.333 -149.5 372s-225.167 151 -376.5 151c-150 0 -274.833 -50.667 -374.5 -152s-149.5 -225 -149.5 -371
c0 -148.667 49.833 -273.834 149.5 -375.501s224.5 -152.5 374.5 -152.5z" />
    <glyph glyph-name="H18533" unicode="&#x25cf;" horiz-adv-x="1955" 
d="M976.5 -20c-241.667 0 -442.667 78.833 -603 236.5s-240.5 359.167 -240.5 604.5c0 244.667 80.167 445.5 240.5 602.5s361.333 235.5 603 235.5s443.167 -78.5 604.5 -235.5s242 -357.833 242 -602.5c0 -246 -80.667 -447.667 -242 -605s-362.833 -236 -604.5 -236z" />
    <glyph glyph-name="uni2602" unicode="&#x2602;" horiz-adv-x="1583" 
d="M829 1507c211.333 -9.33301 374.501 -68.002 489.501 -176.002s172.5 -257.333 172.5 -448h-72c0 48 -16.667 86.833 -50 116.5s-77.333 44.5 -132 44.5s-98.667 -15 -132 -45s-50 -68.667 -50 -116h-72c0 40.667 -13.667 75.334 -41 104.001s-63.333 46.334 -108 53.001
v-815c0 -150 -70.333 -225 -211 -225c-125.333 0 -188.333 60.667 -189 182h72c0 -72.667 39 -108.667 117 -108c86 0 129 50.333 129 151v815c-46.667 -8 -84 -26.333 -112 -55s-42 -62.667 -42 -102h-72c0 48 -16.667 86.833 -50 116.5s-77.333 44.5 -132 44.5
s-98.334 -15 -131.001 -45s-49 -68.667 -49 -116h-72c0 191.333 57.333 340.833 172 448.5s278 166.167 490 175.5l10 131h59z" />
    </font>
</defs>
</svg>
